STARTFONT 2.1
COMMENT
COMMENT Converted from OpenType font "ArialB.otf" by "otf2bdf 3.0".
COMMENT
FONT -FreeType-Arial-Bold-R-Normal--22-160-100-100-P-112-ISO10646-1
SIZE 16 100 100
FONTBOUNDINGBOX 38 30 -14 -8
STARTPROPERTIES 19
FOUNDRY "FreeType"
FAMILY_NAME "Arial"
WEIGHT_NAME "Bold"
SLANT "R"
SETWIDTH_NAME "Normal"
ADD_STYLE_NAME ""
PIXEL_SIZE 22
POINT_SIZE 160
RESOLUTION_X 100
RESOLUTION_Y 100
SPACING "P"
AVERAGE_WIDTH 112
CHARSET_REGISTRY "ISO10646"
CHARSET_ENCODING "1"
FONT_ASCENT 19
FONT_DESCENT 4
COPYRIGHT "© 2006 The Monotype Corporation. All Rights Reserved."
_OTF_FONTFILE "ArialB.otf"
_OTF_PSNAME "Arial-BoldMT"
ENDPROPERTIES
CHARS 1425
STARTCHAR 0020
ENCODING 32
SWIDTH 270 0
DWIDTH 6 0
BBX 0 0 0 0
BITMAP
ENDCHAR
STARTCHAR 0021
ENCODING 33
SWIDTH 315 0
DWIDTH 7 0
BBX 3 16 2 0
BITMAP
E0
E0
E0
E0
E0
E0
E0
E0
E0
60
60
60
00
E0
E0
E0
ENDCHAR
STARTCHAR 0022
ENCODING 34
SWIDTH 495 0
DWIDTH 11 0
BBX 8 6 1 10
BITMAP
F7
F7
F7
E7
67
63
ENDCHAR
STARTCHAR 0023
ENCODING 35
SWIDTH 540 0
DWIDTH 12 0
BBX 12 16 0 0
BITMAP
0C60
0C60
0CE0
1CE0
FFF0
FFF0
18C0
19C0
39C0
3980
FFF0
FFF0
3380
7380
7300
6300
ENDCHAR
STARTCHAR 0024
ENCODING 36
SWIDTH 540 0
DWIDTH 12 0
BBX 10 19 1 -2
BITMAP
0C00
3F00
7F80
7FC0
EDC0
EC00
EC00
7C00
7F00
1FC0
0FC0
0DC0
ECC0
ECC0
FDC0
7F80
3F00
0C00
0C00
ENDCHAR
STARTCHAR 0025
ENCODING 37
SWIDTH 900 0
DWIDTH 20 0
BBX 18 17 1 -1
BITMAP
7C0C00
FC1800
CE1800
C63000
C63000
CE6000
FE6000
7CC000
00C700
019F80
019980
0319C0
0319C0
0619C0
061980
0C0F80
0C0600
ENDCHAR
STARTCHAR 0026
ENCODING 38
SWIDTH 720 0
DWIDTH 16 0
BBX 14 16 1 0
BITMAP
0F80
1FC0
38E0
38E0
3CE0
1FC0
1F80
3F00
7F80
F3F8
E1F8
E1F8
E0F0
F1FC
7FFC
3F9C
ENDCHAR
STARTCHAR 0027
ENCODING 39
SWIDTH 225 0
DWIDTH 5 0
BBX 3 6 1 10
BITMAP
E0
E0
E0
E0
E0
60
ENDCHAR
STARTCHAR 0028
ENCODING 40
SWIDTH 315 0
DWIDTH 7 0
BBX 6 21 1 -5
BITMAP
18
18
38
30
70
70
60
E0
E0
E0
E0
E0
E0
E0
70
70
70
30
38
18
1C
ENDCHAR
STARTCHAR 0029
ENCODING 41
SWIDTH 315 0
DWIDTH 7 0
BBX 5 21 1 -5
BITMAP
C0
E0
60
70
30
38
38
38
38
38
38
38
38
38
38
30
70
70
60
E0
C0
ENDCHAR
STARTCHAR 002A
ENCODING 42
SWIDTH 405 0
DWIDTH 9 0
BBX 7 7 1 9
BITMAP
30
30
FE
FE
38
6C
CC
ENDCHAR
STARTCHAR 002B
ENCODING 43
SWIDTH 585 0
DWIDTH 13 0
BBX 11 11 1 2
BITMAP
0E00
0E00
0E00
0E00
FFE0
FFE0
FFE0
0E00
0E00
0E00
0E00
ENDCHAR
STARTCHAR 002C
ENCODING 44
SWIDTH 270 0
DWIDTH 6 0
BBX 4 6 1 -4
BITMAP
70
70
70
20
20
E0
ENDCHAR
STARTCHAR 002D
ENCODING 45
SWIDTH 315 0
DWIDTH 7 0
BBX 6 3 1 4
BITMAP
FC
FC
FC
ENDCHAR
STARTCHAR 002E
ENCODING 46
SWIDTH 270 0
DWIDTH 6 0
BBX 3 3 2 0
BITMAP
E0
E0
E0
ENDCHAR
STARTCHAR 002F
ENCODING 47
SWIDTH 270 0
DWIDTH 6 0
BBX 6 16 0 0
BITMAP
0C
1C
1C
18
18
18
38
30
30
30
70
60
60
60
E0
C0
ENDCHAR
STARTCHAR 0030
ENCODING 48
SWIDTH 540 0
DWIDTH 12 0
BBX 10 16 1 0
BITMAP
1E00
3F80
7F80
73C0
E1C0
E1C0
E1C0
E1C0
E1C0
E1C0
E1C0
E1C0
F1C0
7380
7F80
3F00
ENDCHAR
STARTCHAR 0031
ENCODING 49
SWIDTH 540 0
DWIDTH 12 0
BBX 7 16 2 0
BITMAP
0E
1E
3E
7E
FE
CE
8E
0E
0E
0E
0E
0E
0E
0E
0E
0E
ENDCHAR
STARTCHAR 0032
ENCODING 50
SWIDTH 540 0
DWIDTH 12 0
BBX 10 16 1 0
BITMAP
1F00
7F80
7FC0
E1C0
E1C0
01C0
01C0
0380
0780
0F00
1E00
3C00
7800
FFC0
FFC0
FFC0
ENDCHAR
STARTCHAR 0033
ENCODING 51
SWIDTH 540 0
DWIDTH 12 0
BBX 10 16 1 0
BITMAP
1E00
7F80
7F80
E3C0
21C0
0380
0F80
0F00
0F80
01C0
01C0
21C0
E1C0
F3C0
7F80
3F00
ENDCHAR
STARTCHAR 0034
ENCODING 52
SWIDTH 540 0
DWIDTH 12 0
BBX 12 16 0 0
BITMAP
01C0
03C0
03C0
07C0
0FC0
0DC0
1DC0
39C0
31C0
71C0
FFF0
FFF0
FFF0
01C0
01C0
01C0
ENDCHAR
STARTCHAR 0035
ENCODING 53
SWIDTH 540 0
DWIDTH 12 0
BBX 11 16 1 0
BITMAP
3FC0
3FC0
7FC0
7000
7000
7600
7F80
7FC0
E1C0
01E0
00E0
00E0
E1C0
F3C0
7F80
3F00
ENDCHAR
STARTCHAR 0036
ENCODING 54
SWIDTH 540 0
DWIDTH 12 0
BBX 11 16 1 0
BITMAP
1F00
3F80
7FC0
71C0
E000
E000
EF00
FFC0
F1C0
F1C0
E0E0
E0E0
F1C0
79C0
3F80
1F00
ENDCHAR
STARTCHAR 0037
ENCODING 55
SWIDTH 540 0
DWIDTH 12 0
BBX 10 16 1 0
BITMAP
FFC0
FFC0
FFC0
0180
0380
0700
0700
0E00
0E00
1C00
1C00
1C00
3800
3800
3800
3800
ENDCHAR
STARTCHAR 0038
ENCODING 56
SWIDTH 540 0
DWIDTH 12 0
BBX 10 16 1 0
BITMAP
1F00
7F80
7BC0
E1C0
E1C0
61C0
7F80
3F00
7F80
E1C0
E1C0
E1C0
E1C0
F3C0
7F80
3F00
ENDCHAR
STARTCHAR 0039
ENCODING 57
SWIDTH 540 0
DWIDTH 12 0
BBX 10 16 1 0
BITMAP
1E00
7F00
FF80
E3C0
E1C0
E1C0
E1C0
E3C0
7FC0
7FC0
19C0
01C0
E1C0
F380
7F80
3E00
ENDCHAR
STARTCHAR 003A
ENCODING 58
SWIDTH 315 0
DWIDTH 7 0
BBX 3 12 2 0
BITMAP
E0
E0
E0
E0
00
00
00
00
00
E0
E0
E0
ENDCHAR
STARTCHAR 003B
ENCODING 59
SWIDTH 315 0
DWIDTH 7 0
BBX 3 16 2 -4
BITMAP
E0
E0
E0
E0
00
00
00
00
00
E0
E0
E0
20
60
C0
80
ENDCHAR
STARTCHAR 003C
ENCODING 60
SWIDTH 585 0
DWIDTH 13 0
BBX 11 12 1 2
BITMAP
0020
00E0
07E0
1FC0
7F00
F800
F000
FE00
3F80
07E0
01E0
0060
ENDCHAR
STARTCHAR 003D
ENCODING 61
SWIDTH 585 0
DWIDTH 13 0
BBX 11 8 1 4
BITMAP
FFE0
FFE0
FFE0
0000
0000
FFE0
FFE0
FFE0
ENDCHAR
STARTCHAR 003E
ENCODING 62
SWIDTH 585 0
DWIDTH 13 0
BBX 11 12 1 2
BITMAP
8000
E000
FC00
7F00
1FC0
03E0
01E0
0FE0
3F80
FC00
F000
C000
ENDCHAR
STARTCHAR 003F
ENCODING 63
SWIDTH 630 0
DWIDTH 14 0
BBX 12 16 1 0
BITMAP
1F80
3FC0
79E0
F0E0
E070
00E0
01E0
03C0
0780
0700
0E00
0E00
0000
0E00
0E00
0E00
ENDCHAR
STARTCHAR 0040
ENCODING 64
SWIDTH 990 0
DWIDTH 22 0
BBX 20 21 1 -5
BITMAP
01FE00
0FFF80
1E03C0
3800E0
70E060
63F630
E79E30
C70E30
CE0E30
CE0E30
CE0C30
CE1C60
CE1CE0
CE3DC0
C7FF80
63DE00
700030
3800E0
1F07C0
07FF80
00F800
ENDCHAR
STARTCHAR 0041
ENCODING 65
SWIDTH 720 0
DWIDTH 16 0
BBX 16 16 0 0
BITMAP
03C0
03C0
07E0
07E0
0FE0
0EF0
0E70
1E78
1C38
1C38
3FFC
3FFC
781E
701E
700E
F00F
ENDCHAR
STARTCHAR 0042
ENCODING 66
SWIDTH 720 0
DWIDTH 16 0
BBX 13 16 2 0
BITMAP
FFC0
FFE0
FFF0
E070
E070
E070
FFE0
FFC0
FFF0
E070
E038
E038
E078
FFF0
FFF0
FFC0
ENDCHAR
STARTCHAR 0043
ENCODING 67
SWIDTH 720 0
DWIDTH 16 0
BBX 14 16 1 0
BITMAP
0FE0
1FF0
3FF8
783C
703C
F000
E000
E000
E000
E000
F010
703C
7838
3EF8
3FF0
0FE0
ENDCHAR
STARTCHAR 0044
ENCODING 68
SWIDTH 720 0
DWIDTH 16 0
BBX 13 16 2 0
BITMAP
FF80
FFC0
FFE0
E0F0
E070
E078
E038
E038
E038
E038
E078
E070
E0F0
FFF0
FFE0
FF80
ENDCHAR
STARTCHAR 0045
ENCODING 69
SWIDTH 675 0
DWIDTH 15 0
BBX 12 16 2 0
BITMAP
FFE0
FFE0
FFE0
E000
E000
E000
FFE0
FFE0
FFE0
E000
E000
E000
E000
FFF0
FFF0
FFF0
ENDCHAR
STARTCHAR 0046
ENCODING 70
SWIDTH 630 0
DWIDTH 14 0
BBX 11 16 2 0
BITMAP
FFE0
FFE0
FFE0
E000
E000
E000
E000
FF80
FF80
E000
E000
E000
E000
E000
E000
E000
ENDCHAR
STARTCHAR 0047
ENCODING 71
SWIDTH 765 0
DWIDTH 17 0
BBX 15 16 1 0
BITMAP
0FF0
1FF8
3FFC
781C
701E
F000
E000
E0FE
E0FE
E0FE
F00E
700E
781E
3EFE
1FFC
0FF0
ENDCHAR
STARTCHAR 0048
ENCODING 72
SWIDTH 720 0
DWIDTH 16 0
BBX 12 16 2 0
BITMAP
E070
E070
E070
E070
E070
E070
FFF0
FFF0
FFF0
E070
E070
E070
E070
E070
E070
E070
ENDCHAR
STARTCHAR 0049
ENCODING 73
SWIDTH 270 0
DWIDTH 6 0
BBX 3 16 2 0
BITMAP
E0
E0
E0
E0
E0
E0
E0
E0
E0
E0
E0
E0
E0
E0
E0
E0
ENDCHAR
STARTCHAR 004A
ENCODING 74
SWIDTH 540 0
DWIDTH 12 0
BBX 11 16 0 0
BITMAP
01E0
01E0
01E0
01E0
01E0
01E0
01E0
01E0
01E0
01E0
01E0
E1E0
F1C0
7BC0
7FC0
3F00
ENDCHAR
STARTCHAR 004B
ENCODING 75
SWIDTH 720 0
DWIDTH 16 0
BBX 14 16 2 0
BITMAP
E078
E0F0
E1E0
E3C0
E780
EF00
FF00
FF00
FF80
FBC0
F1C0
E1E0
E0F0
E0F0
E078
E03C
ENDCHAR
STARTCHAR 004C
ENCODING 76
SWIDTH 630 0
DWIDTH 14 0
BBX 11 16 2 0
BITMAP
E000
E000
E000
E000
E000
E000
E000
E000
E000
E000
E000
E000
E000
FFE0
FFE0
FFE0
ENDCHAR
STARTCHAR 004D
ENCODING 77
SWIDTH 855 0
DWIDTH 19 0
BBX 15 16 2 0
BITMAP
F03E
F83E
F87E
F87E
FC7E
FC6E
FCEE
ECEE
EEEE
EECE
EFCE
E7CE
E7CE
E78E
E78E
E38E
ENDCHAR
STARTCHAR 004E
ENCODING 78
SWIDTH 720 0
DWIDTH 16 0
BBX 12 16 2 0
BITMAP
E070
F070
F070
F870
F870
FC70
FE70
EE70
EF70
E7F0
E3F0
E3F0
E1F0
E1F0
E0F0
E070
ENDCHAR
STARTCHAR 004F
ENCODING 79
SWIDTH 765 0
DWIDTH 17 0
BBX 15 16 1 0
BITMAP
0FE0
1FF8
3FFC
783C
701E
F00E
E00E
E00E
E00E
E00E
F00E
F01E
783C
3EFC
3FF8
0FE0
ENDCHAR
STARTCHAR 0050
ENCODING 80
SWIDTH 675 0
DWIDTH 15 0
BBX 12 16 2 0
BITMAP
FF80
FFE0
FFE0
E0F0
E0F0
E0F0
E0F0
FFE0
FFE0
FF80
E000
E000
E000
E000
E000
E000
ENDCHAR
STARTCHAR 0051
ENCODING 81
SWIDTH 765 0
DWIDTH 17 0
BBX 16 18 1 -2
BITMAP
0FE0
1FF8
3FFC
783C
701E
F00E
E00E
E00E
E00E
E00E
F00E
F1DE
79FC
3EFC
3FFC
0FFF
0006
0002
ENDCHAR
STARTCHAR 0052
ENCODING 82
SWIDTH 720 0
DWIDTH 16 0
BBX 14 16 2 0
BITMAP
FFC0
FFF0
FFF0
E078
E078
E078
E0F0
FFF0
FFC0
E780
E3C0
E1E0
E0F0
E0F0
E078
E03C
ENDCHAR
STARTCHAR 0053
ENCODING 83
SWIDTH 675 0
DWIDTH 15 0
BBX 13 16 1 0
BITMAP
1FC0
7FE0
7FF0
F070
F070
7800
7F00
3FE0
0FF0
01F0
0078
E038
F078
7DF0
7FF0
1FC0
ENDCHAR
STARTCHAR 0054
ENCODING 84
SWIDTH 630 0
DWIDTH 14 0
BBX 13 16 0 0
BITMAP
FFF8
FFF8
FFF8
0700
0700
0700
0700
0700
0700
0700
0700
0700
0700
0700
0700
0700
ENDCHAR
STARTCHAR 0055
ENCODING 85
SWIDTH 720 0
DWIDTH 16 0
BBX 12 16 2 0
BITMAP
E070
E070
E070
E070
E070
E070
E070
E070
E070
E070
E070
E070
E070
F9F0
7FE0
3FC0
ENDCHAR
STARTCHAR 0056
ENCODING 86
SWIDTH 675 0
DWIDTH 15 0
BBX 15 16 0 0
BITMAP
F01E
F01C
701C
783C
3838
3838
3C78
1C70
1C70
1EE0
0EE0
0EE0
0FC0
07C0
07C0
0780
ENDCHAR
STARTCHAR 0057
ENCODING 87
SWIDTH 945 0
DWIDTH 21 0
BBX 21 16 0 0
BITMAP
E07838
F0F878
70F870
70F870
71DC70
79DC70
39DCE0
39DCE0
3B8EE0
3B8EE0
1F8FC0
1F8FC0
1F07C0
1F07C0
0F0780
0E0380
ENDCHAR
STARTCHAR 0058
ENCODING 88
SWIDTH 675 0
DWIDTH 15 0
BBX 14 16 0 0
BITMAP
703C
7838
3C78
1CF0
1EE0
0FE0
07C0
07C0
07C0
0FC0
0FE0
1EF0
3C70
3878
783C
F01C
ENDCHAR
STARTCHAR 0059
ENCODING 89
SWIDTH 675 0
DWIDTH 15 0
BBX 15 16 0 0
BITMAP
F01E
783C
7838
3C78
1C70
1EE0
0FE0
07C0
07C0
0380
0380
0380
0380
0380
0380
0380
ENDCHAR
STARTCHAR 005A
ENCODING 90
SWIDTH 630 0
DWIDTH 14 0
BBX 13 16 0 0
BITMAP
7FF8
7FF8
7FF8
00F0
01E0
03C0
03C0
0780
0F00
1E00
3C00
3C00
7800
FFF8
FFF8
FFF8
ENDCHAR
STARTCHAR 005B
ENCODING 91
SWIDTH 315 0
DWIDTH 7 0
BBX 5 20 2 -4
BITMAP
F8
F8
F8
C0
C0
C0
C0
C0
C0
C0
C0
C0
C0
C0
C0
C0
C0
C0
F8
F8
ENDCHAR
STARTCHAR 005C
ENCODING 92
SWIDTH 270 0
DWIDTH 6 0
BBX 6 16 0 0
BITMAP
C0
E0
60
60
60
70
30
30
30
38
18
18
18
1C
1C
0C
ENDCHAR
STARTCHAR 005D
ENCODING 93
SWIDTH 315 0
DWIDTH 7 0
BBX 6 20 0 -4
BITMAP
FC
FC
1C
1C
1C
1C
1C
1C
1C
1C
1C
1C
1C
1C
1C
1C
1C
1C
FC
FC
ENDCHAR
STARTCHAR 005E
ENCODING 94
SWIDTH 585 0
DWIDTH 13 0
BBX 9 8 2 8
BITMAP
1C00
1C00
3E00
3600
7700
7700
E380
E380
ENDCHAR
STARTCHAR 005F
ENCODING 95
SWIDTH 540 0
DWIDTH 12 0
BBX 12 2 0 -4
BITMAP
FFF0
FFF0
ENDCHAR
STARTCHAR 0060
ENCODING 96
SWIDTH 315 0
DWIDTH 7 0
BBX 4 3 1 13
BITMAP
E0
70
30
ENDCHAR
STARTCHAR 0061
ENCODING 97
SWIDTH 540 0
DWIDTH 12 0
BBX 10 12 1 0
BITMAP
1F00
7F80
FFC0
E1C0
01C0
1FC0
7FC0
E1C0
E1C0
E3C0
FFC0
7DC0
ENDCHAR
STARTCHAR 0062
ENCODING 98
SWIDTH 630 0
DWIDTH 14 0
BBX 12 16 1 0
BITMAP
F000
F000
F000
F000
F780
FFC0
FFE0
F0E0
F0F0
F070
E070
F0F0
F0E0
F9E0
FFC0
EF80
ENDCHAR
STARTCHAR 0063
ENCODING 99
SWIDTH 540 0
DWIDTH 12 0
BBX 11 12 1 0
BITMAP
0F00
3F80
7FC0
F1E0
E000
E000
E000
E000
E0E0
71C0
7FC0
3F80
ENDCHAR
STARTCHAR 0064
ENCODING 100
SWIDTH 630 0
DWIDTH 14 0
BBX 11 16 1 0
BITMAP
00E0
00E0
00E0
00E0
1CE0
3FE0
7FE0
F1E0
E0E0
E0E0
E0E0
E0E0
E0E0
71E0
7FE0
3EE0
ENDCHAR
STARTCHAR 0065
ENCODING 101
SWIDTH 540 0
DWIDTH 12 0
BBX 10 12 1 0
BITMAP
1E00
3F80
7F80
E1C0
E1C0
FFC0
FFC0
E000
E100
F1C0
7F80
3F00
ENDCHAR
STARTCHAR 0066
ENCODING 102
SWIDTH 315 0
DWIDTH 7 0
BBX 8 16 0 0
BITMAP
1F
3F
38
38
FE
FE
FE
38
38
38
38
38
38
38
38
38
ENDCHAR
STARTCHAR 0067
ENCODING 103
SWIDTH 630 0
DWIDTH 14 0
BBX 11 17 1 -5
BITMAP
1CE0
3FE0
7FE0
F1E0
E0E0
E0E0
E0E0
E0E0
F0E0
7BE0
7FE0
1EE0
00E0
F0E0
7FE0
7FC0
1F00
ENDCHAR
STARTCHAR 0068
ENCODING 104
SWIDTH 630 0
DWIDTH 14 0
BBX 10 16 2 0
BITMAP
E000
E000
E000
E000
E700
FF80
FFC0
E1C0
E1C0
E1C0
E1C0
E1C0
E1C0
E1C0
E1C0
E1C0
ENDCHAR
STARTCHAR 0069
ENCODING 105
SWIDTH 270 0
DWIDTH 6 0
BBX 3 16 2 0
BITMAP
E0
E0
E0
00
E0
E0
E0
E0
E0
E0
E0
E0
E0
E0
E0
E0
ENDCHAR
STARTCHAR 006A
ENCODING 106
SWIDTH 270 0
DWIDTH 6 0
BBX 6 21 -1 -5
BITMAP
1C
1C
1C
00
1C
1C
1C
1C
1C
1C
1C
1C
1C
1C
1C
1C
3C
3C
F8
F8
60
ENDCHAR
STARTCHAR 006B
ENCODING 107
SWIDTH 540 0
DWIDTH 12 0
BBX 11 16 1 0
BITMAP
F000
F000
F000
F000
F1E0
F3C0
F780
FF00
FE00
FE00
FF00
F780
F380
F3C0
F1C0
F0E0
ENDCHAR
STARTCHAR 006C
ENCODING 108
SWIDTH 270 0
DWIDTH 6 0
BBX 3 16 2 0
BITMAP
E0
E0
E0
E0
E0
E0
E0
E0
E0
E0
E0
E0
E0
E0
E0
E0
ENDCHAR
STARTCHAR 006D
ENCODING 109
SWIDTH 900 0
DWIDTH 20 0
BBX 17 12 1 0
BITMAP
E70E00
EFDF80
FFFF80
F1E380
F1E380
E1C380
E1C380
E1C380
E1C380
E1C380
E1C380
E1C380
ENDCHAR
STARTCHAR 006E
ENCODING 110
SWIDTH 630 0
DWIDTH 14 0
BBX 10 12 2 0
BITMAP
C700
DF80
FFC0
E1C0
E1C0
E1C0
E1C0
E1C0
E1C0
E1C0
E1C0
E1C0
ENDCHAR
STARTCHAR 006F
ENCODING 111
SWIDTH 630 0
DWIDTH 14 0
BBX 12 12 1 0
BITMAP
0F00
3FC0
7FE0
F0E0
E0F0
E070
E070
E070
F0E0
79E0
7FC0
1F80
ENDCHAR
STARTCHAR 0070
ENCODING 112
SWIDTH 630 0
DWIDTH 14 0
BBX 11 16 2 -4
BITMAP
CF00
DF80
FFC0
E1C0
E1E0
E0E0
E0E0
E0E0
E1C0
F3C0
FF80
EF00
E000
E000
E000
E000
ENDCHAR
STARTCHAR 0071
ENCODING 113
SWIDTH 630 0
DWIDTH 14 0
BBX 11 16 1 -4
BITMAP
1CE0
3FE0
7FE0
F0E0
E0E0
E0E0
E0E0
E0E0
E0E0
71E0
7FE0
3EE0
00E0
00E0
00E0
00E0
ENDCHAR
STARTCHAR 0072
ENCODING 114
SWIDTH 405 0
DWIDTH 9 0
BBX 8 12 1 0
BITMAP
E6
EF
FE
F0
F0
F0
F0
F0
F0
F0
F0
F0
ENDCHAR
STARTCHAR 0073
ENCODING 115
SWIDTH 540 0
DWIDTH 12 0
BBX 10 12 1 0
BITMAP
1E00
7F80
F3C0
E180
F800
FF00
3FC0
07C0
61C0
E1C0
FFC0
3F00
ENDCHAR
STARTCHAR 0074
ENCODING 116
SWIDTH 315 0
DWIDTH 7 0
BBX 7 15 0 1
BITMAP
18
38
38
FE
FE
FE
38
38
38
38
38
38
38
3E
3E
ENDCHAR
STARTCHAR 0075
ENCODING 117
SWIDTH 630 0
DWIDTH 14 0
BBX 10 12 2 0
BITMAP
E1C0
E1C0
E1C0
E1C0
E1C0
E1C0
E1C0
E1C0
E1C0
E3C0
FFC0
7DC0
ENDCHAR
STARTCHAR 0076
ENCODING 118
SWIDTH 540 0
DWIDTH 12 0
BBX 12 12 0 0
BITMAP
E070
7070
70E0
70E0
39C0
39C0
1DC0
1F80
1F80
0F00
0F00
0700
ENDCHAR
STARTCHAR 0077
ENCODING 119
SWIDTH 765 0
DWIDTH 17 0
BBX 17 12 0 0
BITMAP
E1C380
E1C380
71E380
73E700
73E700
336700
3B7600
3F7E00
1F3E00
1E3C00
1E3C00
0E1C00
ENDCHAR
STARTCHAR 0078
ENCODING 120
SWIDTH 540 0
DWIDTH 12 0
BBX 12 12 0 0
BITMAP
F0F0
78E0
39C0
3FC0
1F80
0F00
0F00
1F80
1FC0
39C0
79E0
F0F0
ENDCHAR
STARTCHAR 0079
ENCODING 121
SWIDTH 540 0
DWIDTH 12 0
BBX 12 17 0 -5
BITMAP
E070
70F0
70E0
70E0
38E0
39C0
39C0
1D80
1F80
0F80
0F00
0F00
0F00
0E00
7E00
7C00
7000
ENDCHAR
STARTCHAR 007A
ENCODING 122
SWIDTH 495 0
DWIDTH 11 0
BBX 11 12 0 0
BITMAP
7FC0
7FC0
7FC0
03C0
0780
0F00
1E00
3C00
7800
FFE0
FFE0
FFE0
ENDCHAR
STARTCHAR 007B
ENCODING 123
SWIDTH 405 0
DWIDTH 9 0
BBX 7 21 1 -5
BITMAP
1E
3E
3C
38
38
38
38
38
70
F0
E0
F0
38
38
38
38
38
38
3E
1E
0E
ENDCHAR
STARTCHAR 007C
ENCODING 124
SWIDTH 270 0
DWIDTH 6 0
BBX 2 21 2 -5
BITMAP
C0
C0
C0
C0
C0
C0
C0
C0
C0
C0
C0
C0
C0
C0
C0
C0
C0
C0
C0
C0
C0
ENDCHAR
STARTCHAR 007D
ENCODING 125
SWIDTH 405 0
DWIDTH 9 0
BBX 8 21 0 -5
BITMAP
F0
F8
38
1C
1C
1C
1C
1C
1C
0F
0F
1F
1C
1C
1C
1C
1C
18
F8
F8
E0
ENDCHAR
STARTCHAR 007E
ENCODING 126
SWIDTH 585 0
DWIDTH 13 0
BBX 11 4 1 6
BITMAP
7820
FF60
FFE0
87E0
ENDCHAR
STARTCHAR 00A0
ENCODING 160
SWIDTH 270 0
DWIDTH 6 0
BBX 0 0 0 0
BITMAP
ENDCHAR
STARTCHAR 00A1
ENCODING 161
SWIDTH 315 0
DWIDTH 7 0
BBX 3 16 2 -4
BITMAP
E0
E0
E0
E0
00
60
60
60
60
E0
E0
E0
E0
E0
E0
E0
ENDCHAR
STARTCHAR 00A2
ENCODING 162
SWIDTH 540 0
DWIDTH 12 0
BBX 11 20 1 -4
BITMAP
0080
0180
0100
0100
0F00
3F80
7FC0
F3C0
E600
E400
E400
EC00
E8E0
79C0
7FC0
3F80
1000
1000
3000
2000
ENDCHAR
STARTCHAR 00A3
ENCODING 163
SWIDTH 540 0
DWIDTH 12 0
BBX 12 16 0 0
BITMAP
0F80
3FC0
39E0
70E0
7000
7800
3800
FF00
FF00
3800
3800
3800
7000
FF60
7FF0
67F0
ENDCHAR
STARTCHAR 00A4
ENCODING 164
SWIDTH 540 0
DWIDTH 12 0
BBX 11 11 1 3
BITMAP
CEC0
FFE0
7FC0
71C0
E1C0
E1C0
61C0
7F80
FFC0
FEC0
4000
ENDCHAR
STARTCHAR 00A5
ENCODING 165
SWIDTH 540 0
DWIDTH 12 0
BBX 12 16 0 0
BITMAP
F070
70F0
70E0
39E0
39C0
1FC0
1F80
7FF0
7FF0
0700
0700
7FF0
7FF0
0700
0700
0700
ENDCHAR
STARTCHAR 00A6
ENCODING 166
SWIDTH 270 0
DWIDTH 6 0
BBX 2 21 2 -5
BITMAP
C0
C0
C0
C0
C0
C0
C0
C0
00
00
00
00
C0
C0
C0
C0
C0
C0
C0
C0
C0
ENDCHAR
STARTCHAR 00A7
ENCODING 167
SWIDTH 540 0
DWIDTH 12 0
BBX 11 21 1 -5
BITMAP
3F00
7F80
7380
71C0
7800
7C00
7F00
EF80
C7C0
E1C0
F0E0
F8E0
7DC0
1F80
0F80
03C0
21C0
F1C0
7FC0
3F80
0E00
ENDCHAR
STARTCHAR 00A8
ENCODING 168
SWIDTH 315 0
DWIDTH 7 0
BBX 7 2 0 14
BITMAP
E6
E6
ENDCHAR
STARTCHAR 00A9
ENCODING 169
SWIDTH 720 0
DWIDTH 16 0
BBX 17 16 0 0
BITMAP
07F000
1E7800
380C00
608600
67E300
C63300
CC0100
CC0100
CC0180
CC2100
C63300
47E300
61C600
300E00
1C3C00
0FF000
ENDCHAR
STARTCHAR 00AA
ENCODING 170
SWIDTH 360 0
DWIDTH 8 0
BBX 8 8 0 8
BITMAP
3E
7E
06
3E
76
E6
7E
7B
ENDCHAR
STARTCHAR 00AB
ENCODING 171
SWIDTH 540 0
DWIDTH 12 0
BBX 10 10 1 1
BITMAP
1CC0
1980
3B80
7300
6700
EE00
7700
3380
3980
19C0
ENDCHAR
STARTCHAR 00AC
ENCODING 172
SWIDTH 585 0
DWIDTH 13 0
BBX 11 8 1 4
BITMAP
FFE0
FFE0
FFE0
00E0
00E0
00E0
00E0
00E0
ENDCHAR
STARTCHAR 00AD
ENCODING 173
SWIDTH 315 0
DWIDTH 7 0
BBX 6 3 1 4
BITMAP
FC
FC
FC
ENDCHAR
STARTCHAR 00AE
ENCODING 174
SWIDTH 720 0
DWIDTH 16 0
BBX 17 16 0 0
BITMAP
07F000
1E7800
380C00
600600
6FE300
CC7300
CC3100
CCE100
CFC180
CCC100
CC6300
4C7300
6C3600
300E00
1C3C00
0FF000
ENDCHAR
STARTCHAR 00AF
ENCODING 175
SWIDTH 540 0
DWIDTH 12 0
BBX 12 2 0 17
BITMAP
FFF0
FFF0
ENDCHAR
STARTCHAR 00B0
ENCODING 176
SWIDTH 405 0
DWIDTH 9 0
BBX 7 7 1 9
BITMAP
78
FC
C6
C6
C6
7C
38
ENDCHAR
STARTCHAR 00B1
ENCODING 177
SWIDTH 540 0
DWIDTH 12 0
BBX 11 15 1 0
BITMAP
0C00
0C00
0C00
0C00
FFE0
FFE0
FFE0
0C00
0C00
0C00
0C00
0000
FFE0
FFE0
FFE0
ENDCHAR
STARTCHAR 00B2
ENCODING 178
SWIDTH 315 0
DWIDTH 7 0
BBX 7 8 0 8
BITMAP
3C
6E
E6
0E
1C
38
7E
FE
ENDCHAR
STARTCHAR 00B3
ENCODING 179
SWIDTH 315 0
DWIDTH 7 0
BBX 6 8 1 8
BITMAP
78
D8
18
38
1C
0C
DC
F8
ENDCHAR
STARTCHAR 00B4
ENCODING 180
SWIDTH 315 0
DWIDTH 7 0
BBX 4 3 2 13
BITMAP
70
60
C0
ENDCHAR
STARTCHAR 00B5
ENCODING 181
SWIDTH 585 0
DWIDTH 13 0
BBX 11 16 1 -4
BITMAP
E0E0
E0E0
E0E0
E0E0
E0E0
E0E0
E0E0
E0E0
F1E0
F3E0
FFE0
EEE0
E000
E000
E000
E000
ENDCHAR
STARTCHAR 00B6
ENCODING 182
SWIDTH 540 0
DWIDTH 12 0
BBX 12 20 0 -4
BITMAP
1FF0
7FF0
FFF0
FEE0
FEE0
FEE0
FEE0
7EE0
3EE0
0EE0
0EE0
0EE0
0EE0
0EE0
0EE0
0EE0
0EE0
0EE0
0EE0
0EE0
ENDCHAR
STARTCHAR 00B7
ENCODING 183
SWIDTH 270 0
DWIDTH 6 0
BBX 3 3 2 6
BITMAP
E0
E0
E0
ENDCHAR
STARTCHAR 00B8
ENCODING 184
SWIDTH 315 0
DWIDTH 7 0
BBX 6 5 0 -5
BITMAP
38
0C
0C
FC
60
ENDCHAR
STARTCHAR 00B9
ENCODING 185
SWIDTH 315 0
DWIDTH 7 0
BBX 4 8 1 8
BITMAP
30
70
F0
30
30
30
30
30
ENDCHAR
STARTCHAR 00BA
ENCODING 186
SWIDTH 360 0
DWIDTH 8 0
BBX 8 8 0 8
BITMAP
3C
7E
E7
E7
E7
E7
7E
3C
ENDCHAR
STARTCHAR 00BB
ENCODING 187
SWIDTH 540 0
DWIDTH 12 0
BBX 10 10 1 1
BITMAP
EE00
6700
7300
3B80
39C0
1DC0
3980
3380
7700
6600
ENDCHAR
STARTCHAR 00BC
ENCODING 188
SWIDTH 855 0
DWIDTH 19 0
BBX 17 17 1 -1
BITMAP
300800
701800
F01000
303000
302000
306000
30C000
30C000
018300
010700
030700
020F00
061B00
0C3F80
0C3F80
180300
100000
ENDCHAR
STARTCHAR 00BD
ENCODING 189
SWIDTH 855 0
DWIDTH 19 0
BBX 17 17 1 -1
BITMAP
300800
701800
F01000
303000
302000
306000
30C000
30C000
018E00
011F80
031980
020180
060700
0C0E00
0C1C00
181F80
100000
ENDCHAR
STARTCHAR 00BE
ENCODING 190
SWIDTH 855 0
DWIDTH 19 0
BBX 17 17 1 -1
BITMAP
780C00
D81800
181800
383000
1C2000
0C6000
DC4000
F8C000
008300
018700
030700
030F00
061B00
043F80
0C3F80
080300
180000
ENDCHAR
STARTCHAR 00BF
ENCODING 191
SWIDTH 630 0
DWIDTH 14 0
BBX 11 17 1 -5
BITMAP
0E00
0E00
0E00
0E00
0000
0E00
0E00
1E00
3C00
7800
F000
E000
E0E0
F0E0
7FE0
3F80
0600
ENDCHAR
STARTCHAR 00C0
ENCODING 192
SWIDTH 720 0
DWIDTH 16 0
BBX 16 20 0 0
BITMAP
0700
0380
0180
0000
03C0
03C0
07E0
07E0
0FE0
0EF0
0E70
1E78
1C38
1C38
3FFC
3FFC
781E
701E
700E
F00F
ENDCHAR
STARTCHAR 00C1
ENCODING 193
SWIDTH 720 0
DWIDTH 16 0
BBX 16 20 0 0
BITMAP
01C0
0180
0380
0000
03C0
03C0
07E0
07E0
0FE0
0EF0
0E70
1E78
1C38
1C38
3FFC
3FFC
781E
701E
700E
F00F
ENDCHAR
STARTCHAR 00C2
ENCODING 194
SWIDTH 720 0
DWIDTH 16 0
BBX 16 20 0 0
BITMAP
03C0
07C0
0660
0000
03C0
03C0
07E0
07E0
0FE0
0EF0
0E70
1E78
1C38
1C38
3FFC
3FFC
781E
701E
700E
F00F
ENDCHAR
STARTCHAR 00C3
ENCODING 195
SWIDTH 720 0
DWIDTH 16 0
BBX 16 20 0 0
BITMAP
0020
0FE0
0DE0
0000
03C0
03C0
07E0
07E0
0FE0
0EF0
0E70
1E78
1C38
1C38
3FFC
3FFC
781E
701E
700E
F00F
ENDCHAR
STARTCHAR 00C4
ENCODING 196
SWIDTH 720 0
DWIDTH 16 0
BBX 16 19 0 0
BITMAP
0E60
0E60
0000
03C0
03C0
07E0
07E0
0FE0
0EF0
0E70
1E78
1C38
1C38
3FFC
3FFC
781E
701E
700E
F00F
ENDCHAR
STARTCHAR 00C5
ENCODING 197
SWIDTH 720 0
DWIDTH 16 0
BBX 16 19 0 0
BITMAP
0380
0240
0240
03C0
03C0
07E0
07E0
0FE0
0EF0
0E70
1E78
1C38
1C38
3FFC
3FFC
781E
701E
700E
F00F
ENDCHAR
STARTCHAR 00C6
ENCODING 198
SWIDTH 990 0
DWIDTH 22 0
BBX 22 16 -1 0
BITMAP
01FFFC
01FFFC
03FFFC
039C00
079C00
071C00
0F1FF8
0E1FF8
0E1FF8
1FFC00
1FFC00
3FFC00
381C00
781FFC
701FFC
F01FFC
ENDCHAR
STARTCHAR 00C7
ENCODING 199
SWIDTH 720 0
DWIDTH 16 0
BBX 14 21 1 -5
BITMAP
0FE0
1FF0
3FF8
783C
703C
F000
E000
E000
E000
E000
F010
703C
7838
3EF8
3FF0
0FE0
0780
01C0
00C0
0F80
0600
ENDCHAR
STARTCHAR 00C8
ENCODING 200
SWIDTH 675 0
DWIDTH 15 0
BBX 12 20 2 0
BITMAP
1C00
0E00
0600
0000
FFE0
FFE0
FFE0
E000
E000
E000
FFE0
FFE0
FFE0
E000
E000
E000
E000
FFF0
FFF0
FFF0
ENDCHAR
STARTCHAR 00C9
ENCODING 201
SWIDTH 675 0
DWIDTH 15 0
BBX 12 20 2 0
BITMAP
0700
0E00
0C00
0000
FFE0
FFE0
FFE0
E000
E000
E000
FFE0
FFE0
FFE0
E000
E000
E000
E000
FFF0
FFF0
FFF0
ENDCHAR
STARTCHAR 00CA
ENCODING 202
SWIDTH 675 0
DWIDTH 15 0
BBX 12 20 2 0
BITMAP
0E00
1F00
3B80
0000
FFE0
FFE0
FFE0
E000
E000
E000
FFE0
FFE0
FFE0
E000
E000
E000
E000
FFF0
FFF0
FFF0
ENDCHAR
STARTCHAR 00CB
ENCODING 203
SWIDTH 675 0
DWIDTH 15 0
BBX 12 19 2 0
BITMAP
3380
3380
0000
FFE0
FFE0
FFE0
E000
E000
E000
FFE0
FFE0
FFE0
E000
E000
E000
E000
FFF0
FFF0
FFF0
ENDCHAR
STARTCHAR 00CC
ENCODING 204
SWIDTH 270 0
DWIDTH 6 0
BBX 5 20 0 0
BITMAP
F0
70
30
00
38
38
38
38
38
38
38
38
38
38
38
38
38
38
38
38
ENDCHAR
STARTCHAR 00CD
ENCODING 205
SWIDTH 270 0
DWIDTH 6 0
BBX 5 20 1 0
BITMAP
78
70
E0
00
70
70
70
70
70
70
70
70
70
70
70
70
70
70
70
70
ENDCHAR
STARTCHAR 00CE
ENCODING 206
SWIDTH 270 0
DWIDTH 6 0
BBX 6 20 0 0
BITMAP
78
7C
EC
00
38
38
38
38
38
38
38
38
38
38
38
38
38
38
38
38
ENDCHAR
STARTCHAR 00CF
ENCODING 207
SWIDTH 270 0
DWIDTH 6 0
BBX 7 19 0 0
BITMAP
CE
CE
00
38
38
38
38
38
38
38
38
38
38
38
38
38
38
38
38
ENDCHAR
STARTCHAR 00D0
ENCODING 208
SWIDTH 720 0
DWIDTH 16 0
BBX 15 16 0 0
BITMAP
3FE0
3FF8
3FF8
383C
381C
381E
380E
FF0E
FF0E
380E
381E
381C
383C
3FFC
3FF8
3FE0
ENDCHAR
STARTCHAR 00D1
ENCODING 209
SWIDTH 720 0
DWIDTH 16 0
BBX 12 20 2 0
BITMAP
08C0
1FC0
3780
0000
E070
F070
F070
F870
F870
FC70
FE70
EE70
EF70
E7F0
E3F0
E3F0
E1F0
E1F0
E0F0
E070
ENDCHAR
STARTCHAR 00D2
ENCODING 210
SWIDTH 765 0
DWIDTH 17 0
BBX 15 20 1 0
BITMAP
0700
0380
0180
0000
0FE0
1FF8
3FFC
783C
701E
F00E
E00E
E00E
E00E
E00E
F00E
F01E
783C
3EFC
3FF8
0FE0
ENDCHAR
STARTCHAR 00D3
ENCODING 211
SWIDTH 765 0
DWIDTH 17 0
BBX 15 20 1 0
BITMAP
01C0
0380
0300
0000
0FE0
1FF8
3FFC
783C
701E
F00E
E00E
E00E
E00E
E00E
F00E
F01E
783C
3EFC
3FF8
0FE0
ENDCHAR
STARTCHAR 00D4
ENCODING 212
SWIDTH 765 0
DWIDTH 17 0
BBX 15 20 1 0
BITMAP
0380
07C0
0EE0
0000
0FE0
1FF8
3FFC
783C
701E
F00E
E00E
E00E
E00E
E00E
F00E
F01E
783C
3EFC
3FF8
0FE0
ENDCHAR
STARTCHAR 00D5
ENCODING 213
SWIDTH 765 0
DWIDTH 17 0
BBX 15 20 1 0
BITMAP
0420
0FE0
09E0
0000
0FE0
1FF8
3FFC
783C
701E
F00E
E00E
E00E
E00E
E00E
F00E
F01E
783C
3EFC
3FF8
0FE0
ENDCHAR
STARTCHAR 00D6
ENCODING 214
SWIDTH 765 0
DWIDTH 17 0
BBX 15 19 1 0
BITMAP
0CE0
0CE0
0000
0FE0
1FF8
3FFC
783C
701E
F00E
E00E
E00E
E00E
E00E
F00E
F01E
783C
3EFC
3FF8
0FE0
ENDCHAR
STARTCHAR 00D7
ENCODING 215
SWIDTH 585 0
DWIDTH 13 0
BBX 11 10 1 3
BITMAP
2080
71C0
7BC0
3F80
1F00
1F00
3F80
7BC0
F1E0
60C0
ENDCHAR
STARTCHAR 00D8
ENCODING 216
SWIDTH 765 0
DWIDTH 17 0
BBX 15 17 1 0
BITMAP
0FE6
1FFE
3FFC
783C
703E
F06E
E0CE
E1CE
E38E
E70E
FE0E
FC1E
781C
3C7C
7FF8
CFE0
4000
ENDCHAR
STARTCHAR 00D9
ENCODING 217
SWIDTH 720 0
DWIDTH 16 0
BBX 12 20 2 0
BITMAP
1C00
0E00
0600
0000
E070
E070
E070
E070
E070
E070
E070
E070
E070
E070
E070
E070
E070
F9F0
7FE0
3FC0
ENDCHAR
STARTCHAR 00DA
ENCODING 218
SWIDTH 720 0
DWIDTH 16 0
BBX 12 20 2 0
BITMAP
0700
0600
0E00
0000
E070
E070
E070
E070
E070
E070
E070
E070
E070
E070
E070
E070
E070
F9F0
7FE0
3FC0
ENDCHAR
STARTCHAR 00DB
ENCODING 219
SWIDTH 720 0
DWIDTH 16 0
BBX 12 20 2 0
BITMAP
0F00
0F80
1980
0000
E070
E070
E070
E070
E070
E070
E070
E070
E070
E070
E070
E070
E070
F9F0
7FE0
3FC0
ENDCHAR
STARTCHAR 00DC
ENCODING 220
SWIDTH 720 0
DWIDTH 16 0
BBX 12 19 2 0
BITMAP
39C0
39C0
0000
E070
E070
E070
E070
E070
E070
E070
E070
E070
E070
E070
E070
E070
F9F0
7FE0
3FC0
ENDCHAR
STARTCHAR 00DD
ENCODING 221
SWIDTH 675 0
DWIDTH 15 0
BBX 15 20 0 0
BITMAP
01C0
0380
0300
0000
F01E
783C
7838
3C78
1C70
1EE0
0FE0
07C0
07C0
0380
0380
0380
0380
0380
0380
0380
ENDCHAR
STARTCHAR 00DE
ENCODING 222
SWIDTH 675 0
DWIDTH 15 0
BBX 12 16 2 0
BITMAP
E000
E000
E000
FF80
FFE0
FFE0
E0F0
E0F0
E0F0
E0F0
FFE0
FFE0
FF80
E000
E000
E000
ENDCHAR
STARTCHAR 00DF
ENCODING 223
SWIDTH 630 0
DWIDTH 14 0
BBX 11 16 2 0
BITMAP
7E00
FF00
E780
E380
E700
E700
EE00
EE00
EF00
E780
E3C0
E1E0
E0E0
E5E0
EFC0
E780
ENDCHAR
STARTCHAR 00E0
ENCODING 224
SWIDTH 540 0
DWIDTH 12 0
BBX 10 16 1 0
BITMAP
3C00
1C00
0C00
0000
1F00
7F80
FFC0
E1C0
01C0
1FC0
7FC0
E1C0
E1C0
E3C0
FFC0
7DC0
ENDCHAR
STARTCHAR 00E1
ENCODING 225
SWIDTH 540 0
DWIDTH 12 0
BBX 10 16 1 0
BITMAP
0700
0E00
0C00
0000
1F00
7F80
FFC0
E1C0
01C0
1FC0
7FC0
E1C0
E1C0
E3C0
FFC0
7DC0
ENDCHAR
STARTCHAR 00E2
ENCODING 226
SWIDTH 540 0
DWIDTH 12 0
BBX 10 16 1 0
BITMAP
1E00
1F00
3300
0000
1F00
7F80
FFC0
E1C0
01C0
1FC0
7FC0
E1C0
E1C0
E3C0
FFC0
7DC0
ENDCHAR
STARTCHAR 00E3
ENCODING 227
SWIDTH 540 0
DWIDTH 12 0
BBX 10 16 1 0
BITMAP
3980
3F80
6700
0000
1F00
7F80
FFC0
E1C0
01C0
1FC0
7FC0
E1C0
E1C0
E3C0
FFC0
7DC0
ENDCHAR
STARTCHAR 00E4
ENCODING 228
SWIDTH 540 0
DWIDTH 12 0
BBX 10 16 1 0
BITMAP
3380
3380
0000
0000
1F00
7F80
FFC0
E1C0
01C0
1FC0
7FC0
E1C0
E1C0
E3C0
FFC0
7DC0
ENDCHAR
STARTCHAR 00E5
ENCODING 229
SWIDTH 540 0
DWIDTH 12 0
BBX 10 17 1 0
BITMAP
0C00
1E00
1200
1E00
0400
1F00
7F80
FFC0
E1C0
01C0
1FC0
7FC0
E1C0
E1C0
E3C0
FFC0
7DC0
ENDCHAR
STARTCHAR 00E6
ENCODING 230
SWIDTH 900 0
DWIDTH 20 0
BBX 18 12 1 0
BITMAP
1F3C00
7FFF00
7FFF80
E1E380
01C180
1FFFC0
7FFFC0
F1C000
E1C100
E3E380
FFFF80
7E7F00
ENDCHAR
STARTCHAR 00E7
ENCODING 231
SWIDTH 540 0
DWIDTH 12 0
BBX 11 17 1 -5
BITMAP
0F00
3F80
7FC0
F1E0
E000
E000
E000
E000
E0E0
71C0
7FC0
3F80
0E00
0300
0300
3F00
1800
ENDCHAR
STARTCHAR 00E8
ENCODING 232
SWIDTH 540 0
DWIDTH 12 0
BBX 10 16 1 0
BITMAP
3800
1C00
0C00
0000
1E00
3F80
7F80
E1C0
E1C0
FFC0
FFC0
E000
E100
F1C0
7F80
3F00
ENDCHAR
STARTCHAR 00E9
ENCODING 233
SWIDTH 540 0
DWIDTH 12 0
BBX 10 16 1 0
BITMAP
0700
0E00
0C00
0000
1E00
3F80
7F80
E1C0
E1C0
FFC0
FFC0
E000
E100
F1C0
7F80
3F00
ENDCHAR
STARTCHAR 00EA
ENCODING 234
SWIDTH 540 0
DWIDTH 12 0
BBX 10 16 1 0
BITMAP
1E00
3F00
3300
0000
1E00
3F80
7F80
E1C0
E1C0
FFC0
FFC0
E000
E100
F1C0
7F80
3F00
ENDCHAR
STARTCHAR 00EB
ENCODING 235
SWIDTH 540 0
DWIDTH 12 0
BBX 10 16 1 0
BITMAP
7380
7380
0000
0000
1E00
3F80
7F80
E1C0
E1C0
FFC0
FFC0
E000
E100
F1C0
7F80
3F00
ENDCHAR
STARTCHAR 00EC
ENCODING 236
SWIDTH 270 0
DWIDTH 6 0
BBX 5 16 0 0
BITMAP
E0
70
30
00
38
38
38
38
38
38
38
38
38
38
38
38
ENDCHAR
STARTCHAR 00ED
ENCODING 237
SWIDTH 270 0
DWIDTH 6 0
BBX 4 16 2 0
BITMAP
70
E0
C0
00
E0
E0
E0
E0
E0
E0
E0
E0
E0
E0
E0
E0
ENDCHAR
STARTCHAR 00EE
ENCODING 238
SWIDTH 270 0
DWIDTH 6 0
BBX 6 16 0 0
BITMAP
78
7C
CC
00
38
38
38
38
38
38
38
38
38
38
38
38
ENDCHAR
STARTCHAR 00EF
ENCODING 239
SWIDTH 270 0
DWIDTH 6 0
BBX 8 16 -1 0
BITMAP
E7
E7
00
00
1C
1C
1C
1C
1C
1C
1C
1C
1C
1C
1C
1C
ENDCHAR
STARTCHAR 00F0
ENCODING 240
SWIDTH 630 0
DWIDTH 14 0
BBX 12 16 1 0
BITMAP
1C80
0F80
0F00
1380
01C0
3FE0
7FE0
F1E0
E0F0
E070
E070
E0F0
F0E0
79E0
7FC0
1F80
ENDCHAR
STARTCHAR 00F1
ENCODING 241
SWIDTH 630 0
DWIDTH 14 0
BBX 10 16 2 0
BITMAP
3180
7F00
6700
0000
C700
DF80
FFC0
E1C0
E1C0
E1C0
E1C0
E1C0
E1C0
E1C0
E1C0
E1C0
ENDCHAR
STARTCHAR 00F2
ENCODING 242
SWIDTH 630 0
DWIDTH 14 0
BBX 12 16 1 0
BITMAP
1C00
0E00
0600
0000
0F00
3FC0
7FE0
F0E0
E0F0
E070
E070
E070
F0E0
79E0
7FC0
1F80
ENDCHAR
STARTCHAR 00F3
ENCODING 243
SWIDTH 630 0
DWIDTH 14 0
BBX 12 16 1 0
BITMAP
0780
0700
0600
0000
0F00
3FC0
7FE0
F0E0
E0F0
E070
E070
E070
F0E0
79E0
7FC0
1F80
ENDCHAR
STARTCHAR 00F4
ENCODING 244
SWIDTH 630 0
DWIDTH 14 0
BBX 12 16 1 0
BITMAP
0F00
1F00
1980
0000
0F00
3FC0
7FE0
F0E0
E0F0
E070
E070
E070
F0E0
79E0
7FC0
1F80
ENDCHAR
STARTCHAR 00F5
ENCODING 245
SWIDTH 630 0
DWIDTH 14 0
BBX 12 16 1 0
BITMAP
18C0
3F80
3380
0000
0F00
3FC0
7FE0
F0E0
E0F0
E070
E070
E070
F0E0
79E0
7FC0
1F80
ENDCHAR
STARTCHAR 00F6
ENCODING 246
SWIDTH 630 0
DWIDTH 14 0
BBX 12 16 1 0
BITMAP
3980
3980
0000
0000
0F00
3FC0
7FE0
F0E0
E0F0
E070
E070
E070
F0E0
79E0
7FC0
1F80
ENDCHAR
STARTCHAR 00F7
ENCODING 247
SWIDTH 540 0
DWIDTH 12 0
BBX 11 12 1 2
BITMAP
0E00
0E00
0E00
0000
0000
FFE0
FFE0
FFE0
0000
0E00
0E00
0E00
ENDCHAR
STARTCHAR 00F8
ENCODING 248
SWIDTH 630 0
DWIDTH 14 0
BBX 12 13 1 -1
BITMAP
0F20
3FE0
7FE0
F1E0
E3F0
E370
E670
EC70
F8E0
71E0
7FC0
DF80
4000
ENDCHAR
STARTCHAR 00F9
ENCODING 249
SWIDTH 630 0
DWIDTH 14 0
BBX 10 16 2 0
BITMAP
3800
1C00
0C00
0000
E1C0
E1C0
E1C0
E1C0
E1C0
E1C0
E1C0
E1C0
E1C0
E3C0
FFC0
7DC0
ENDCHAR
STARTCHAR 00FA
ENCODING 250
SWIDTH 630 0
DWIDTH 14 0
BBX 10 16 2 0
BITMAP
0F00
0E00
1C00
0000
E1C0
E1C0
E1C0
E1C0
E1C0
E1C0
E1C0
E1C0
E1C0
E3C0
FFC0
7DC0
ENDCHAR
STARTCHAR 00FB
ENCODING 251
SWIDTH 630 0
DWIDTH 14 0
BBX 10 16 2 0
BITMAP
1E00
3E00
7300
0000
E1C0
E1C0
E1C0
E1C0
E1C0
E1C0
E1C0
E1C0
E1C0
E3C0
FFC0
7DC0
ENDCHAR
STARTCHAR 00FC
ENCODING 252
SWIDTH 630 0
DWIDTH 14 0
BBX 10 16 2 0
BITMAP
7300
7300
0000
0000
E1C0
E1C0
E1C0
E1C0
E1C0
E1C0
E1C0
E1C0
E1C0
E3C0
FFC0
7DC0
ENDCHAR
STARTCHAR 00FD
ENCODING 253
SWIDTH 540 0
DWIDTH 12 0
BBX 12 21 0 -5
BITMAP
0380
0700
0600
0000
E070
70F0
70E0
70E0
38E0
39C0
39C0
1D80
1F80
0F80
0F00
0F00
0F00
0E00
7E00
7C00
7000
ENDCHAR
STARTCHAR 00FE
ENCODING 254
SWIDTH 630 0
DWIDTH 14 0
BBX 11 20 2 -4
BITMAP
E000
E000
E000
E000
EF00
FF80
FFC0
E1C0
E1E0
E0E0
E0E0
E0E0
E1C0
F3C0
FF80
EF00
E000
E000
E000
E000
ENDCHAR
STARTCHAR 00FF
ENCODING 255
SWIDTH 540 0
DWIDTH 12 0
BBX 12 21 0 -5
BITMAP
39C0
39C0
0000
0000
E070
70F0
70E0
70E0
38E0
39C0
39C0
1D80
1F80
0F80
0F00
0F00
0F00
0E00
7E00
7C00
7000
ENDCHAR
STARTCHAR 0100
ENCODING 256
SWIDTH 720 0
DWIDTH 16 0
BBX 16 19 0 0
BITMAP
0FE0
0FE0
0000
03C0
03C0
07E0
07E0
0FE0
0EF0
0E70
1E78
1C38
1C38
3FFC
3FFC
781E
701E
700E
F00F
ENDCHAR
STARTCHAR 0101
ENCODING 257
SWIDTH 540 0
DWIDTH 12 0
BBX 10 15 1 0
BITMAP
3F80
3F80
0000
1F00
7F80
FFC0
E1C0
01C0
1FC0
7FC0
E1C0
E1C0
E3C0
FFC0
7DC0
ENDCHAR
STARTCHAR 0102
ENCODING 258
SWIDTH 720 0
DWIDTH 16 0
BBX 16 20 0 0
BITMAP
0420
0660
03C0
0000
03C0
03C0
07E0
07E0
0FE0
0EF0
0E70
1E78
1C38
1C38
3FFC
3FFC
781E
701E
700E
F00F
ENDCHAR
STARTCHAR 0103
ENCODING 259
SWIDTH 540 0
DWIDTH 12 0
BBX 10 16 1 0
BITMAP
2100
3F00
1E00
0000
1F00
7F80
FFC0
E1C0
01C0
1FC0
7FC0
E1C0
E1C0
E3C0
FFC0
7DC0
ENDCHAR
STARTCHAR 0104
ENCODING 260
SWIDTH 720 0
DWIDTH 16 0
BBX 17 21 0 -5
BITMAP
03C000
03C000
07E000
07E000
0FE000
0EF000
0E7000
1E7800
1C3800
1C3800
3FFC00
3FFC00
781E00
701E00
700E00
F00F00
000C00
000C00
000C00
000F80
000300
ENDCHAR
STARTCHAR 0105
ENCODING 261
SWIDTH 540 0
DWIDTH 12 0
BBX 12 17 1 -5
BITMAP
1F00
7F80
FFC0
E1C0
01C0
1FC0
7FC0
E1C0
E1C0
E3C0
FFC0
7DC0
0080
0180
0180
00F0
0060
ENDCHAR
STARTCHAR 0106
ENCODING 262
SWIDTH 720 0
DWIDTH 16 0
BBX 14 20 1 0
BITMAP
03C0
0380
0300
0000
0FE0
1FF0
3FF8
783C
703C
F000
E000
E000
E000
E000
F010
703C
7838
3EF8
3FF0
0FE0
ENDCHAR
STARTCHAR 0107
ENCODING 263
SWIDTH 540 0
DWIDTH 12 0
BBX 11 16 1 0
BITMAP
0700
0E00
0C00
0000
0F00
3F80
7FC0
F1E0
E000
E000
E000
E000
E0E0
71C0
7FC0
3F80
ENDCHAR
STARTCHAR 0108
ENCODING 264
SWIDTH 720 0
DWIDTH 16 0
BBX 14 21 1 0
BITMAP
0380
0780
0EC0
0CE0
0000
0FE0
1FF0
3FF8
783C
703C
F000
E000
E000
E000
E000
F010
703C
7838
3EF8
3FF0
0FE0
ENDCHAR
STARTCHAR 0109
ENCODING 265
SWIDTH 540 0
DWIDTH 12 0
BBX 11 16 1 0
BITMAP
1E00
1F00
3300
0000
0F00
3F80
7FC0
F1E0
E000
E000
E000
E000
E0E0
71C0
7FC0
3F80
ENDCHAR
STARTCHAR 010A
ENCODING 266
SWIDTH 720 0
DWIDTH 16 0
BBX 14 20 1 0
BITMAP
0380
0380
0380
0000
0FE0
1FF0
3FF8
783C
703C
F000
E000
E000
E000
E000
F010
703C
7838
3EF8
3FF0
0FE0
ENDCHAR
STARTCHAR 010B
ENCODING 267
SWIDTH 540 0
DWIDTH 12 0
BBX 11 16 1 0
BITMAP
0E00
0E00
0E00
0000
0F00
3F80
7FC0
F1E0
E000
E000
E000
E000
E0E0
71C0
7FC0
3F80
ENDCHAR
STARTCHAR 010C
ENCODING 268
SWIDTH 720 0
DWIDTH 16 0
BBX 14 20 1 0
BITMAP
0CC0
07C0
0780
0000
0FE0
1FF0
3FF8
783C
703C
F000
E000
E000
E000
E000
F010
703C
7838
3EF8
3FF0
0FE0
ENDCHAR
STARTCHAR 010D
ENCODING 269
SWIDTH 540 0
DWIDTH 12 0
BBX 11 16 1 0
BITMAP
3B80
1F00
0E00
0000
0F00
3F80
7FC0
F1E0
E000
E000
E000
E000
E0E0
71C0
7FC0
3F80
ENDCHAR
STARTCHAR 010E
ENCODING 270
SWIDTH 720 0
DWIDTH 16 0
BBX 13 20 2 0
BITMAP
7700
3E00
1E00
0000
FF80
FFC0
FFE0
E0F0
E070
E078
E038
E038
E038
E038
E078
E070
E0F0
FFF0
FFE0
FF80
ENDCHAR
STARTCHAR 010F
ENCODING 271
SWIDTH 720 0
DWIDTH 16 0
BBX 15 16 1 0
BITMAP
00EE
00EE
00EE
00E6
1CE6
7FEC
7FE0
F1E0
E0E0
E0E0
E0E0
E0E0
E0E0
71E0
7FE0
3EE0
ENDCHAR
STARTCHAR 0110
ENCODING 272
SWIDTH 720 0
DWIDTH 16 0
BBX 15 16 0 0
BITMAP
3FE0
3FF8
3FF8
383C
381C
381E
380E
FF0E
FF0E
380E
381E
381C
383C
3FFC
3FF8
3FE0
ENDCHAR
STARTCHAR 0111
ENCODING 273
SWIDTH 630 0
DWIDTH 14 0
BBX 12 16 1 0
BITMAP
00E0
07F0
07F0
00E0
1CE0
3FE0
7FE0
F1E0
E0E0
E0E0
E0E0
E0E0
E0E0
71E0
7FE0
3EE0
ENDCHAR
STARTCHAR 0112
ENCODING 274
SWIDTH 675 0
DWIDTH 15 0
BBX 12 19 2 0
BITMAP
3F80
3F80
0000
FFE0
FFE0
FFE0
E000
E000
E000
FFE0
FFE0
FFE0
E000
E000
E000
E000
FFF0
FFF0
FFF0
ENDCHAR
STARTCHAR 0113
ENCODING 275
SWIDTH 540 0
DWIDTH 12 0
BBX 10 15 1 0
BITMAP
3F80
3F80
0000
1E00
3F80
7F80
E1C0
E1C0
FFC0
FFC0
E000
E100
F1C0
7F80
3F00
ENDCHAR
STARTCHAR 0114
ENCODING 276
SWIDTH 675 0
DWIDTH 15 0
BBX 12 20 2 0
BITMAP
3180
1F00
0E00
0000
FFE0
FFE0
FFE0
E000
E000
E000
FFE0
FFE0
FFE0
E000
E000
E000
E000
FFF0
FFF0
FFF0
ENDCHAR
STARTCHAR 0115
ENCODING 277
SWIDTH 540 0
DWIDTH 12 0
BBX 10 16 1 0
BITMAP
2100
3F00
1E00
0000
1E00
3F80
7F80
E1C0
E1C0
FFC0
FFC0
E000
E100
F1C0
7F80
3F00
ENDCHAR
STARTCHAR 0116
ENCODING 278
SWIDTH 675 0
DWIDTH 15 0
BBX 12 20 2 0
BITMAP
0E00
0E00
0E00
0000
FFE0
FFE0
FFE0
E000
E000
E000
FFE0
FFE0
FFE0
E000
E000
E000
E000
FFF0
FFF0
FFF0
ENDCHAR
STARTCHAR 0117
ENCODING 279
SWIDTH 540 0
DWIDTH 12 0
BBX 10 16 1 0
BITMAP
0E00
0E00
0E00
0000
1E00
3F80
7F80
E1C0
E1C0
FFC0
FFC0
E000
E100
F1C0
7F80
3F00
ENDCHAR
STARTCHAR 0118
ENCODING 280
SWIDTH 675 0
DWIDTH 15 0
BBX 12 21 2 -5
BITMAP
FFE0
FFE0
FFE0
E000
E000
E000
FFE0
FFE0
FFE0
E000
E000
E000
E000
FFF0
FFF0
FFF0
0180
0180
0180
01F0
00E0
ENDCHAR
STARTCHAR 0119
ENCODING 281
SWIDTH 540 0
DWIDTH 12 0
BBX 10 17 1 -5
BITMAP
1E00
3F80
7F80
E1C0
E1C0
FFC0
FFC0
E000
E100
F1C0
7F80
3F00
0C00
0C00
0C00
0F80
0300
ENDCHAR
STARTCHAR 011A
ENCODING 282
SWIDTH 675 0
DWIDTH 15 0
BBX 12 20 2 0
BITMAP
3B80
1F00
1E00
0000
FFE0
FFE0
FFE0
E000
E000
E000
FFE0
FFE0
FFE0
E000
E000
E000
E000
FFF0
FFF0
FFF0
ENDCHAR
STARTCHAR 011B
ENCODING 283
SWIDTH 540 0
DWIDTH 12 0
BBX 10 16 1 0
BITMAP
3300
1F00
1E00
0000
1E00
3F80
7F80
E1C0
E1C0
FFC0
FFC0
E000
E100
F1C0
7F80
3F00
ENDCHAR
STARTCHAR 011C
ENCODING 284
SWIDTH 765 0
DWIDTH 17 0
BBX 15 21 1 0
BITMAP
0380
03C0
07E0
0E60
0000
0FF0
1FF8
3FFC
781C
701E
F000
E000
E0FE
E0FE
E0FE
F00E
700E
781E
3EFE
1FFC
0FF0
ENDCHAR
STARTCHAR 011D
ENCODING 285
SWIDTH 630 0
DWIDTH 14 0
BBX 11 21 1 -5
BITMAP
0F00
1F00
3980
0000
1CE0
3FE0
7FE0
F1E0
E0E0
E0E0
E0E0
E0E0
F0E0
7BE0
7FE0
1EE0
00E0
F0E0
7FE0
7FC0
1F00
ENDCHAR
STARTCHAR 011E
ENCODING 286
SWIDTH 765 0
DWIDTH 17 0
BBX 15 20 1 0
BITMAP
0420
0660
03C0
0000
0FF0
1FF8
3FFC
781C
701E
F000
E000
E0FE
E0FE
E0FE
F00E
700E
781E
3EFE
1FFC
0FF0
ENDCHAR
STARTCHAR 011F
ENCODING 287
SWIDTH 630 0
DWIDTH 14 0
BBX 11 21 1 -5
BITMAP
3180
1F00
0E00
0000
1CE0
3FE0
7FE0
F1E0
E0E0
E0E0
E0E0
E0E0
F0E0
7BE0
7FE0
1EE0
00E0
F0E0
7FE0
7FC0
1F00
ENDCHAR
STARTCHAR 0120
ENCODING 288
SWIDTH 765 0
DWIDTH 17 0
BBX 15 20 1 0
BITMAP
0380
0380
0380
0000
0FF0
1FF8
3FFC
781C
701E
F000
E000
E0FE
E0FE
E0FE
F00E
700E
781E
3EFE
1FFC
0FF0
ENDCHAR
STARTCHAR 0121
ENCODING 289
SWIDTH 630 0
DWIDTH 14 0
BBX 11 21 1 -5
BITMAP
0E00
0E00
0E00
0000
1CE0
3FE0
7FE0
F1E0
E0E0
E0E0
E0E0
E0E0
F0E0
7BE0
7FE0
1EE0
00E0
F0E0
7FE0
7FC0
1F00
ENDCHAR
STARTCHAR 0122
ENCODING 290
SWIDTH 765 0
DWIDTH 17 0
BBX 15 21 1 -5
BITMAP
0FF0
1FF8
3FFC
781C
701E
F000
E000
E0FE
E0FE
E0FE
F00E
700E
781E
3E7E
1FFC
0FF0
0380
00C0
00C0
0FC0
0600
ENDCHAR
STARTCHAR 0123
ENCODING 291
SWIDTH 630 0
DWIDTH 14 0
BBX 11 23 1 -5
BITMAP
0200
0E00
0C00
0E00
0E00
0000
1CE0
3FE0
7FE0
F1E0
E0E0
E0E0
E0E0
E0E0
F0E0
7BE0
7FE0
1EE0
00E0
F0E0
7FE0
7FC0
0F00
ENDCHAR
STARTCHAR 0124
ENCODING 292
SWIDTH 720 0
DWIDTH 16 0
BBX 12 21 2 0
BITMAP
0600
0F00
1F80
39C0
0000
E070
E070
E070
E070
E070
E070
FFF0
FFF0
FFF0
E070
E070
E070
E070
E070
E070
E070
ENDCHAR
STARTCHAR 0125
ENCODING 293
SWIDTH 630 0
DWIDTH 14 0
BBX 10 20 2 0
BITMAP
1E00
3E00
3700
0000
E000
E000
E000
E000
E700
FF80
FFC0
E1C0
E1C0
E1C0
E1C0
E1C0
E1C0
E1C0
E1C0
E1C0
ENDCHAR
STARTCHAR 0126
ENCODING 294
SWIDTH 720 0
DWIDTH 16 0
BBX 16 16 0 0
BITMAP
381C
381C
FFFF
FFFF
381C
381C
3FFC
3FFC
3FFC
381C
381C
381C
381C
381C
381C
381C
ENDCHAR
STARTCHAR 0127
ENCODING 295
SWIDTH 630 0
DWIDTH 14 0
BBX 12 16 0 0
BITMAP
3800
FF00
FF00
3800
39C0
3FE0
3FF0
3870
3870
3870
3870
3870
3870
3870
3870
3870
ENDCHAR
STARTCHAR 0128
ENCODING 296
SWIDTH 270 0
DWIDTH 6 0
BBX 8 20 -1 0
BITMAP
73
FE
C6
00
1C
1C
1C
1C
1C
1C
1C
1C
1C
1C
1C
1C
1C
1C
1C
1C
ENDCHAR
STARTCHAR 0129
ENCODING 297
SWIDTH 270 0
DWIDTH 6 0
BBX 8 16 -1 0
BITMAP
73
FF
CE
00
1C
1C
1C
1C
1C
1C
1C
1C
1C
1C
1C
1C
ENDCHAR
STARTCHAR 012A
ENCODING 298
SWIDTH 270 0
DWIDTH 6 0
BBX 7 19 0 0
BITMAP
FE
FE
00
38
38
38
38
38
38
38
38
38
38
38
38
38
38
38
38
ENDCHAR
STARTCHAR 012B
ENCODING 299
SWIDTH 270 0
DWIDTH 6 0
BBX 7 15 0 0
BITMAP
FE
FE
00
38
38
38
38
38
38
38
38
38
38
38
38
ENDCHAR
STARTCHAR 012C
ENCODING 300
SWIDTH 270 0
DWIDTH 6 0
BBX 6 20 0 0
BITMAP
84
FC
30
00
38
38
38
38
38
38
38
38
38
38
38
38
38
38
38
38
ENDCHAR
STARTCHAR 012D
ENCODING 301
SWIDTH 270 0
DWIDTH 6 0
BBX 6 16 0 0
BITMAP
84
FC
78
00
38
38
38
38
38
38
38
38
38
38
38
38
ENDCHAR
STARTCHAR 012E
ENCODING 302
SWIDTH 270 0
DWIDTH 6 0
BBX 5 21 1 -5
BITMAP
70
70
70
70
70
70
70
70
70
70
70
70
70
70
70
70
C0
C0
C0
78
30
ENDCHAR
STARTCHAR 012F
ENCODING 303
SWIDTH 270 0
DWIDTH 6 0
BBX 5 21 1 -5
BITMAP
70
70
70
00
70
70
70
70
70
70
70
70
70
70
70
70
C0
C0
C0
78
30
ENDCHAR
STARTCHAR 0130
ENCODING 304
SWIDTH 270 0
DWIDTH 6 0
BBX 3 20 2 0
BITMAP
E0
E0
E0
00
E0
E0
E0
E0
E0
E0
E0
E0
E0
E0
E0
E0
E0
E0
E0
E0
ENDCHAR
STARTCHAR 0131
ENCODING 305
SWIDTH 270 0
DWIDTH 6 0
BBX 3 12 2 0
BITMAP
E0
E0
E0
E0
E0
E0
E0
E0
E0
E0
E0
E0
ENDCHAR
STARTCHAR 0132
ENCODING 306
SWIDTH 765 0
DWIDTH 17 0
BBX 14 16 2 0
BITMAP
E01C
E01C
E01C
E01C
E01C
E01C
E01C
E01C
E01C
E01C
E01C
EE3C
EE3C
EF78
EFF8
E7F0
ENDCHAR
STARTCHAR 0133
ENCODING 307
SWIDTH 540 0
DWIDTH 12 0
BBX 9 21 2 -5
BITMAP
E380
E380
E380
0000
E380
E380
E380
E380
E380
E380
E380
E380
E380
E380
E380
E380
0380
0780
1F00
1F00
0C00
ENDCHAR
STARTCHAR 0134
ENCODING 308
SWIDTH 540 0
DWIDTH 12 0
BBX 12 21 0 0
BITMAP
00C0
01E0
03F0
0730
0000
01E0
01E0
01E0
01E0
01E0
01E0
01E0
01E0
01E0
01E0
01E0
E1E0
F1C0
7BC0
7FC0
3F00
ENDCHAR
STARTCHAR 0135
ENCODING 309
SWIDTH 270 0
DWIDTH 6 0
BBX 7 21 -1 -5
BITMAP
3C
7E
66
00
1C
1C
1C
1C
1C
1C
1C
1C
1C
1C
1C
1C
1C
3C
F8
F8
60
ENDCHAR
STARTCHAR 0136
ENCODING 310
SWIDTH 720 0
DWIDTH 16 0
BBX 14 21 2 -5
BITMAP
E078
E0F0
E1E0
E3C0
E780
EF00
FF00
FF00
FF80
FBC0
F1C0
E1E0
E0F0
E0F0
E078
E03C
0E00
0F80
0380
1F00
1C00
ENDCHAR
STARTCHAR 0137
ENCODING 311
SWIDTH 540 0
DWIDTH 12 0
BBX 11 21 1 -5
BITMAP
F000
F000
F000
F000
F1E0
F3C0
F780
FF00
FE00
FE00
FF00
F780
F380
F3C0
F1C0
F0E0
0E00
0F00
0300
3F00
1800
ENDCHAR
STARTCHAR 0138
ENCODING 312
SWIDTH 540 0
DWIDTH 12 0
BBX 10 12 2 0
BITMAP
E3C0
E780
EF00
FE00
FC00
FC00
FE00
EF00
E700
E780
E380
E1C0
ENDCHAR
STARTCHAR 0139
ENCODING 313
SWIDTH 630 0
DWIDTH 14 0
BBX 11 20 2 0
BITMAP
0E00
1C00
1800
0000
E000
E000
E000
E000
E000
E000
E000
E000
E000
E000
E000
E000
E000
FFE0
FFE0
FFE0
ENDCHAR
STARTCHAR 013A
ENCODING 314
SWIDTH 270 0
DWIDTH 6 0
BBX 4 20 2 0
BITMAP
70
E0
C0
00
E0
E0
E0
E0
E0
E0
E0
E0
E0
E0
E0
E0
E0
E0
E0
E0
ENDCHAR
STARTCHAR 013B
ENCODING 315
SWIDTH 630 0
DWIDTH 14 0
BBX 11 21 2 -5
BITMAP
E000
E000
E000
E000
E000
E000
E000
E000
E000
E000
E000
E000
E000
FFE0
FFE0
FFE0
1C00
1E00
0600
7E00
3800
ENDCHAR
STARTCHAR 013C
ENCODING 316
SWIDTH 270 0
DWIDTH 6 0
BBX 6 21 0 -5
BITMAP
38
38
38
38
38
38
38
38
38
38
38
38
38
38
38
38
70
7C
0C
F8
E0
ENDCHAR
STARTCHAR 013D
ENCODING 317
SWIDTH 630 0
DWIDTH 14 0
BBX 11 16 2 0
BITMAP
E1C0
E1C0
E1C0
E040
E0C0
E180
E100
E000
E000
E000
E000
E000
E000
FFE0
FFE0
FFE0
ENDCHAR
STARTCHAR 013E
ENCODING 318
SWIDTH 405 0
DWIDTH 9 0
BBX 7 16 2 0
BITMAP
EE
EE
EC
E4
EC
E8
E0
E0
E0
E0
E0
E0
E0
E0
E0
E0
ENDCHAR
STARTCHAR 013F
ENCODING 319
SWIDTH 630 0
DWIDTH 14 0
BBX 11 16 2 0
BITMAP
E000
E000
E000
E000
E000
E000
E000
E380
E380
E380
E000
E000
E000
FFE0
FFE0
FFE0
ENDCHAR
STARTCHAR 0140
ENCODING 320
SWIDTH 495 0
DWIDTH 11 0
BBX 7 16 2 0
BITMAP
E0
E0
E0
E0
E0
E0
E0
EE
EE
EE
E0
E0
E0
E0
E0
E0
ENDCHAR
STARTCHAR 0141
ENCODING 321
SWIDTH 630 0
DWIDTH 14 0
BBX 13 16 0 0
BITMAP
3800
3800
3880
3980
3B80
3F00
3E00
3C00
7800
F800
F800
B800
3800
3FF8
3FF8
3FF8
ENDCHAR
STARTCHAR 0142
ENCODING 322
SWIDTH 270 0
DWIDTH 6 0
BBX 6 16 0 0
BITMAP
38
38
38
38
38
3C
3C
38
78
F8
B8
38
38
38
38
38
ENDCHAR
STARTCHAR 0143
ENCODING 323
SWIDTH 720 0
DWIDTH 16 0
BBX 12 20 2 0
BITMAP
0700
0600
0E00
0000
E070
F070
F070
F870
F870
FC70
FE70
EE70
EF70
E7F0
E3F0
E3F0
E1F0
E1F0
E0F0
E070
ENDCHAR
STARTCHAR 0144
ENCODING 324
SWIDTH 630 0
DWIDTH 14 0
BBX 10 16 2 0
BITMAP
0F00
0E00
1C00
0000
C700
DF80
FFC0
E1C0
E1C0
E1C0
E1C0
E1C0
E1C0
E1C0
E1C0
E1C0
ENDCHAR
STARTCHAR 0145
ENCODING 325
SWIDTH 720 0
DWIDTH 16 0
BBX 12 21 2 -5
BITMAP
E070
F070
F070
F870
F870
FC70
FE70
EE70
EF70
E7F0
E3F0
E3F0
E1F0
E1F0
E0F0
E070
0E00
0F80
0380
1F00
1C00
ENDCHAR
STARTCHAR 0146
ENCODING 326
SWIDTH 630 0
DWIDTH 14 0
BBX 10 17 2 -5
BITMAP
C700
DF80
FFC0
E1C0
E1C0
E1C0
E1C0
E1C0
E1C0
E1C0
E1C0
E1C0
1C00
1E00
0600
7E00
3800
ENDCHAR
STARTCHAR 0147
ENCODING 327
SWIDTH 720 0
DWIDTH 16 0
BBX 12 20 2 0
BITMAP
1980
1F00
0F00
0000
E070
F070
F070
F870
F870
FC70
FE70
EE70
EF70
E7F0
E3F0
E3F0
E1F0
E1F0
E0F0
E070
ENDCHAR
STARTCHAR 0148
ENCODING 328
SWIDTH 630 0
DWIDTH 14 0
BBX 10 16 2 0
BITMAP
3300
3E00
1E00
0000
C700
DF80
FFC0
E1C0
E1C0
E1C0
E1C0
E1C0
E1C0
E1C0
E1C0
E1C0
ENDCHAR
STARTCHAR 0149
ENCODING 329
SWIDTH 720 0
DWIDTH 16 0
BBX 15 16 -1 0
BITMAP
7000
7000
7000
3000
2638
E6FC
07FE
070E
070E
070E
070E
070E
070E
070E
070E
070E
ENDCHAR
STARTCHAR 014A
ENCODING 330
SWIDTH 720 0
DWIDTH 16 0
BBX 13 16 2 0
BITMAP
E7C0
EFF0
FFF0
F078
E078
E078
E038
E038
E038
E038
E038
E038
E078
E2F0
E3F0
E7E0
ENDCHAR
STARTCHAR 014B
ENCODING 331
SWIDTH 630 0
DWIDTH 14 0
BBX 10 17 2 -5
BITMAP
C700
DF80
FFC0
E1C0
E1C0
E1C0
E1C0
E1C0
E1C0
E1C0
E1C0
E1C0
01C0
01C0
07C0
0780
0700
ENDCHAR
STARTCHAR 014C
ENCODING 332
SWIDTH 765 0
DWIDTH 17 0
BBX 15 19 1 0
BITMAP
0FE0
0FE0
0000
0FE0
1FF8
3FFC
783C
701E
F00E
E00E
E00E
E00E
E00E
F00E
F01E
783C
3EFC
3FF8
0FE0
ENDCHAR
STARTCHAR 014D
ENCODING 333
SWIDTH 630 0
DWIDTH 14 0
BBX 12 15 1 0
BITMAP
3F80
3F80
0000
0F00
3FC0
7FE0
F0E0
E0F0
E070
E070
E070
F0E0
79E0
7FC0
1F80
ENDCHAR
STARTCHAR 014E
ENCODING 334
SWIDTH 765 0
DWIDTH 17 0
BBX 15 20 1 0
BITMAP
0C60
07C0
0380
0000
0FE0
1FF8
3FFC
783C
701E
F00E
E00E
E00E
E00E
E00E
F00E
F01E
783C
3EFC
3FF8
0FE0
ENDCHAR
STARTCHAR 014F
ENCODING 335
SWIDTH 630 0
DWIDTH 14 0
BBX 12 16 1 0
BITMAP
3180
1F80
0F00
0000
0F00
3FC0
7FE0
F0E0
E0F0
E070
E070
E070
F0E0
79E0
7FC0
1F80
ENDCHAR
STARTCHAR 0150
ENCODING 336
SWIDTH 765 0
DWIDTH 17 0
BBX 15 20 1 0
BITMAP
0730
0770
0660
0000
0FE0
1FF8
3FFC
783C
701E
F00E
E00E
E00E
E00E
E00E
F00E
F01E
783C
3EFC
3FF8
0FE0
ENDCHAR
STARTCHAR 0151
ENCODING 337
SWIDTH 630 0
DWIDTH 14 0
BBX 12 16 1 0
BITMAP
1DC0
1980
3380
0000
0F00
3FC0
7FE0
F0E0
E0F0
E070
E070
E070
F0E0
79E0
7FC0
1F80
ENDCHAR
STARTCHAR 0152
ENCODING 338
SWIDTH 990 0
DWIDTH 22 0
BBX 21 16 1 0
BITMAP
1FBFF0
3FFFF0
7FFFF0
707800
F03800
E03800
E03FF0
E03FF0
E03FF0
E03800
E03800
F03800
707800
7FFFF8
3FFFF8
1FBFF8
ENDCHAR
STARTCHAR 0153
ENCODING 339
SWIDTH 945 0
DWIDTH 21 0
BBX 19 12 1 0
BITMAP
0F0E00
3FFF80
7FFBC0
70F0E0
E0F0E0
E0FFE0
E0FFE0
E0F000
F0F080
79F9E0
3FFFC0
1F9F80
ENDCHAR
STARTCHAR 0154
ENCODING 340
SWIDTH 720 0
DWIDTH 16 0
BBX 14 20 2 0
BITMAP
0F00
0E00
1C00
0000
FFC0
FFF0
FFF0
E078
E078
E078
E0F0
FFF0
FFC0
E780
E3C0
E1E0
E0F0
E0F0
E078
E03C
ENDCHAR
STARTCHAR 0155
ENCODING 341
SWIDTH 405 0
DWIDTH 9 0
BBX 8 16 1 0
BITMAP
1C
18
30
00
E6
EF
FE
F0
F0
F0
F0
F0
F0
F0
F0
F0
ENDCHAR
STARTCHAR 0156
ENCODING 342
SWIDTH 720 0
DWIDTH 16 0
BBX 14 21 2 -5
BITMAP
FFC0
FFF0
FFF0
E078
E078
E078
E0F0
FFF0
FFC0
E780
E3C0
E1E0
E0F0
E0F0
E078
E03C
0E00
0F80
0380
1F00
1C00
ENDCHAR
STARTCHAR 0157
ENCODING 343
SWIDTH 405 0
DWIDTH 9 0
BBX 9 17 0 -5
BITMAP
7300
7780
7F00
7800
7800
7800
7800
7800
7800
7800
7800
7800
3800
3C00
0C00
FC00
7000
ENDCHAR
STARTCHAR 0158
ENCODING 344
SWIDTH 720 0
DWIDTH 16 0
BBX 14 20 2 0
BITMAP
3300
3E00
1E00
0000
FFC0
FFF0
FFF0
E078
E078
E078
E0F0
FFF0
FFC0
E780
E3C0
E1E0
E0F0
E0F0
E078
E03C
ENDCHAR
STARTCHAR 0159
ENCODING 345
SWIDTH 405 0
DWIDTH 9 0
BBX 8 16 1 0
BITMAP
EE
7C
38
00
E6
EF
FE
F0
F0
F0
F0
F0
F0
F0
F0
F0
ENDCHAR
STARTCHAR 015A
ENCODING 346
SWIDTH 675 0
DWIDTH 15 0
BBX 13 20 1 0
BITMAP
0380
0300
0700
0000
1FC0
7FE0
7FF0
F070
F070
7800
7F00
3FE0
0FF0
01F0
0078
E038
F078
7DF0
7FF0
1FC0
ENDCHAR
STARTCHAR 015B
ENCODING 347
SWIDTH 540 0
DWIDTH 12 0
BBX 10 16 1 0
BITMAP
0700
0600
0C00
0000
1E00
7F80
F3C0
E180
F800
FF00
3FC0
07C0
61C0
E1C0
FFC0
3F00
ENDCHAR
STARTCHAR 015C
ENCODING 348
SWIDTH 675 0
DWIDTH 15 0
BBX 13 21 1 0
BITMAP
0700
0F80
0D80
19C0
0000
1FC0
7FE0
7FF0
F070
F070
7800
7F00
3FE0
0FF0
01F0
0078
E038
F078
7DF0
7FF0
1FC0
ENDCHAR
STARTCHAR 015D
ENCODING 349
SWIDTH 540 0
DWIDTH 12 0
BBX 10 16 1 0
BITMAP
1E00
1F00
3300
0000
1E00
7F80
F3C0
E180
F800
FF00
3FC0
07C0
61C0
E1C0
FFC0
3F00
ENDCHAR
STARTCHAR 015E
ENCODING 350
SWIDTH 675 0
DWIDTH 15 0
BBX 13 21 1 -5
BITMAP
1FC0
7FE0
7FF0
F070
F070
7800
7F00
3FE0
0FF0
01F0
0078
E038
F078
7DF0
7FF0
1FC0
0700
0980
0180
1F80
0C00
ENDCHAR
STARTCHAR 015F
ENCODING 351
SWIDTH 540 0
DWIDTH 12 0
BBX 10 17 1 -5
BITMAP
1E00
7F80
F3C0
E180
F800
FF00
3FC0
07C0
61C0
E1C0
FFC0
3F00
0E00
0300
0300
3F00
1800
ENDCHAR
STARTCHAR 0160
ENCODING 352
SWIDTH 675 0
DWIDTH 15 0
BBX 13 20 1 0
BITMAP
19C0
0F80
0F00
0000
1FC0
7FE0
7FF0
F070
F070
7800
7F00
3FE0
0FF0
01F0
0078
E038
F078
7DF0
7FF0
1FC0
ENDCHAR
STARTCHAR 0161
ENCODING 353
SWIDTH 540 0
DWIDTH 12 0
BBX 10 16 1 0
BITMAP
3300
3E00
1E00
0000
1E00
7F80
F3C0
E180
F800
FF00
3FC0
07C0
61C0
E1C0
FFC0
3F00
ENDCHAR
STARTCHAR 0162
ENCODING 354
SWIDTH 630 0
DWIDTH 14 0
BBX 13 23 0 -7
BITMAP
FFF8
FFF8
FFF8
0700
0700
0700
0700
0700
0700
0700
0700
0700
0700
0700
0700
0700
0000
0700
0700
0700
0100
0300
0600
ENDCHAR
STARTCHAR 0163
ENCODING 355
SWIDTH 315 0
DWIDTH 7 0
BBX 7 21 0 -6
BITMAP
18
38
38
FE
FE
FE
38
38
38
38
38
38
38
3E
3E
00
1C
1C
1C
08
18
ENDCHAR
STARTCHAR 0164
ENCODING 356
SWIDTH 630 0
DWIDTH 14 0
BBX 13 20 0 0
BITMAP
1DC0
0F80
0700
0000
FFF8
FFF8
FFF8
0700
0700
0700
0700
0700
0700
0700
0700
0700
0700
0700
0700
0700
ENDCHAR
STARTCHAR 0165
ENCODING 357
SWIDTH 495 0
DWIDTH 11 0
BBX 11 16 0 0
BITMAP
00E0
18E0
38E0
3860
FE40
FE80
FE00
3800
3800
3800
3800
3800
3800
3800
3E00
3E00
ENDCHAR
STARTCHAR 0166
ENCODING 358
SWIDTH 630 0
DWIDTH 14 0
BBX 13 16 0 0
BITMAP
FFF8
FFF8
FFF8
0700
0700
0700
0700
0700
3FF0
3FF0
0700
0700
0700
0700
0700
0700
ENDCHAR
STARTCHAR 0167
ENCODING 359
SWIDTH 315 0
DWIDTH 7 0
BBX 7 15 0 1
BITMAP
18
38
38
FE
FE
FE
38
38
FE
FE
38
38
38
3E
3E
ENDCHAR
STARTCHAR 0168
ENCODING 360
SWIDTH 720 0
DWIDTH 16 0
BBX 12 20 2 0
BITMAP
1CC0
3F80
3180
0000
E070
E070
E070
E070
E070
E070
E070
E070
E070
E070
E070
E070
E070
F9F0
7FE0
3FC0
ENDCHAR
STARTCHAR 0169
ENCODING 361
SWIDTH 630 0
DWIDTH 14 0
BBX 10 16 2 0
BITMAP
3100
7F00
4700
0000
E1C0
E1C0
E1C0
E1C0
E1C0
E1C0
E1C0
E1C0
E1C0
E3C0
FFC0
7DC0
ENDCHAR
STARTCHAR 016A
ENCODING 362
SWIDTH 720 0
DWIDTH 16 0
BBX 12 19 2 0
BITMAP
1FC0
1FC0
0000
E070
E070
E070
E070
E070
E070
E070
E070
E070
E070
E070
E070
E070
F9F0
7FE0
3FC0
ENDCHAR
STARTCHAR 016B
ENCODING 363
SWIDTH 630 0
DWIDTH 14 0
BBX 10 15 2 0
BITMAP
7F00
7F00
0000
E1C0
E1C0
E1C0
E1C0
E1C0
E1C0
E1C0
E1C0
E1C0
E3C0
FFC0
7DC0
ENDCHAR
STARTCHAR 016C
ENCODING 364
SWIDTH 720 0
DWIDTH 16 0
BBX 12 20 2 0
BITMAP
1080
1F80
0600
0000
E070
E070
E070
E070
E070
E070
E070
E070
E070
E070
E070
E070
E070
F9F0
7FE0
3FC0
ENDCHAR
STARTCHAR 016D
ENCODING 365
SWIDTH 630 0
DWIDTH 14 0
BBX 10 16 2 0
BITMAP
6300
3F00
1E00
0000
E1C0
E1C0
E1C0
E1C0
E1C0
E1C0
E1C0
E1C0
E1C0
E3C0
FFC0
7DC0
ENDCHAR
STARTCHAR 016E
ENCODING 366
SWIDTH 720 0
DWIDTH 16 0
BBX 12 20 2 0
BITMAP
0F00
0900
0B00
0600
E070
E070
E070
E070
E070
E070
E070
E070
E070
E070
E070
E070
E070
F9F0
7FE0
3FC0
ENDCHAR
STARTCHAR 016F
ENCODING 367
SWIDTH 630 0
DWIDTH 14 0
BBX 10 17 2 0
BITMAP
0C00
1E00
1200
1E00
0800
E1C0
E1C0
E1C0
E1C0
E1C0
E1C0
E1C0
E1C0
E1C0
E3C0
FFC0
7DC0
ENDCHAR
STARTCHAR 0170
ENCODING 368
SWIDTH 720 0
DWIDTH 16 0
BBX 12 20 2 0
BITMAP
0EE0
1DC0
1980
0000
E070
E070
E070
E070
E070
E070
E070
E070
E070
E070
E070
E070
E070
F9F0
7FE0
3FC0
ENDCHAR
STARTCHAR 0171
ENCODING 369
SWIDTH 630 0
DWIDTH 14 0
BBX 10 16 2 0
BITMAP
1DC0
3B80
3300
0000
E1C0
E1C0
E1C0
E1C0
E1C0
E1C0
E1C0
E1C0
E1C0
E3C0
FFC0
7DC0
ENDCHAR
STARTCHAR 0172
ENCODING 370
SWIDTH 720 0
DWIDTH 16 0
BBX 12 21 2 -5
BITMAP
E070
E070
E070
E070
E070
E070
E070
E070
E070
E070
E070
E070
E070
F9F0
7FE0
3FC0
0400
0400
0600
0780
0380
ENDCHAR
STARTCHAR 0173
ENCODING 371
SWIDTH 630 0
DWIDTH 14 0
BBX 12 17 2 -5
BITMAP
E1C0
E1C0
E1C0
E1C0
E1C0
E1C0
E1C0
E1C0
E1C0
E3C0
FFC0
7DC0
0180
0180
0180
01F0
00E0
ENDCHAR
STARTCHAR 0174
ENCODING 372
SWIDTH 945 0
DWIDTH 21 0
BBX 21 21 0 0
BITMAP
007000
00F800
00D800
018C00
000000
E07838
F0F878
70F870
70F870
71DC70
79DC70
39DCE0
39DCE0
3B8EE0
3B8EE0
1F8FC0
1F8FC0
1F07C0
1F07C0
0F0780
0E0380
ENDCHAR
STARTCHAR 0175
ENCODING 373
SWIDTH 765 0
DWIDTH 17 0
BBX 17 16 0 0
BITMAP
01E000
03E000
077000
000000
E1C380
E1C380
71E380
73E700
73E700
336700
3B7600
3F7E00
1F3E00
1E3C00
1E3C00
0E1C00
ENDCHAR
STARTCHAR 0176
ENCODING 374
SWIDTH 675 0
DWIDTH 15 0
BBX 15 21 0 0
BITMAP
0380
07C0
06C0
0C60
0000
F01E
783C
7838
3C78
1C70
1EE0
0FE0
07C0
07C0
0380
0380
0380
0380
0380
0380
0380
ENDCHAR
STARTCHAR 0177
ENCODING 375
SWIDTH 540 0
DWIDTH 12 0
BBX 12 21 0 -5
BITMAP
0F00
0F80
1980
0000
E070
70F0
70E0
70E0
38E0
39C0
39C0
1D80
1F80
0F80
0F00
0F00
0F00
0E00
7E00
7C00
7000
ENDCHAR
STARTCHAR 0178
ENCODING 376
SWIDTH 675 0
DWIDTH 15 0
BBX 15 19 0 0
BITMAP
0CE0
0CE0
0000
F01E
783C
7838
3C78
1C70
1EE0
0FE0
07C0
07C0
0380
0380
0380
0380
0380
0380
0380
ENDCHAR
STARTCHAR 0179
ENCODING 377
SWIDTH 630 0
DWIDTH 14 0
BBX 13 20 0 0
BITMAP
0380
0700
0600
0000
7FF8
7FF8
7FF8
00F0
01E0
03C0
03C0
0780
0F00
1E00
3C00
3C00
7800
FFF8
FFF8
FFF8
ENDCHAR
STARTCHAR 017A
ENCODING 378
SWIDTH 495 0
DWIDTH 11 0
BBX 11 16 0 0
BITMAP
0700
0E00
0C00
0000
7FC0
7FC0
7FC0
03C0
0780
0F00
1E00
3C00
7800
FFE0
FFE0
FFE0
ENDCHAR
STARTCHAR 017B
ENCODING 379
SWIDTH 630 0
DWIDTH 14 0
BBX 13 20 0 0
BITMAP
0700
0700
0700
0000
7FF8
7FF8
7FF8
00F0
01E0
03C0
03C0
0780
0F00
1E00
3C00
3C00
7800
FFF8
FFF8
FFF8
ENDCHAR
STARTCHAR 017C
ENCODING 380
SWIDTH 495 0
DWIDTH 11 0
BBX 11 16 0 0
BITMAP
0E00
0E00
0E00
0000
7FC0
7FC0
7FC0
03C0
0780
0F00
1E00
3C00
7800
FFE0
FFE0
FFE0
ENDCHAR
STARTCHAR 017D
ENCODING 381
SWIDTH 630 0
DWIDTH 14 0
BBX 13 20 0 0
BITMAP
1DC0
0F80
0700
0000
7FF8
7FF8
7FF8
00F0
01E0
03C0
03C0
0780
0F00
1E00
3C00
3C00
7800
FFF8
FFF8
FFF8
ENDCHAR
STARTCHAR 017E
ENCODING 382
SWIDTH 495 0
DWIDTH 11 0
BBX 11 16 0 0
BITMAP
3B80
1F00
0E00
0000
7FC0
7FC0
7FC0
03C0
0780
0F00
1E00
3C00
7800
FFE0
FFE0
FFE0
ENDCHAR
STARTCHAR 017F
ENCODING 383
SWIDTH 270 0
DWIDTH 6 0
BBX 6 16 2 0
BITMAP
7C
F8
E0
E0
E0
E0
E0
E0
E0
E0
E0
E0
E0
E0
E0
E0
ENDCHAR
STARTCHAR 018F
ENCODING 399
SWIDTH 720 0
DWIDTH 16 0
BBX 14 16 1 0
BITMAP
0FC0
3FF0
7FF8
7878
F03C
001C
001C
FFFC
FFFC
E01C
F01C
F03C
7838
3CF8
3FF0
0FC0
ENDCHAR
STARTCHAR 0192
ENCODING 402
SWIDTH 540 0
DWIDTH 12 0
BBX 12 21 0 -5
BITMAP
01F0
03F0
03D0
0380
1FE0
1FE0
1FE0
0700
0700
0700
0700
0E00
0E00
0E00
0E00
0E00
0E00
1C00
FC00
FC00
7000
ENDCHAR
STARTCHAR 01A0
ENCODING 416
SWIDTH 855 0
DWIDTH 19 0
BBX 18 16 1 0
BITMAP
0FE1C0
1FF9C0
3FFDC0
783CC0
701EC0
F00F80
E00F00
E00E00
E00E00
E00E00
F00E00
F01E00
781C00
3EFC00
3FF800
0FE000
ENDCHAR
STARTCHAR 01A1
ENCODING 417
SWIDTH 720 0
DWIDTH 16 0
BBX 15 12 1 0
BITMAP
0F0E
3FCE
7FEE
F0EE
E0F6
E07C
E078
E0F0
F0E0
79E0
7FC0
1F80
ENDCHAR
STARTCHAR 01AF
ENCODING 431
SWIDTH 810 0
DWIDTH 18 0
BBX 16 16 2 0
BITMAP
E077
E077
E077
E071
E071
E077
E07C
E070
E070
E070
E070
E070
E070
F9F0
7FE0
3FC0
ENDCHAR
STARTCHAR 01B0
ENCODING 432
SWIDTH 720 0
DWIDTH 16 0
BBX 14 12 2 0
BITMAP
E1DC
E1DC
E1DC
E1DC
E1CC
E1CC
E1F8
E1C0
E1C0
E3C0
FFC0
7DC0
ENDCHAR
STARTCHAR 01CD
ENCODING 461
SWIDTH 720 0
DWIDTH 16 0
BBX 16 20 0 0
BITMAP
0660
07C0
03C0
0000
03C0
03C0
07E0
07E0
0FE0
0EF0
0E70
1E78
1C38
1C38
3FFC
3FFC
781E
701E
700E
F00F
ENDCHAR
STARTCHAR 01CE
ENCODING 462
SWIDTH 540 0
DWIDTH 12 0
BBX 10 16 1 0
BITMAP
3300
1F00
1E00
0000
1F00
7F80
FFC0
E1C0
01C0
1FC0
7FC0
E1C0
E1C0
E3C0
FFC0
7DC0
ENDCHAR
STARTCHAR 01CF
ENCODING 463
SWIDTH 270 0
DWIDTH 6 0
BBX 6 20 0 0
BITMAP
CC
7C
78
00
38
38
38
38
38
38
38
38
38
38
38
38
38
38
38
38
ENDCHAR
STARTCHAR 01D0
ENCODING 464
SWIDTH 270 0
DWIDTH 6 0
BBX 6 16 0 0
BITMAP
CC
7C
78
00
38
38
38
38
38
38
38
38
38
38
38
38
ENDCHAR
STARTCHAR 01D1
ENCODING 465
SWIDTH 765 0
DWIDTH 17 0
BBX 15 20 1 0
BITMAP
0EE0
07C0
0380
0000
0FE0
1FF8
3FFC
783C
701E
F00E
E00E
E00E
E00E
E00E
F00E
F01E
783C
3EFC
3FF8
0FE0
ENDCHAR
STARTCHAR 01D2
ENCODING 466
SWIDTH 630 0
DWIDTH 14 0
BBX 12 16 1 0
BITMAP
1B80
1F00
0F00
0000
0F00
3FC0
7FE0
F0E0
E0F0
E070
E070
E070
F0E0
79E0
7FC0
1F80
ENDCHAR
STARTCHAR 01D3
ENCODING 467
SWIDTH 720 0
DWIDTH 16 0
BBX 12 20 2 0
BITMAP
1980
1F80
0F00
0000
E070
E070
E070
E070
E070
E070
E070
E070
E070
E070
E070
E070
E070
F9F0
7FE0
3FC0
ENDCHAR
STARTCHAR 01D4
ENCODING 468
SWIDTH 630 0
DWIDTH 14 0
BBX 10 16 2 0
BITMAP
3700
3E00
1E00
0000
E1C0
E1C0
E1C0
E1C0
E1C0
E1C0
E1C0
E1C0
E1C0
E3C0
FFC0
7DC0
ENDCHAR
STARTCHAR 01D5
ENCODING 469
SWIDTH 720 0
DWIDTH 16 0
BBX 12 20 2 0
BITMAP
1F80
0000
1980
1980
E070
E070
E070
E070
E070
E070
E070
E070
E070
E070
E070
E070
E070
F9F0
7FE0
3FC0
ENDCHAR
STARTCHAR 01D6
ENCODING 470
SWIDTH 630 0
DWIDTH 14 0
BBX 10 20 2 0
BITMAP
7F00
7F00
0000
0000
7300
7300
0000
0000
E1C0
E1C0
E1C0
E1C0
E1C0
E1C0
E1C0
E1C0
E1C0
E3C0
FFC0
7DC0
ENDCHAR
STARTCHAR 01D7
ENCODING 471
SWIDTH 720 0
DWIDTH 16 0
BBX 12 20 2 0
BITMAP
0300
0600
1980
1980
E070
E070
E070
E070
E070
E070
E070
E070
E070
E070
E070
E070
E070
F9F0
7FE0
3FC0
ENDCHAR
STARTCHAR 01D8
ENCODING 472
SWIDTH 630 0
DWIDTH 14 0
BBX 10 20 2 0
BITMAP
0F00
0E00
0C00
0000
7300
7300
0000
0000
E1C0
E1C0
E1C0
E1C0
E1C0
E1C0
E1C0
E1C0
E1C0
E3C0
FFC0
7DC0
ENDCHAR
STARTCHAR 01D9
ENCODING 473
SWIDTH 720 0
DWIDTH 16 0
BBX 12 20 2 0
BITMAP
1B00
0E00
1980
1980
E070
E070
E070
E070
E070
E070
E070
E070
E070
E070
E070
E070
E070
F9F0
7FE0
3FC0
ENDCHAR
STARTCHAR 01DA
ENCODING 474
SWIDTH 630 0
DWIDTH 14 0
BBX 10 20 2 0
BITMAP
7300
3E00
1E00
0000
7300
7300
0000
0000
E1C0
E1C0
E1C0
E1C0
E1C0
E1C0
E1C0
E1C0
E1C0
E3C0
FFC0
7DC0
ENDCHAR
STARTCHAR 01DB
ENCODING 475
SWIDTH 720 0
DWIDTH 16 0
BBX 12 20 2 0
BITMAP
0C00
0600
1980
1980
E070
E070
E070
E070
E070
E070
E070
E070
E070
E070
E070
E070
E070
F9F0
7FE0
3FC0
ENDCHAR
STARTCHAR 01DC
ENCODING 476
SWIDTH 630 0
DWIDTH 14 0
BBX 10 20 2 0
BITMAP
3800
1800
0C00
0000
7300
7300
0000
0000
E1C0
E1C0
E1C0
E1C0
E1C0
E1C0
E1C0
E1C0
E1C0
E3C0
FFC0
7DC0
ENDCHAR
STARTCHAR 01FA
ENCODING 506
SWIDTH 720 0
DWIDTH 16 0
BBX 16 22 0 0
BITMAP
01E0
01C0
0180
0380
0240
0240
03C0
03C0
07E0
07E0
0FE0
0EF0
0E70
1E78
1C38
1C38
3FFC
3FFC
781E
701E
700E
F00F
ENDCHAR
STARTCHAR 01FB
ENCODING 507
SWIDTH 540 0
DWIDTH 12 0
BBX 10 21 1 0
BITMAP
0700
0E00
0C00
0C00
0C00
1E00
1200
1E00
0400
1F00
7F80
FFC0
E1C0
01C0
1FC0
7FC0
E1C0
E1C0
E3C0
FFC0
7DC0
ENDCHAR
STARTCHAR 01FC
ENCODING 508
SWIDTH 990 0
DWIDTH 22 0
BBX 22 21 -1 0
BITMAP
000E00
001C00
001800
001800
000000
01FFFC
01FFFC
03FFFC
039C00
079C00
071C00
0F1FF8
0E1FF8
0E1FF8
1FFC00
1FFC00
3FFC00
381C00
781FFC
701FFC
F01FFC
ENDCHAR
STARTCHAR 01FD
ENCODING 509
SWIDTH 900 0
DWIDTH 20 0
BBX 18 16 1 0
BITMAP
00F000
00E000
01C000
000000
1F3C00
7FFF00
7FFF80
E1E380
01C180
1FFFC0
7FFFC0
F1C000
E1C100
E3E380
FFFF80
7E7F00
ENDCHAR
STARTCHAR 01FE
ENCODING 510
SWIDTH 765 0
DWIDTH 17 0
BBX 15 22 1 -1
BITMAP
01E0
01C0
0180
0300
0000
0FE6
1FFE
3FFC
783C
703E
F06E
E0CE
E1CE
E38E
E70E
FE0E
FC1E
781C
3C7C
7FF8
CFE0
4000
ENDCHAR
STARTCHAR 01FF
ENCODING 511
SWIDTH 630 0
DWIDTH 14 0
BBX 12 17 1 -1
BITMAP
0780
0600
0E00
0000
0F20
3FE0
7FE0
F1E0
E3F0
E370
E670
EC70
F8E0
71E0
7FC0
DF80
4000
ENDCHAR
STARTCHAR 0218
ENCODING 536
SWIDTH 675 0
DWIDTH 15 0
BBX 13 22 1 -6
BITMAP
1FC0
7FE0
7FF0
F070
F070
7800
7F00
3FE0
0FF0
01F0
0078
E038
F078
7DF0
7FF0
1FC0
0000
0700
0700
0300
0700
0600
ENDCHAR
STARTCHAR 0219
ENCODING 537
SWIDTH 540 0
DWIDTH 12 0
BBX 10 18 1 -6
BITMAP
1E00
7F80
F3C0
E180
F800
FF00
3FC0
07C0
61C0
E1C0
FFC0
3F00
0000
1E00
1E00
0400
0C00
0800
ENDCHAR
STARTCHAR 021A
ENCODING 538
SWIDTH 630 0
DWIDTH 14 0
BBX 13 22 0 -6
BITMAP
FFF8
FFF8
FFF8
0700
0700
0700
0700
0700
0700
0700
0700
0700
0700
0700
0700
0700
0000
0700
0700
0100
0300
0600
ENDCHAR
STARTCHAR 021B
ENCODING 539
SWIDTH 315 0
DWIDTH 7 0
BBX 7 21 0 -5
BITMAP
18
38
38
FE
FE
FE
38
38
38
38
38
38
38
3E
3E
00
1C
1C
0C
1C
18
ENDCHAR
STARTCHAR 0259
ENCODING 601
SWIDTH 540 0
DWIDTH 12 0
BBX 11 12 1 0
BITMAP
1E00
7F80
7FC0
E1C0
01C0
FFE0
FFE0
E1E0
E1C0
71C0
7F80
3F00
ENDCHAR
STARTCHAR 02C6
ENCODING 710
SWIDTH 315 0
DWIDTH 7 0
BBX 7 3 0 13
BITMAP
3C
7C
E6
ENDCHAR
STARTCHAR 02C7
ENCODING 711
SWIDTH 315 0
DWIDTH 7 0
BBX 6 3 1 13
BITMAP
DC
F8
70
ENDCHAR
STARTCHAR 02C9
ENCODING 713
SWIDTH 315 0
DWIDTH 7 0
BBX 7 2 0 13
BITMAP
FE
FE
ENDCHAR
STARTCHAR 02D8
ENCODING 728
SWIDTH 315 0
DWIDTH 7 0
BBX 7 3 0 13
BITMAP
C6
7E
3C
ENDCHAR
STARTCHAR 02D9
ENCODING 729
SWIDTH 315 0
DWIDTH 7 0
BBX 3 3 2 13
BITMAP
E0
E0
E0
ENDCHAR
STARTCHAR 02DA
ENCODING 730
SWIDTH 315 0
DWIDTH 7 0
BBX 4 5 2 12
BITMAP
60
F0
90
F0
40
ENDCHAR
STARTCHAR 02DB
ENCODING 731
SWIDTH 315 0
DWIDTH 7 0
BBX 5 5 2 -5
BITMAP
C0
C0
C0
F8
70
ENDCHAR
STARTCHAR 02DC
ENCODING 732
SWIDTH 315 0
DWIDTH 7 0
BBX 7 3 0 13
BITMAP
62
FE
8E
ENDCHAR
STARTCHAR 02DD
ENCODING 733
SWIDTH 315 0
DWIDTH 7 0
BBX 8 3 1 13
BITMAP
77
66
CC
ENDCHAR
STARTCHAR 0300
ENCODING 768
SWIDTH 0 0
DWIDTH 0 0
BBX 4 3 -6 17
BITMAP
E0
70
30
ENDCHAR
STARTCHAR 0301
ENCODING 769
SWIDTH 0 0
DWIDTH 0 0
BBX 4 3 -4 17
BITMAP
70
E0
C0
ENDCHAR
STARTCHAR 0303
ENCODING 771
SWIDTH 0 0
DWIDTH 0 0
BBX 7 2 -10 17
BITMAP
7A
DE
ENDCHAR
STARTCHAR 0309
ENCODING 777
SWIDTH 0 0
DWIDTH 0 0
BBX 5 4 -5 16
BITMAP
F0
18
70
60
ENDCHAR
STARTCHAR 0323
ENCODING 803
SWIDTH 0 0
DWIDTH 0 0
BBX 3 3 -10 -4
BITMAP
E0
E0
E0
ENDCHAR
STARTCHAR 037E
ENCODING 894
SWIDTH 315 0
DWIDTH 7 0
BBX 3 16 2 -4
BITMAP
E0
E0
E0
E0
00
00
00
00
00
E0
E0
E0
20
60
C0
80
ENDCHAR
STARTCHAR 0384
ENCODING 900
SWIDTH 315 0
DWIDTH 7 0
BBX 4 3 2 13
BITMAP
70
60
C0
ENDCHAR
STARTCHAR 0385
ENCODING 901
SWIDTH 450 0
DWIDTH 10 0
BBX 10 3 0 13
BITMAP
CEC0
CCC0
DCC0
ENDCHAR
STARTCHAR 0386
ENCODING 902
SWIDTH 720 0
DWIDTH 16 0
BBX 16 16 0 0
BITMAP
7BC0
73C0
C7E0
07E0
07E0
0E70
0E70
1E78
1C38
1C38
3FFC
3FFC
781E
700E
700E
F00F
ENDCHAR
STARTCHAR 0387
ENCODING 903
SWIDTH 315 0
DWIDTH 7 0
BBX 3 4 2 8
BITMAP
E0
E0
E0
E0
ENDCHAR
STARTCHAR 0388
ENCODING 904
SWIDTH 855 0
DWIDTH 19 0
BBX 18 16 0 0
BITMAP
7BFFC0
E3FFC0
C3FFC0
038000
038000
038000
03FF80
03FF80
03FF80
038000
038000
038000
038000
03FFC0
03FFC0
03FFC0
ENDCHAR
STARTCHAR 0389
ENCODING 905
SWIDTH 900 0
DWIDTH 20 0
BBX 18 16 0 0
BITMAP
7B81C0
E381C0
C381C0
0381C0
0381C0
0381C0
03FFC0
03FFC0
03FFC0
0381C0
0381C0
0381C0
0381C0
0381C0
0381C0
0381C0
ENDCHAR
STARTCHAR 038A
ENCODING 906
SWIDTH 495 0
DWIDTH 11 0
BBX 9 16 0 0
BITMAP
7B80
E380
C380
0380
0380
0380
0380
0380
0380
0380
0380
0380
0380
0380
0380
0380
ENDCHAR
STARTCHAR 038C
ENCODING 908
SWIDTH 810 0
DWIDTH 18 0
BBX 18 16 -1 0
BITMAP
39FC00
73FF00
E7FF80
0F0780
0E03C0
1E01C0
1C01C0
1C01C0
1C01C0
1C01C0
1E01C0
1E03C0
0F0780
07DF80
07FF00
01FC00
ENDCHAR
STARTCHAR 038E
ENCODING 910
SWIDTH 945 0
DWIDTH 21 0
BBX 20 16 0 0
BITMAP
7BC070
E1C0F0
C1E0E0
00F1C0
0073C0
007B80
003F80
003F00
001E00
000E00
000E00
000E00
000E00
000E00
000E00
000E00
ENDCHAR
STARTCHAR 038F
ENCODING 911
SWIDTH 855 0
DWIDTH 19 0
BBX 19 16 -1 0
BITMAP
79FC00
73FF00
E7FF80
0F0780
0E03C0
1E01C0
1E01C0
1C01C0
1C01C0
0E01C0
0E0380
070380
078700
1FDFE0
1FDFE0
1FDFE0
ENDCHAR
STARTCHAR 0390
ENCODING 912
SWIDTH 270 0
DWIDTH 6 0
BBX 10 16 -2 0
BITMAP
CEC0
CCC0
D8C0
0000
0E00
0E00
0E00
0E00
0E00
0E00
0E00
0E00
0E00
0E00
0E00
0E00
ENDCHAR
STARTCHAR 0391
ENCODING 913
SWIDTH 720 0
DWIDTH 16 0
BBX 16 16 0 0
BITMAP
03C0
03C0
07E0
07E0
0FE0
0EF0
0E70
1E78
1C38
1C38
3FFC
3FFC
781E
701E
700E
F00F
ENDCHAR
STARTCHAR 0392
ENCODING 914
SWIDTH 720 0
DWIDTH 16 0
BBX 13 16 2 0
BITMAP
FFC0
FFE0
FFF0
E070
E070
E070
FFE0
FFC0
FFF0
E070
E038
E038
E078
FFF0
FFF0
FFC0
ENDCHAR
STARTCHAR 0393
ENCODING 915
SWIDTH 585 0
DWIDTH 13 0
BBX 11 16 2 0
BITMAP
FFE0
FFE0
FFE0
E000
E000
E000
E000
E000
E000
E000
E000
E000
E000
E000
E000
E000
ENDCHAR
STARTCHAR 0394
ENCODING 916
SWIDTH 720 0
DWIDTH 16 0
BBX 16 16 0 0
BITMAP
03C0
03C0
07E0
07E0
0FE0
0EF0
0E70
1C78
1C38
1C38
383C
381C
781E
7FFE
7FFE
FFFF
ENDCHAR
STARTCHAR 0395
ENCODING 917
SWIDTH 675 0
DWIDTH 15 0
BBX 12 16 2 0
BITMAP
FFE0
FFE0
FFE0
E000
E000
E000
FFE0
FFE0
FFE0
E000
E000
E000
E000
FFF0
FFF0
FFF0
ENDCHAR
STARTCHAR 0396
ENCODING 918
SWIDTH 630 0
DWIDTH 14 0
BBX 13 16 0 0
BITMAP
7FF8
7FF8
7FF8
00F0
01E0
03C0
03C0
0780
0F00
1E00
3C00
3C00
7800
FFF8
FFF8
FFF8
ENDCHAR
STARTCHAR 0397
ENCODING 919
SWIDTH 720 0
DWIDTH 16 0
BBX 12 16 2 0
BITMAP
E070
E070
E070
E070
E070
E070
FFF0
FFF0
FFF0
E070
E070
E070
E070
E070
E070
E070
ENDCHAR
STARTCHAR 0398
ENCODING 920
SWIDTH 765 0
DWIDTH 17 0
BBX 15 16 1 0
BITMAP
0FE0
1FF8
3FFC
783C
701E
F00E
E00E
E7CE
E7CE
E00E
F00E
F01E
783C
7EFC
3FF8
0FE0
ENDCHAR
STARTCHAR 0399
ENCODING 921
SWIDTH 270 0
DWIDTH 6 0
BBX 3 16 2 0
BITMAP
E0
E0
E0
E0
E0
E0
E0
E0
E0
E0
E0
E0
E0
E0
E0
E0
ENDCHAR
STARTCHAR 039A
ENCODING 922
SWIDTH 720 0
DWIDTH 16 0
BBX 14 16 2 0
BITMAP
E078
E0F0
E1E0
E3C0
E780
EF00
FF00
FF00
FF80
FBC0
F1C0
E1E0
E0F0
E0F0
E078
E03C
ENDCHAR
STARTCHAR 039B
ENCODING 923
SWIDTH 675 0
DWIDTH 15 0
BBX 15 16 0 0
BITMAP
0380
07C0
07C0
0FC0
0FE0
0EE0
1EE0
1CF0
1C70
3C70
3878
3838
783C
703C
701C
F01E
ENDCHAR
STARTCHAR 039C
ENCODING 924
SWIDTH 855 0
DWIDTH 19 0
BBX 15 16 2 0
BITMAP
F03E
F83E
F87E
F87E
FC7E
FC6E
FCEE
ECEE
EEEE
EECE
EFCE
E7CE
E7CE
E78E
E78E
E38E
ENDCHAR
STARTCHAR 039D
ENCODING 925
SWIDTH 720 0
DWIDTH 16 0
BBX 12 16 2 0
BITMAP
E070
F070
F070
F870
F870
FC70
FE70
EE70
EF70
E7F0
E3F0
E3F0
E1F0
E1F0
E0F0
E070
ENDCHAR
STARTCHAR 039E
ENCODING 926
SWIDTH 630 0
DWIDTH 14 0
BBX 12 16 1 0
BITMAP
FFF0
FFF0
FFF0
0000
0000
0000
7FE0
7FE0
7FE0
0000
0000
0000
0000
FFF0
FFF0
FFF0
ENDCHAR
STARTCHAR 039F
ENCODING 927
SWIDTH 765 0
DWIDTH 17 0
BBX 15 16 1 0
BITMAP
0FE0
1FF8
3FFC
783C
701E
F00E
E00E
E00E
E00E
E00E
F00E
F01E
783C
3EFC
3FF8
0FE0
ENDCHAR
STARTCHAR 03A0
ENCODING 928
SWIDTH 720 0
DWIDTH 16 0
BBX 12 16 2 0
BITMAP
FFF0
FFF0
FFF0
E070
E070
E070
E070
E070
E070
E070
E070
E070
E070
E070
E070
E070
ENDCHAR
STARTCHAR 03A1
ENCODING 929
SWIDTH 675 0
DWIDTH 15 0
BBX 12 16 2 0
BITMAP
FF80
FFE0
FFE0
E0F0
E0F0
E0F0
E0F0
FFE0
FFE0
FF80
E000
E000
E000
E000
E000
E000
ENDCHAR
STARTCHAR 03A3
ENCODING 931
SWIDTH 585 0
DWIDTH 13 0
BBX 12 16 1 0
BITMAP
FFE0
FFE0
FFE0
7800
7C00
3C00
1E00
0F00
0F00
1E00
3C00
7800
F000
FFF0
FFF0
FFF0
ENDCHAR
STARTCHAR 03A4
ENCODING 932
SWIDTH 630 0
DWIDTH 14 0
BBX 13 16 0 0
BITMAP
FFF8
FFF8
FFF8
0700
0700
0700
0700
0700
0700
0700
0700
0700
0700
0700
0700
0700
ENDCHAR
STARTCHAR 03A5
ENCODING 933
SWIDTH 675 0
DWIDTH 15 0
BBX 15 16 0 0
BITMAP
F01E
783C
7838
3C78
1C70
1EE0
0FE0
07C0
07C0
0380
0380
0380
0380
0380
0380
0380
ENDCHAR
STARTCHAR 03A6
ENCODING 934
SWIDTH 810 0
DWIDTH 18 0
BBX 16 17 1 -1
BITMAP
01C0
0FF0
3FFC
7FFE
79CF
F1CF
E1C7
E1C7
E1C7
E1C7
F1CF
79DE
3FFE
1FFC
07E0
01C0
01C0
ENDCHAR
STARTCHAR 03A7
ENCODING 935
SWIDTH 675 0
DWIDTH 15 0
BBX 14 16 0 0
BITMAP
703C
7838
3C78
1CF0
1EE0
0FE0
07C0
07C0
07C0
0FC0
0FE0
1EF0
3C70
3878
783C
F01C
ENDCHAR
STARTCHAR 03A8
ENCODING 936
SWIDTH 810 0
DWIDTH 18 0
BBX 16 16 1 0
BITMAP
E3C7
E3C7
E3C7
E3C7
E3C7
E3C7
E3C7
F3CF
7BDE
7FFE
1FF8
03C0
03C0
03C0
03C0
03C0
ENDCHAR
STARTCHAR 03A9
ENCODING 937
SWIDTH 810 0
DWIDTH 18 0
BBX 16 16 1 0
BITMAP
0FE0
1FF8
3FFC
781E
701E
F00E
F00E
F00E
F00E
700E
700E
381C
3C38
FEFF
FEFF
FEFF
ENDCHAR
STARTCHAR 03AA
ENCODING 938
SWIDTH 270 0
DWIDTH 6 0
BBX 8 20 -1 0
BITMAP
E7
E7
E7
00
1C
1C
1C
1C
1C
1C
1C
1C
1C
1C
1C
1C
1C
1C
1C
1C
ENDCHAR
STARTCHAR 03AB
ENCODING 939
SWIDTH 675 0
DWIDTH 15 0
BBX 15 20 0 0
BITMAP
0CE0
0CE0
0CE0
0000
F01E
783C
7838
3C78
1C70
1EE0
0FE0
07C0
07C0
0380
0380
0380
0380
0380
0380
0380
ENDCHAR
STARTCHAR 03AC
ENCODING 940
SWIDTH 630 0
DWIDTH 14 0
BBX 12 16 1 0
BITMAP
0380
0700
0600
0000
1C70
3F70
7FE0
F1E0
E0E0
E0E0
E0C0
E0E0
E1E0
71E0
7F60
3E70
ENDCHAR
STARTCHAR 03AD
ENCODING 941
SWIDTH 450 0
DWIDTH 10 0
BBX 9 16 1 0
BITMAP
0E00
1C00
1800
0000
1E00
7F80
FF00
E000
F000
7C00
7C00
F000
E000
E300
FF80
7F00
ENDCHAR
STARTCHAR 03AE
ENCODING 942
SWIDTH 630 0
DWIDTH 14 0
BBX 10 20 2 -4
BITMAP
0F00
0C00
1C00
0000
C700
DF80
FFC0
E1C0
E1C0
E1C0
E1C0
E1C0
E1C0
E1C0
E1C0
E1C0
01C0
01C0
01C0
01C0
ENDCHAR
STARTCHAR 03AF
ENCODING 943
SWIDTH 270 0
DWIDTH 6 0
BBX 4 16 2 0
BITMAP
70
E0
C0
00
E0
E0
E0
E0
E0
E0
E0
E0
E0
E0
E0
E0
ENDCHAR
STARTCHAR 03B0
ENCODING 944
SWIDTH 585 0
DWIDTH 13 0
BBX 11 16 1 0
BITMAP
EEE0
EEE0
ECE0
0000
E0E0
E0E0
E0E0
E0E0
E0E0
E0E0
E0E0
E0E0
F1C0
71C0
7FC0
3F00
ENDCHAR
STARTCHAR 03B1
ENCODING 945
SWIDTH 630 0
DWIDTH 14 0
BBX 12 12 1 0
BITMAP
1C70
3F70
7FE0
F1E0
E0E0
E0E0
E0C0
E0E0
E1E0
71E0
7F60
3E70
ENDCHAR
STARTCHAR 03B2
ENCODING 946
SWIDTH 630 0
DWIDTH 14 0
BBX 11 20 2 -4
BITMAP
3F00
7F80
F3C0
E1C0
E1C0
E180
E780
EF00
E3C0
E1C0
E1E0
E0E0
E1E0
F1C0
FFC0
EF80
E000
E000
E000
E000
ENDCHAR
STARTCHAR 03B3
ENCODING 947
SWIDTH 540 0
DWIDTH 12 0
BBX 12 16 0 -4
BITMAP
E070
7070
70E0
70E0
39E0
39C0
3DC0
1F80
1F80
0F80
0F00
0F00
0700
0700
0700
0700
ENDCHAR
STARTCHAR 03B4
ENCODING 948
SWIDTH 585 0
DWIDTH 13 0
BBX 12 16 1 0
BITMAP
7FE0
7FE0
7FE0
1C00
0F00
3F80
7FC0
F1E0
E0E0
E070
E070
E070
E0E0
71E0
7FC0
1F80
ENDCHAR
STARTCHAR 03B5
ENCODING 949
SWIDTH 495 0
DWIDTH 11 0
BBX 9 12 1 0
BITMAP
1E00
7F80
FF00
E000
F000
7C00
7C00
F000
E000
E300
FF80
7F00
ENDCHAR
STARTCHAR 03B6
ENCODING 950
SWIDTH 450 0
DWIDTH 10 0
BBX 9 21 1 -5
BITMAP
7F80
7F80
7F00
0E00
1C00
3800
3000
7000
E000
E000
E000
E000
E000
FC00
7F00
3F80
0380
0380
0F00
0F00
1800
ENDCHAR
STARTCHAR 03B7
ENCODING 951
SWIDTH 630 0
DWIDTH 14 0
BBX 10 16 2 -4
BITMAP
C700
DF80
FFC0
E1C0
E1C0
E1C0
E1C0
E1C0
E1C0
E1C0
E1C0
E1C0
01C0
01C0
01C0
01C0
ENDCHAR
STARTCHAR 03B8
ENCODING 952
SWIDTH 540 0
DWIDTH 12 0
BBX 10 16 1 0
BITMAP
3F00
7F80
7380
E1C0
E1C0
E1C0
E1C0
FFC0
FFC0
E1C0
E1C0
E1C0
E1C0
7380
7F80
3F00
ENDCHAR
STARTCHAR 03B9
ENCODING 953
SWIDTH 270 0
DWIDTH 6 0
BBX 3 12 2 0
BITMAP
E0
E0
E0
E0
E0
E0
E0
E0
E0
E0
E0
E0
ENDCHAR
STARTCHAR 03BA
ENCODING 954
SWIDTH 540 0
DWIDTH 12 0
BBX 10 12 2 0
BITMAP
E3C0
E780
EF00
FE00
FC00
F800
FC00
FE00
EF00
E700
E380
E3C0
ENDCHAR
STARTCHAR 03BB
ENCODING 955
SWIDTH 540 0
DWIDTH 12 0
BBX 12 16 0 0
BITMAP
1C00
1C00
0E00
0E00
0700
0F00
0F00
1F80
1F80
1DC0
39C0
39C0
38E0
70E0
70F0
E070
ENDCHAR
STARTCHAR 03BC
ENCODING 956
SWIDTH 630 0
DWIDTH 14 0
BBX 10 16 2 -4
BITMAP
E1C0
E1C0
E1C0
E1C0
E1C0
E1C0
E1C0
E1C0
E1C0
F3C0
FFC0
FFC0
E000
E000
E000
E000
ENDCHAR
STARTCHAR 03BD
ENCODING 957
SWIDTH 540 0
DWIDTH 12 0
BBX 12 12 0 0
BITMAP
E070
7070
70E0
70E0
39C0
39C0
1DC0
1F80
1F80
0F00
0F00
0700
ENDCHAR
STARTCHAR 03BE
ENCODING 958
SWIDTH 450 0
DWIDTH 10 0
BBX 9 21 1 -5
BITMAP
3F00
7F00
FC00
F000
7000
7F00
1F00
3E00
7000
E000
E000
E000
F000
FC00
7F00
1F80
0380
0780
0F00
0F00
1800
ENDCHAR
STARTCHAR 03BF
ENCODING 959
SWIDTH 630 0
DWIDTH 14 0
BBX 12 12 1 0
BITMAP
0F00
3FC0
7FE0
F0E0
E0F0
E070
E070
E070
F0E0
79E0
7FC0
1F80
ENDCHAR
STARTCHAR 03C0
ENCODING 960
SWIDTH 765 0
DWIDTH 17 0
BBX 15 12 1 0
BITMAP
FFFE
FFFE
FFFE
1C70
1C70
1C70
1C70
1C70
1C70
1C70
1C70
1C70
ENDCHAR
STARTCHAR 03C1
ENCODING 961
SWIDTH 630 0
DWIDTH 14 0
BBX 12 16 1 -4
BITMAP
0F00
3FC0
7FE0
70E0
F070
E070
E070
E070
F0F0
F9E0
FFC0
EF80
E000
E000
E000
E000
ENDCHAR
STARTCHAR 03C2
ENCODING 962
SWIDTH 540 0
DWIDTH 12 0
BBX 10 17 1 -5
BITMAP
0780
1FC0
3FC0
7800
E000
E000
E000
E000
F000
7E00
3F80
0FC0
01C0
01C0
0FC0
1F80
1E00
ENDCHAR
STARTCHAR 03C3
ENCODING 963
SWIDTH 675 0
DWIDTH 15 0
BBX 14 12 1 0
BITMAP
0FFC
3FFC
7FFC
F0E0
E0F0
E070
E070
E0F0
F0E0
79E0
7FC0
1F80
ENDCHAR
STARTCHAR 03C4
ENCODING 964
SWIDTH 450 0
DWIDTH 10 0
BBX 8 12 1 0
BITMAP
FF
FF
FF
3C
3C
3C
3C
3C
3C
3C
3C
3C
ENDCHAR
STARTCHAR 03C5
ENCODING 965
SWIDTH 585 0
DWIDTH 13 0
BBX 11 12 1 0
BITMAP
E0E0
E0E0
E0E0
E0E0
E0E0
E0E0
E0E0
E0E0
F1C0
71C0
7FC0
3F00
ENDCHAR
STARTCHAR 03C6
ENCODING 966
SWIDTH 720 0
DWIDTH 16 0
BBX 14 16 1 -4
BITMAP
19E0
3BF0
7BF8
F7BC
E71C
E71C
E71C
E71C
F73C
7F78
3FF0
1FE0
0700
0700
0700
0700
ENDCHAR
STARTCHAR 03C7
ENCODING 967
SWIDTH 585 0
DWIDTH 13 0
BBX 12 16 0 -4
BITMAP
F070
7070
78E0
38E0
1DC0
1DC0
0F80
0F80
0700
0F80
1F80
1DC0
3DC0
38E0
70F0
7070
ENDCHAR
STARTCHAR 03C8
ENCODING 968
SWIDTH 765 0
DWIDTH 17 0
BBX 14 16 1 -4
BITMAP
E39C
E39C
E39C
E39C
E39C
E39C
E39C
E39C
F39C
7BBC
7FF8
1FF0
0380
0380
0380
0380
ENDCHAR
STARTCHAR 03C9
ENCODING 969
SWIDTH 855 0
DWIDTH 19 0
BBX 17 12 1 0
BITMAP
700E00
700700
700700
E1C700
E1C380
E1C380
E1C380
E1C380
E1C780
F3E700
7F7F00
3E3E00
ENDCHAR
STARTCHAR 03CA
ENCODING 970
SWIDTH 270 0
DWIDTH 6 0
BBX 8 16 -1 0
BITMAP
E7
E7
00
00
1C
1C
1C
1C
1C
1C
1C
1C
1C
1C
1C
1C
ENDCHAR
STARTCHAR 03CB
ENCODING 971
SWIDTH 585 0
DWIDTH 13 0
BBX 11 16 1 0
BITMAP
3380
3380
0000
0000
E0E0
E0E0
E0E0
E0E0
E0E0
E0E0
E0E0
E0E0
F1C0
71C0
7FC0
3F00
ENDCHAR
STARTCHAR 03CC
ENCODING 972
SWIDTH 630 0
DWIDTH 14 0
BBX 12 16 1 0
BITMAP
0780
0600
0E00
0000
0F00
3FC0
7FE0
F0E0
E0F0
E070
E070
E070
F0E0
79E0
7FC0
1F80
ENDCHAR
STARTCHAR 03CD
ENCODING 973
SWIDTH 585 0
DWIDTH 13 0
BBX 11 16 1 0
BITMAP
0700
0600
0C00
0000
E0E0
E0E0
E0E0
E0E0
E0E0
E0E0
E0E0
E0E0
F1C0
71C0
7FC0
3F00
ENDCHAR
STARTCHAR 03CE
ENCODING 974
SWIDTH 855 0
DWIDTH 19 0
BBX 17 16 1 0
BITMAP
01C000
018000
030000
000000
700E00
700700
700700
E1C700
E1C380
E1C380
E1C380
E1C380
E1C780
F3E700
7F7F00
3E3E00
ENDCHAR
STARTCHAR 0401
ENCODING 1025
SWIDTH 675 0
DWIDTH 15 0
BBX 12 19 2 0
BITMAP
3180
3180
0000
FFE0
FFE0
FFE0
E000
E000
E000
FFE0
FFE0
FFE0
E000
E000
E000
E000
FFF0
FFF0
FFF0
ENDCHAR
STARTCHAR 0402
ENCODING 1026
SWIDTH 900 0
DWIDTH 20 0
BBX 18 16 1 0
BITMAP
FFF000
FFF000
FFF000
0E0000
0E0000
0E3C00
0FFF00
0FFF80
0FC780
0E03C0
0E01C0
0E01C0
0E03C0
0E1F80
0E1F00
0E3E00
ENDCHAR
STARTCHAR 0403
ENCODING 1027
SWIDTH 585 0
DWIDTH 13 0
BBX 11 20 2 0
BITMAP
0700
0E00
0C00
0000
FFE0
FFE0
FFE0
E000
E000
E000
E000
E000
E000
E000
E000
E000
E000
E000
E000
E000
ENDCHAR
STARTCHAR 0404
ENCODING 1028
SWIDTH 720 0
DWIDTH 16 0
BBX 14 16 1 0
BITMAP
0FE0
1FF0
3FF8
7838
703C
F000
E000
FF00
FF00
E000
F010
F03C
7838
7CF8
3FF0
0FE0
ENDCHAR
STARTCHAR 0405
ENCODING 1029
SWIDTH 675 0
DWIDTH 15 0
BBX 13 16 1 0
BITMAP
1FC0
7FE0
7FF0
F070
F070
7800
7F00
3FE0
0FF0
01F0
0078
E038
F078
7DF0
7FF0
1FC0
ENDCHAR
STARTCHAR 0406
ENCODING 1030
SWIDTH 270 0
DWIDTH 6 0
BBX 3 16 2 0
BITMAP
E0
E0
E0
E0
E0
E0
E0
E0
E0
E0
E0
E0
E0
E0
E0
E0
ENDCHAR
STARTCHAR 0407
ENCODING 1031
SWIDTH 270 0
DWIDTH 6 0
BBX 8 19 -1 0
BITMAP
E7
E7
00
1C
1C
1C
1C
1C
1C
1C
1C
1C
1C
1C
1C
1C
1C
1C
1C
ENDCHAR
STARTCHAR 0408
ENCODING 1032
SWIDTH 540 0
DWIDTH 12 0
BBX 11 16 0 0
BITMAP
01E0
01E0
01E0
01E0
01E0
01E0
01E0
01E0
01E0
01E0
01E0
E1E0
F1C0
7BC0
7FC0
3F00
ENDCHAR
STARTCHAR 0409
ENCODING 1033
SWIDTH 1080 0
DWIDTH 24 0
BBX 23 16 0 0
BITMAP
3FF800
3FF800
3FF800
3C3800
3C3800
3C3800
3C3FE0
3C3FF8
3C3FFC
3C381E
3C380E
3C380E
3C380E
F83FFE
F83FFC
F03FF8
ENDCHAR
STARTCHAR 040A
ENCODING 1034
SWIDTH 1080 0
DWIDTH 24 0
BBX 20 16 2 0
BITMAP
E1C000
E1C000
E1C000
E1C000
E1C000
E1C000
FFFF00
FFFFE0
FFFFF0
E1C0F0
E1C070
E1C070
E1C070
E1FFF0
E1FFE0
E1FFC0
ENDCHAR
STARTCHAR 040B
ENCODING 1035
SWIDTH 855 0
DWIDTH 19 0
BBX 17 16 1 0
BITMAP
FFF000
FFF000
FFF000
0F0000
0F0000
0F7800
0FFE00
0FFF00
0F0780
0F0780
0F0380
0F0380
0F0380
0F0380
0F0380
0F0380
ENDCHAR
STARTCHAR 040C
ENCODING 1036
SWIDTH 630 0
DWIDTH 14 0
BBX 11 20 2 0
BITMAP
0F00
0E00
1C00
0000
E0E0
E1E0
E3C0
E300
E700
E700
EE00
FC00
FE00
EF00
E780
E780
E3C0
E3C0
E1E0
E1E0
ENDCHAR
STARTCHAR 040D
ENCODING 1037
SWIDTH 720 0
DWIDTH 16 0
BBX 12 20 2 0
BITMAP
1C00
0C00
0600
0000
E070
E0F0
E0F0
E1F0
E3F0
E3F0
E7F0
E770
EF70
FE70
FC70
FC70
F870
F070
F070
E070
ENDCHAR
STARTCHAR 040E
ENCODING 1038
SWIDTH 630 0
DWIDTH 14 0
BBX 14 20 0 0
BITMAP
0840
0CC0
0780
0000
F03C
7038
7838
3870
3C70
1CE0
1CE0
0EE0
0FC0
07C0
0780
0380
0700
0700
3E00
3C00
ENDCHAR
STARTCHAR 040F
ENCODING 1039
SWIDTH 720 0
DWIDTH 16 0
BBX 12 20 2 -4
BITMAP
E070
E070
E070
E070
E070
E070
E070
E070
E070
E070
E070
E070
E070
FFF0
FFF0
FFF0
0600
0600
0600
0600
ENDCHAR
STARTCHAR 0410
ENCODING 1040
SWIDTH 720 0
DWIDTH 16 0
BBX 16 16 0 0
BITMAP
03C0
03C0
07E0
07E0
0FE0
0EF0
0E70
1E78
1C38
1C38
3FFC
3FFC
781E
701E
700E
F00F
ENDCHAR
STARTCHAR 0411
ENCODING 1041
SWIDTH 720 0
DWIDTH 16 0
BBX 13 16 2 0
BITMAP
FFF0
FFF0
FFF0
E000
E000
E000
FF00
FFE0
FFF0
E078
E038
E038
E078
FFF0
FFF0
FFC0
ENDCHAR
STARTCHAR 0412
ENCODING 1042
SWIDTH 720 0
DWIDTH 16 0
BBX 13 16 2 0
BITMAP
FFC0
FFE0
FFF0
E070
E070
E070
FFE0
FFC0
FFF0
E070
E038
E038
E078
FFF0
FFF0
FFC0
ENDCHAR
STARTCHAR 0413
ENCODING 1043
SWIDTH 585 0
DWIDTH 13 0
BBX 11 16 2 0
BITMAP
FFE0
FFE0
FFE0
E000
E000
E000
E000
E000
E000
E000
E000
E000
E000
E000
E000
E000
ENDCHAR
STARTCHAR 0414
ENCODING 1044
SWIDTH 720 0
DWIDTH 16 0
BBX 15 19 0 -3
BITMAP
1FFC
1FFC
1FFC
1C1C
1C1C
1C1C
1C1C
1C1C
1C1C
3C1C
381C
381C
381C
FFFE
FFFE
FFFE
E006
E006
E006
ENDCHAR
STARTCHAR 0415
ENCODING 1045
SWIDTH 675 0
DWIDTH 15 0
BBX 12 16 2 0
BITMAP
FFE0
FFE0
FFE0
E000
E000
E000
FFE0
FFE0
FFE0
E000
E000
E000
E000
FFF0
FFF0
FFF0
ENDCHAR
STARTCHAR 0416
ENCODING 1046
SWIDTH 900 0
DWIDTH 20 0
BBX 20 16 0 0
BITMAP
F0F0F0
F8F1F0
3CF1C0
1CF380
0CF380
0EF700
0EF700
07FE00
0FFF00
0EF700
1EF780
3CF3C0
3CF3C0
78F1E0
78F1E0
F0F0F0
ENDCHAR
STARTCHAR 0417
ENCODING 1047
SWIDTH 630 0
DWIDTH 14 0
BBX 12 16 1 0
BITMAP
3F80
7FC0
FBE0
E0E0
00E0
00E0
01C0
0F80
0FC0
01E0
00F0
00F0
E0F0
F1E0
7FE0
3F80
ENDCHAR
STARTCHAR 0418
ENCODING 1048
SWIDTH 720 0
DWIDTH 16 0
BBX 12 16 2 0
BITMAP
E070
E0F0
E0F0
E1F0
E3F0
E3F0
E7F0
E770
EF70
FE70
FC70
FC70
F870
F070
F070
E070
ENDCHAR
STARTCHAR 0419
ENCODING 1049
SWIDTH 720 0
DWIDTH 16 0
BBX 12 20 2 0
BITMAP
1080
1980
0F00
0000
E070
E0F0
E0F0
E1F0
E3F0
E3F0
E7F0
E770
EF70
FE70
FC70
FC70
F870
F070
F070
E070
ENDCHAR
STARTCHAR 041A
ENCODING 1050
SWIDTH 630 0
DWIDTH 14 0
BBX 11 16 2 0
BITMAP
E0E0
E1E0
E3C0
E300
E700
E700
EE00
FC00
FE00
EF00
E780
E780
E3C0
E3C0
E1E0
E1E0
ENDCHAR
STARTCHAR 041B
ENCODING 1051
SWIDTH 720 0
DWIDTH 16 0
BBX 14 16 0 0
BITMAP
1FFC
1FFC
1FFC
1C1C
1C1C
1C1C
1C1C
1C1C
1C1C
1C1C
1C1C
1C1C
1C1C
3C1C
F81C
F81C
ENDCHAR
STARTCHAR 041C
ENCODING 1052
SWIDTH 855 0
DWIDTH 19 0
BBX 15 16 2 0
BITMAP
F03E
F83E
F87E
F87E
FC7E
FC6E
FCEE
ECEE
EEEE
EECE
EFCE
E7CE
E7CE
E78E
E78E
E38E
ENDCHAR
STARTCHAR 041D
ENCODING 1053
SWIDTH 720 0
DWIDTH 16 0
BBX 12 16 2 0
BITMAP
E070
E070
E070
E070
E070
E070
FFF0
FFF0
FFF0
E070
E070
E070
E070
E070
E070
E070
ENDCHAR
STARTCHAR 041E
ENCODING 1054
SWIDTH 765 0
DWIDTH 17 0
BBX 15 16 1 0
BITMAP
0FE0
1FF8
3FFC
783C
701E
F00E
E00E
E00E
E00E
E00E
F00E
F01E
783C
3EFC
3FF8
0FE0
ENDCHAR
STARTCHAR 041F
ENCODING 1055
SWIDTH 720 0
DWIDTH 16 0
BBX 12 16 2 0
BITMAP
FFF0
FFF0
FFF0
E070
E070
E070
E070
E070
E070
E070
E070
E070
E070
E070
E070
E070
ENDCHAR
STARTCHAR 0420
ENCODING 1056
SWIDTH 675 0
DWIDTH 15 0
BBX 12 16 2 0
BITMAP
FF80
FFE0
FFE0
E0F0
E0F0
E0F0
E0F0
FFE0
FFE0
FF80
E000
E000
E000
E000
E000
E000
ENDCHAR
STARTCHAR 0421
ENCODING 1057
SWIDTH 720 0
DWIDTH 16 0
BBX 14 16 1 0
BITMAP
0FE0
1FF0
3FF8
783C
703C
F000
E000
E000
E000
E000
F010
703C
7838
3EF8
3FF0
0FE0
ENDCHAR
STARTCHAR 0422
ENCODING 1058
SWIDTH 630 0
DWIDTH 14 0
BBX 13 16 0 0
BITMAP
FFF8
FFF8
FFF8
0700
0700
0700
0700
0700
0700
0700
0700
0700
0700
0700
0700
0700
ENDCHAR
STARTCHAR 0423
ENCODING 1059
SWIDTH 630 0
DWIDTH 14 0
BBX 14 16 0 0
BITMAP
F03C
7038
7838
3870
3C70
1CE0
1CE0
0EE0
0FC0
07C0
0780
0380
0700
0700
3E00
3C00
ENDCHAR
STARTCHAR 0424
ENCODING 1060
SWIDTH 855 0
DWIDTH 19 0
BBX 17 16 1 0
BITMAP
01C000
01C000
1FFC00
3FFE00
79DF00
F1C780
E1C380
E1C380
E1C380
E1C380
F1C780
7FFF00
3FFE00
1FFC00
01C000
01C000
ENDCHAR
STARTCHAR 0425
ENCODING 1061
SWIDTH 675 0
DWIDTH 15 0
BBX 14 16 0 0
BITMAP
703C
7838
3C78
1CF0
1EE0
0FE0
07C0
07C0
07C0
0FC0
0FE0
1EF0
3C70
3878
783C
F01C
ENDCHAR
STARTCHAR 0426
ENCODING 1062
SWIDTH 720 0
DWIDTH 16 0
BBX 14 19 2 -3
BITMAP
E070
E070
E070
E070
E070
E070
E070
E070
E070
E070
E070
E070
E070
FFFC
FFFC
FFFC
001C
001C
001C
ENDCHAR
STARTCHAR 0427
ENCODING 1063
SWIDTH 720 0
DWIDTH 16 0
BBX 13 16 1 0
BITMAP
F038
F038
F038
F038
F038
F038
F038
7878
7FF8
3FF8
0038
0038
0038
0038
0038
0038
ENDCHAR
STARTCHAR 0428
ENCODING 1064
SWIDTH 990 0
DWIDTH 22 0
BBX 19 16 2 0
BITMAP
E1E1E0
E1E1E0
E1E1E0
E1E1E0
E1E1E0
E1E1E0
E1E1E0
E1E1E0
E1E1E0
E1E1E0
E1E1E0
E1E1E0
E1E1E0
FFFFE0
FFFFE0
FFFFE0
ENDCHAR
STARTCHAR 0429
ENCODING 1065
SWIDTH 1035 0
DWIDTH 23 0
BBX 20 19 2 -3
BITMAP
E1E1E0
E1E1E0
E1E1E0
E1E1E0
E1E1E0
E1E1E0
E1E1E0
E1E1E0
E1E1E0
E1E1E0
E1E1E0
E1E1E0
E1E1E0
FFFFF0
FFFFF0
FFFFF0
000070
000070
000070
ENDCHAR
STARTCHAR 042A
ENCODING 1066
SWIDTH 855 0
DWIDTH 19 0
BBX 18 16 0 0
BITMAP
FF0000
FF0000
FF0000
070000
070000
070000
07FC00
07FF00
07FF80
0703C0
0701C0
0701C0
0701C0
07FFC0
07FF80
07FF00
ENDCHAR
STARTCHAR 042B
ENCODING 1067
SWIDTH 990 0
DWIDTH 22 0
BBX 18 16 2 0
BITMAP
E001C0
E001C0
E001C0
E001C0
E001C0
E001C0
FF01C0
FFE1C0
FFF1C0
E079C0
E039C0
E039C0
E079C0
FFF1C0
FFF1C0
FFE1C0
ENDCHAR
STARTCHAR 042C
ENCODING 1068
SWIDTH 720 0
DWIDTH 16 0
BBX 13 16 2 0
BITMAP
E000
E000
E000
E000
E000
E000
FF00
FFE0
FFF0
E078
E038
E038
E078
FFF0
FFF0
FFC0
ENDCHAR
STARTCHAR 042D
ENCODING 1069
SWIDTH 720 0
DWIDTH 16 0
BBX 14 16 1 0
BITMAP
1FC0
3FE0
7FF0
F078
E038
003C
003C
07FC
07FC
003C
203C
F038
F078
7DF0
3FE0
1FC0
ENDCHAR
STARTCHAR 042E
ENCODING 1070
SWIDTH 1035 0
DWIDTH 23 0
BBX 20 16 2 0
BITMAP
E07F00
E0FF80
E1FFC0
E3C1E0
E380E0
E380F0
E780F0
FF8070
FF8070
E780F0
E380F0
E380E0
E3C1E0
E1F3C0
E0FFC0
E07F00
ENDCHAR
STARTCHAR 042F
ENCODING 1071
SWIDTH 720 0
DWIDTH 16 0
BBX 14 16 0 0
BITMAP
0FFC
3FFC
3FFC
781C
781C
781C
3C1C
3FFC
0FFC
079C
0F1C
1E1C
3C1C
3C1C
781C
F01C
ENDCHAR
STARTCHAR 0430
ENCODING 1072
SWIDTH 540 0
DWIDTH 12 0
BBX 10 12 1 0
BITMAP
1F00
7F80
FFC0
E1C0
01C0
1FC0
7FC0
E1C0
E1C0
E3C0
FFC0
7DC0
ENDCHAR
STARTCHAR 0431
ENCODING 1073
SWIDTH 630 0
DWIDTH 14 0
BBX 12 16 1 0
BITMAP
0FE0
3FE0
7F00
6000
C000
DF80
FFC0
F1E0
E0E0
E070
E070
E0F0
F0E0
79E0
3FC0
1F80
ENDCHAR
STARTCHAR 0432
ENCODING 1074
SWIDTH 630 0
DWIDTH 14 0
BBX 11 12 2 0
BITMAP
FE00
FFC0
E3C0
E1C0
E1C0
FFC0
FF80
E1C0
E0E0
E1E0
FFC0
FF80
ENDCHAR
STARTCHAR 0433
ENCODING 1075
SWIDTH 405 0
DWIDTH 9 0
BBX 8 12 1 0
BITMAP
FF
FF
FF
F0
F0
F0
F0
F0
F0
F0
F0
F0
ENDCHAR
STARTCHAR 0434
ENCODING 1076
SWIDTH 630 0
DWIDTH 14 0
BBX 14 15 0 -3
BITMAP
1FF0
1FF0
1FF0
1C70
1C70
1870
1870
3870
3870
7070
FFFC
FFFC
C01C
C01C
C01C
ENDCHAR
STARTCHAR 0435
ENCODING 1077
SWIDTH 540 0
DWIDTH 12 0
BBX 10 12 1 0
BITMAP
1E00
3F80
7F80
E1C0
E1C0
FFC0
FFC0
E000
E100
F1C0
7F80
3F00
ENDCHAR
STARTCHAR 0436
ENCODING 1078
SWIDTH 720 0
DWIDTH 16 0
BBX 16 12 0 0
BITMAP
C386
F38E
739E
3B98
1BB8
1FF0
1FF0
3BB8
3B9C
739C
738E
E38F
ENDCHAR
STARTCHAR 0437
ENCODING 1079
SWIDTH 495 0
DWIDTH 11 0
BBX 10 12 0 0
BITMAP
1E00
3F80
73C0
21C0
01C0
0780
0780
03C0
01C0
F1C0
7FC0
3F80
ENDCHAR
STARTCHAR 0438
ENCODING 1080
SWIDTH 630 0
DWIDTH 14 0
BBX 10 12 2 0
BITMAP
C1C0
C3C0
C3C0
C7C0
C7C0
CFC0
DDC0
D9C0
F9C0
F1C0
E1C0
E1C0
ENDCHAR
STARTCHAR 0439
ENCODING 1081
SWIDTH 630 0
DWIDTH 14 0
BBX 10 16 2 0
BITMAP
2100
3F00
1E00
0000
C1C0
C3C0
C3C0
C7C0
C7C0
CFC0
DDC0
D9C0
F9C0
F1C0
E1C0
E1C0
ENDCHAR
STARTCHAR 043A
ENCODING 1082
SWIDTH 495 0
DWIDTH 11 0
BBX 10 12 1 0
BITMAP
F0C0
F3C0
F380
F700
F600
FE00
FE00
F700
F700
F380
F380
F1C0
ENDCHAR
STARTCHAR 043B
ENCODING 1083
SWIDTH 630 0
DWIDTH 14 0
BBX 13 12 0 0
BITMAP
3FF8
3FF8
3FF8
3838
3838
3838
3838
3838
3838
3838
F838
F838
ENDCHAR
STARTCHAR 043C
ENCODING 1084
SWIDTH 720 0
DWIDTH 16 0
BBX 13 12 2 0
BITMAP
E078
F078
F0F8
F8F8
F8F8
D9F8
DDF8
DDB8
CFB8
CF38
CF38
C738
ENDCHAR
STARTCHAR 043D
ENCODING 1085
SWIDTH 585 0
DWIDTH 13 0
BBX 11 12 1 0
BITMAP
F0E0
F0E0
F0E0
F0E0
F0E0
FFE0
FFE0
F0E0
F0E0
F0E0
F0E0
F0E0
ENDCHAR
STARTCHAR 043E
ENCODING 1086
SWIDTH 630 0
DWIDTH 14 0
BBX 12 12 1 0
BITMAP
0F00
3FC0
7FE0
F0E0
E0F0
E070
E070
E070
F0E0
79E0
7FC0
1F80
ENDCHAR
STARTCHAR 043F
ENCODING 1087
SWIDTH 585 0
DWIDTH 13 0
BBX 11 12 1 0
BITMAP
FFE0
FFE0
FFE0
F0E0
F0E0
F0E0
F0E0
F0E0
F0E0
F0E0
F0E0
F0E0
ENDCHAR
STARTCHAR 0440
ENCODING 1088
SWIDTH 630 0
DWIDTH 14 0
BBX 11 16 2 -4
BITMAP
CF00
DF80
FFC0
E1C0
E1E0
E0E0
E0E0
E0E0
E1C0
F3C0
FF80
EF00
E000
E000
E000
E000
ENDCHAR
STARTCHAR 0441
ENCODING 1089
SWIDTH 540 0
DWIDTH 12 0
BBX 11 12 1 0
BITMAP
0F00
3F80
7FC0
F1E0
E000
E000
E000
E000
E0E0
71C0
7FC0
3F80
ENDCHAR
STARTCHAR 0442
ENCODING 1090
SWIDTH 495 0
DWIDTH 11 0
BBX 11 12 0 0
BITMAP
FFE0
FFE0
FFE0
0E00
0E00
0E00
0E00
0E00
0E00
0E00
0E00
0E00
ENDCHAR
STARTCHAR 0443
ENCODING 1091
SWIDTH 540 0
DWIDTH 12 0
BBX 12 17 0 -5
BITMAP
E070
70F0
70E0
70E0
38E0
39C0
39C0
1D80
1F80
0F80
0F00
0F00
0F00
0E00
7E00
7C00
7000
ENDCHAR
STARTCHAR 0444
ENCODING 1092
SWIDTH 855 0
DWIDTH 19 0
BBX 18 20 1 -4
BITMAP
01C000
01C000
01C000
01C000
1DCE00
3FDF00
7FFF80
F1E380
E1C380
E1C380
E1C3C0
E1C380
E1E380
73E780
7FFF00
3DDE00
01C000
01C000
01C000
01C000
ENDCHAR
STARTCHAR 0445
ENCODING 1093
SWIDTH 540 0
DWIDTH 12 0
BBX 12 12 0 0
BITMAP
F0F0
78E0
39C0
3FC0
1F80
0F00
0F00
1F80
1FC0
39C0
79E0
F0F0
ENDCHAR
STARTCHAR 0446
ENCODING 1094
SWIDTH 630 0
DWIDTH 14 0
BBX 12 15 1 -3
BITMAP
F0E0
F0E0
F0E0
F0E0
F0E0
F0E0
F0E0
F0E0
F0E0
F0E0
FFF0
FFF0
0030
0030
0030
ENDCHAR
STARTCHAR 0447
ENCODING 1095
SWIDTH 585 0
DWIDTH 13 0
BBX 10 12 1 0
BITMAP
E1C0
E1C0
E1C0
E1C0
E1C0
71C0
7FC0
1FC0
01C0
01C0
01C0
01C0
ENDCHAR
STARTCHAR 0448
ENCODING 1096
SWIDTH 855 0
DWIDTH 19 0
BBX 15 12 2 0
BITMAP
C38E
C38E
C38E
C38E
C38E
C38E
C38E
C38E
C38E
C38E
FFFE
FFFE
ENDCHAR
STARTCHAR 0449
ENCODING 1097
SWIDTH 855 0
DWIDTH 19 0
BBX 16 15 2 -3
BITMAP
C38E
C38E
C38E
C38E
C38E
C38E
C38E
C38E
C38E
C38E
FFFF
FFFF
0003
0003
0003
ENDCHAR
STARTCHAR 044A
ENCODING 1098
SWIDTH 720 0
DWIDTH 16 0
BBX 15 12 0 0
BITMAP
FE00
FE00
FE00
0E00
0E00
0FF8
0FFE
0E0E
0E0E
0E0E
0FFE
0FFC
ENDCHAR
STARTCHAR 044B
ENCODING 1099
SWIDTH 855 0
DWIDTH 19 0
BBX 16 12 2 0
BITMAP
E00F
E00F
E00F
E00F
E00F
FF0F
FFCF
E1EF
E0EF
E1EF
FFCF
FF8F
ENDCHAR
STARTCHAR 044C
ENCODING 1100
SWIDTH 630 0
DWIDTH 14 0
BBX 11 12 2 0
BITMAP
E000
E000
E000
E000
E000
FF00
FFC0
E1E0
E0E0
E1E0
FFC0
FF80
ENDCHAR
STARTCHAR 044D
ENCODING 1101
SWIDTH 540 0
DWIDTH 12 0
BBX 10 12 1 0
BITMAP
1E00
7F80
FF80
E1C0
01C0
0FC0
0FC0
01C0
E1C0
E3C0
7F80
3F00
ENDCHAR
STARTCHAR 044E
ENCODING 1102
SWIDTH 855 0
DWIDTH 19 0
BBX 16 12 2 0
BITMAP
E070
E1FC
E3FE
E78F
E707
FF07
FF07
FF07
E707
E38E
E3FE
E1FC
ENDCHAR
STARTCHAR 044F
ENCODING 1103
SWIDTH 585 0
DWIDTH 13 0
BBX 11 12 0 0
BITMAP
07E0
3FE0
78E0
70E0
70E0
7FE0
3FE0
1EE0
3CE0
38E0
70E0
F0E0
ENDCHAR
STARTCHAR 0451
ENCODING 1105
SWIDTH 540 0
DWIDTH 12 0
BBX 10 16 1 0
BITMAP
7380
7380
0000
0000
1E00
3F80
7F80
E1C0
E1C0
FFC0
FFC0
E000
E100
F1C0
7F80
3F00
ENDCHAR
STARTCHAR 0452
ENCODING 1106
SWIDTH 630 0
DWIDTH 14 0
BBX 12 21 0 -5
BITMAP
3800
FF00
FF00
3800
39C0
3FE0
3FF0
3870
3870
3870
3870
3870
3870
3870
3870
3870
0070
0070
01F0
01E0
01C0
ENDCHAR
STARTCHAR 0453
ENCODING 1107
SWIDTH 405 0
DWIDTH 9 0
BBX 8 16 1 0
BITMAP
1C
18
30
00
FF
FF
FF
F0
F0
F0
F0
F0
F0
F0
F0
F0
ENDCHAR
STARTCHAR 0454
ENCODING 1108
SWIDTH 540 0
DWIDTH 12 0
BBX 10 12 1 0
BITMAP
1E00
3F80
7FC0
F1C0
E000
FC00
FC00
E000
E0C0
71C0
7FC0
3F80
ENDCHAR
STARTCHAR 0455
ENCODING 1109
SWIDTH 540 0
DWIDTH 12 0
BBX 10 12 1 0
BITMAP
1E00
7F80
F3C0
E180
F800
FF00
3FC0
07C0
61C0
E1C0
FFC0
3F00
ENDCHAR
STARTCHAR 0456
ENCODING 1110
SWIDTH 270 0
DWIDTH 6 0
BBX 3 16 2 0
BITMAP
E0
E0
E0
00
E0
E0
E0
E0
E0
E0
E0
E0
E0
E0
E0
E0
ENDCHAR
STARTCHAR 0457
ENCODING 1111
SWIDTH 270 0
DWIDTH 6 0
BBX 8 16 -1 0
BITMAP
E7
E7
00
00
1C
1C
1C
1C
1C
1C
1C
1C
1C
1C
1C
1C
ENDCHAR
STARTCHAR 0458
ENCODING 1112
SWIDTH 270 0
DWIDTH 6 0
BBX 6 21 -1 -5
BITMAP
1C
1C
1C
00
1C
1C
1C
1C
1C
1C
1C
1C
1C
1C
1C
1C
3C
3C
F8
F8
60
ENDCHAR
STARTCHAR 0459
ENCODING 1113
SWIDTH 990 0
DWIDTH 22 0
BBX 21 12 0 0
BITMAP
3FF800
3FF800
3FF800
3C3800
3C3800
3C3FC0
3C3FF0
3C3870
383838
383878
F83FF0
F03FE0
ENDCHAR
STARTCHAR 045A
ENCODING 1114
SWIDTH 900 0
DWIDTH 20 0
BBX 17 12 2 0
BITMAP
E38000
E38000
E38000
E38000
E38000
FFFF00
FFFF80
E38780
E38380
E38380
E3FF80
E3FF00
ENDCHAR
STARTCHAR 045B
ENCODING 1115
SWIDTH 630 0
DWIDTH 14 0
BBX 12 16 0 0
BITMAP
3800
FF00
FF00
3800
39C0
3FE0
3FF0
3870
3870
3870
3870
3870
3870
3870
3870
3870
ENDCHAR
STARTCHAR 045C
ENCODING 1116
SWIDTH 495 0
DWIDTH 11 0
BBX 10 16 1 0
BITMAP
0F00
0E00
1C00
0000
F0C0
F3C0
F380
F700
F600
FE00
FE00
F700
F700
F380
F380
F1C0
ENDCHAR
STARTCHAR 045D
ENCODING 1117
SWIDTH 630 0
DWIDTH 14 0
BBX 10 16 2 0
BITMAP
3800
1800
0C00
0000
C1C0
C3C0
C3C0
C7C0
C7C0
CFC0
DDC0
D9C0
F9C0
F1C0
E1C0
E1C0
ENDCHAR
STARTCHAR 045E
ENCODING 1118
SWIDTH 540 0
DWIDTH 12 0
BBX 12 21 0 -5
BITMAP
1080
1F80
0F00
0000
E070
70F0
70E0
70E0
38E0
39C0
39C0
1D80
1F80
0F80
0F00
0F00
0F00
0E00
7E00
7C00
7000
ENDCHAR
STARTCHAR 045F
ENCODING 1119
SWIDTH 585 0
DWIDTH 13 0
BBX 11 15 1 -3
BITMAP
F0E0
F0E0
F0E0
F0E0
F0E0
F0E0
F0E0
F0E0
F0E0
F0E0
FFE0
FFE0
0E00
0E00
0E00
ENDCHAR
STARTCHAR 0490
ENCODING 1168
SWIDTH 495 0
DWIDTH 11 0
BBX 8 19 2 0
BITMAP
03
03
03
FF
FF
FF
E0
E0
E0
E0
E0
E0
E0
E0
E0
E0
E0
E0
E0
ENDCHAR
STARTCHAR 0491
ENCODING 1169
SWIDTH 450 0
DWIDTH 10 0
BBX 8 15 1 0
BITMAP
03
03
03
FF
FF
FF
F0
F0
F0
F0
F0
F0
F0
F0
F0
ENDCHAR
STARTCHAR 0492
ENCODING 1170
SWIDTH 585 0
DWIDTH 13 0
BBX 13 16 0 0
BITMAP
3FF8
3FF8
3FF8
3800
3800
3800
3800
FF00
FF00
3800
3800
3800
3800
3800
3800
3800
ENDCHAR
STARTCHAR 0493
ENCODING 1171
SWIDTH 405 0
DWIDTH 9 0
BBX 9 12 0 0
BITMAP
7F80
7F80
7F80
7800
7800
FE00
FE00
7800
7800
7800
7800
7800
ENDCHAR
STARTCHAR 0496
ENCODING 1174
SWIDTH 900 0
DWIDTH 20 0
BBX 20 19 0 -3
BITMAP
F0F0F0
F8F1F0
3CF1C0
1CF380
0CF380
0EF700
0FF700
07FE00
0FFF00
0EF700
1EF780
3CF3C0
3CF3C0
78F1F0
78F1F0
F0F0F0
000070
000070
000070
ENDCHAR
STARTCHAR 0497
ENCODING 1175
SWIDTH 720 0
DWIDTH 16 0
BBX 16 15 0 -3
BITMAP
C386
F38E
739E
3B98
1BB8
1FF0
1FF0
3BB8
3B9C
739E
738F
E38F
0007
0007
0007
ENDCHAR
STARTCHAR 049A
ENCODING 1178
SWIDTH 630 0
DWIDTH 14 0
BBX 11 19 2 -3
BITMAP
E0E0
E1E0
E3C0
E300
E700
E700
EE00
FC00
FE00
EF00
E780
E780
E3C0
E3E0
E1E0
E1E0
0060
0060
0060
ENDCHAR
STARTCHAR 049B
ENCODING 1179
SWIDTH 495 0
DWIDTH 11 0
BBX 10 15 1 -3
BITMAP
F0C0
F3C0
F380
F700
F600
FE00
FE00
F700
F700
F380
F3C0
F1C0
00C0
00C0
00C0
ENDCHAR
STARTCHAR 049C
ENCODING 1180
SWIDTH 630 0
DWIDTH 14 0
BBX 11 16 2 0
BITMAP
E0E0
E1E0
EBC0
EB00
EF00
EF00
EE00
FC00
FE00
EF00
EF80
EF80
EBC0
EBC0
E1E0
E1E0
ENDCHAR
STARTCHAR 049D
ENCODING 1181
SWIDTH 495 0
DWIDTH 11 0
BBX 10 12 1 0
BITMAP
F0C0
F3C0
FB80
FF00
FE00
FE00
FE00
FF00
FF00
FB80
FB80
F1C0
ENDCHAR
STARTCHAR 04A2
ENCODING 1186
SWIDTH 720 0
DWIDTH 16 0
BBX 14 19 2 -3
BITMAP
E070
E070
E070
E070
E070
E070
FFF0
FFF0
FFF0
E070
E070
E070
E070
E07C
E07C
E07C
001C
001C
001C
ENDCHAR
STARTCHAR 04A3
ENCODING 1187
SWIDTH 585 0
DWIDTH 13 0
BBX 12 15 1 -3
BITMAP
F0E0
F0E0
F0E0
F0E0
F0E0
FFE0
FFE0
F0E0
F0E0
F0E0
F0F0
F0F0
0030
0030
0030
ENDCHAR
STARTCHAR 04AE
ENCODING 1198
SWIDTH 540 0
DWIDTH 12 0
BBX 12 16 0 0
BITMAP
F070
70F0
70E0
39E0
39C0
1FC0
1F80
0F80
0F00
0700
0700
0700
0700
0700
0700
0700
ENDCHAR
STARTCHAR 04AF
ENCODING 1199
SWIDTH 540 0
DWIDTH 12 0
BBX 12 16 0 -4
BITMAP
E070
7070
70E0
70E0
38E0
39C0
19C0
1D80
1F80
0F80
0F00
0700
0700
0700
0700
0700
ENDCHAR
STARTCHAR 04B0
ENCODING 1200
SWIDTH 540 0
DWIDTH 12 0
BBX 12 16 0 0
BITMAP
F070
70F0
70E0
39E0
39C0
1FC0
1F80
7FF0
7FF0
0700
0700
0700
0700
0700
0700
0700
ENDCHAR
STARTCHAR 04B1
ENCODING 1201
SWIDTH 540 0
DWIDTH 12 0
BBX 12 16 0 -4
BITMAP
E070
7070
70E0
70E0
38E0
39C0
19C0
1D80
1F80
0F80
0F00
0700
7FE0
7FE0
0700
0700
ENDCHAR
STARTCHAR 04B2
ENCODING 1202
SWIDTH 675 0
DWIDTH 15 0
BBX 15 19 0 -3
BITMAP
703C
7838
3C78
1CF0
1EE0
0FE0
07C0
07C0
07C0
0FC0
0FE0
1EF0
3C70
387E
783E
F01E
000E
000E
000E
ENDCHAR
STARTCHAR 04B3
ENCODING 1203
SWIDTH 540 0
DWIDTH 12 0
BBX 12 15 0 -3
BITMAP
F0F0
78E0
39C0
3FC0
1F80
0F00
0F00
1F80
1FC0
39C0
79F0
F0F0
0030
0030
0030
ENDCHAR
STARTCHAR 04B8
ENCODING 1208
SWIDTH 720 0
DWIDTH 16 0
BBX 13 16 1 0
BITMAP
F038
F038
F038
F338
F338
F338
F338
7B78
7FF8
3FF8
0338
0338
0338
0338
0038
0038
ENDCHAR
STARTCHAR 04B9
ENCODING 1209
SWIDTH 585 0
DWIDTH 13 0
BBX 10 12 1 0
BITMAP
E1C0
E1C0
E1C0
E5C0
E5C0
75C0
7FC0
1FC0
05C0
05C0
01C0
01C0
ENDCHAR
STARTCHAR 04BA
ENCODING 1210
SWIDTH 720 0
DWIDTH 16 0
BBX 12 16 2 0
BITMAP
E000
E000
E000
E000
E000
E000
FFC0
FFE0
F0F0
E070
E070
E070
E070
E070
E070
E070
ENDCHAR
STARTCHAR 04BB
ENCODING 1211
SWIDTH 630 0
DWIDTH 14 0
BBX 10 16 2 0
BITMAP
E000
E000
E000
E000
E700
FF80
FFC0
E1C0
E1C0
E1C0
E1C0
E1C0
E1C0
E1C0
E1C0
E1C0
ENDCHAR
STARTCHAR 04D8
ENCODING 1240
SWIDTH 720 0
DWIDTH 16 0
BBX 14 16 1 0
BITMAP
0FC0
3FF0
7FF8
7878
F03C
001C
001C
FFFC
FFFC
E01C
F01C
F03C
7838
3CF8
3FF0
0FC0
ENDCHAR
STARTCHAR 04D9
ENCODING 1241
SWIDTH 540 0
DWIDTH 12 0
BBX 11 12 1 0
BITMAP
1E00
7F80
7FC0
E1C0
01C0
FFE0
FFE0
E1E0
E1C0
71C0
7F80
3F00
ENDCHAR
STARTCHAR 04E8
ENCODING 1256
SWIDTH 765 0
DWIDTH 17 0
BBX 15 16 1 0
BITMAP
0FE0
1FF8
3FFC
783C
F01E
F00E
E00E
FFFE
FFFE
E00E
F00E
F01E
783C
3EFC
3FF8
0FE0
ENDCHAR
STARTCHAR 04E9
ENCODING 1257
SWIDTH 630 0
DWIDTH 14 0
BBX 12 12 1 0
BITMAP
0F00
3FC0
7FE0
F0E0
E0F0
FFF0
FFF0
E070
F0E0
79E0
7FC0
1F80
ENDCHAR
STARTCHAR 05B0
ENCODING 1456
SWIDTH 315 0
DWIDTH 7 0
BBX 2 4 3 -5
BITMAP
C0
00
C0
80
ENDCHAR
STARTCHAR 05B1
ENCODING 1457
SWIDTH 315 0
DWIDTH 7 0
BBX 7 4 0 -5
BITMAP
DE
00
26
22
ENDCHAR
STARTCHAR 05B2
ENCODING 1458
SWIDTH 315 0
DWIDTH 7 0
BBX 6 4 1 -5
BITMAP
EC
00
0C
0C
ENDCHAR
STARTCHAR 05B3
ENCODING 1459
SWIDTH 315 0
DWIDTH 7 0
BBX 6 4 1 -5
BITMAP
EC
40
0C
0C
ENDCHAR
STARTCHAR 05B4
ENCODING 1460
SWIDTH 315 0
DWIDTH 7 0
BBX 2 2 3 -4
BITMAP
80
C0
ENDCHAR
STARTCHAR 05B5
ENCODING 1461
SWIDTH 315 0
DWIDTH 7 0
BBX 5 2 1 -4
BITMAP
58
D8
ENDCHAR
STARTCHAR 05B6
ENCODING 1462
SWIDTH 315 0
DWIDTH 7 0
BBX 5 4 1 -5
BITMAP
D8
00
30
20
ENDCHAR
STARTCHAR 05B7
ENCODING 1463
SWIDTH 315 0
DWIDTH 7 0
BBX 4 1 2 -3
BITMAP
F0
ENDCHAR
STARTCHAR 05B8
ENCODING 1464
SWIDTH 315 0
DWIDTH 7 0
BBX 4 3 2 -5
BITMAP
F0
40
40
ENDCHAR
STARTCHAR 05B9
ENCODING 1465
SWIDTH 315 0
DWIDTH 7 0
BBX 2 2 3 13
BITMAP
80
C0
ENDCHAR
STARTCHAR 05BA
ENCODING 1466
SWIDTH 315 0
DWIDTH 7 0
BBX 2 2 3 13
BITMAP
80
C0
ENDCHAR
STARTCHAR 05BB
ENCODING 1467
SWIDTH 315 0
DWIDTH 7 0
BBX 7 4 0 -5
BITMAP
C0
18
16
02
ENDCHAR
STARTCHAR 05BC
ENCODING 1468
SWIDTH 315 0
DWIDTH 7 0
BBX 2 2 3 5
BITMAP
C0
80
ENDCHAR
STARTCHAR 05BD
ENCODING 1469
SWIDTH 315 0
DWIDTH 7 0
BBX 1 4 3 -5
BITMAP
80
80
80
80
ENDCHAR
STARTCHAR 05BE
ENCODING 1470
SWIDTH 450 0
DWIDTH 10 0
BBX 8 3 1 9
BITMAP
FF
FF
FF
ENDCHAR
STARTCHAR 05BF
ENCODING 1471
SWIDTH 315 0
DWIDTH 7 0
BBX 4 1 2 14
BITMAP
F0
ENDCHAR
STARTCHAR 05C0
ENCODING 1472
SWIDTH 315 0
DWIDTH 7 0
BBX 2 16 2 -2
BITMAP
C0
C0
C0
C0
C0
C0
C0
C0
C0
C0
C0
C0
C0
C0
C0
C0
ENDCHAR
STARTCHAR 05C1
ENCODING 1473
SWIDTH 315 0
DWIDTH 7 0
BBX 2 2 8 13
BITMAP
40
C0
ENDCHAR
STARTCHAR 05C2
ENCODING 1474
SWIDTH 315 0
DWIDTH 7 0
BBX 2 2 -3 13
BITMAP
40
C0
ENDCHAR
STARTCHAR 05C3
ENCODING 1475
SWIDTH 315 0
DWIDTH 7 0
BBX 3 12 2 0
BITMAP
E0
E0
E0
E0
00
00
00
00
00
E0
E0
E0
ENDCHAR
STARTCHAR 05D0
ENCODING 1488
SWIDTH 585 0
DWIDTH 13 0
BBX 11 12 1 0
BITMAP
F0E0
70E0
78E0
3CE0
3DC0
7FC0
7F80
6700
E380
E3C0
E1E0
E0E0
ENDCHAR
STARTCHAR 05D1
ENCODING 1489
SWIDTH 585 0
DWIDTH 13 0
BBX 11 12 1 0
BITMAP
7800
FF00
FF00
0780
0380
0380
0380
0380
0380
FFE0
FFE0
FFE0
ENDCHAR
STARTCHAR 05D2
ENCODING 1490
SWIDTH 450 0
DWIDTH 10 0
BBX 9 12 0 0
BITMAP
3800
3E00
3F00
0700
0700
0700
0700
0F00
3F00
7B80
7380
E380
ENDCHAR
STARTCHAR 05D3
ENCODING 1491
SWIDTH 540 0
DWIDTH 12 0
BBX 11 12 1 0
BITMAP
FFE0
FFE0
FFE0
0380
0380
0380
0380
0380
0380
0380
0380
0380
ENDCHAR
STARTCHAR 05D4
ENCODING 1492
SWIDTH 630 0
DWIDTH 14 0
BBX 11 12 1 0
BITMAP
3E00
FF80
7FC0
01E0
00E0
00E0
70E0
70E0
70E0
70E0
70E0
70E0
ENDCHAR
STARTCHAR 05D5
ENCODING 1493
SWIDTH 270 0
DWIDTH 6 0
BBX 4 12 1 0
BITMAP
F0
F0
F0
F0
F0
F0
F0
F0
F0
F0
F0
F0
ENDCHAR
STARTCHAR 05D6
ENCODING 1494
SWIDTH 405 0
DWIDTH 9 0
BBX 8 12 1 0
BITMAP
FF
FF
FF
18
38
30
38
38
38
38
38
38
ENDCHAR
STARTCHAR 05D7
ENCODING 1495
SWIDTH 630 0
DWIDTH 14 0
BBX 11 12 1 0
BITMAP
3E00
FFC0
FFC0
F1E0
F0E0
F0E0
F0E0
F0E0
F0E0
F0E0
F0E0
F0E0
ENDCHAR
STARTCHAR 05D8
ENCODING 1496
SWIDTH 630 0
DWIDTH 14 0
BBX 12 12 1 0
BITMAP
E1C0
E7E0
E7E0
E0F0
E070
E070
E070
F070
70E0
79E0
3FC0
1F80
ENDCHAR
STARTCHAR 05D9
ENCODING 1497
SWIDTH 270 0
DWIDTH 6 0
BBX 4 7 1 5
BITMAP
F0
F0
F0
F0
F0
F0
F0
ENDCHAR
STARTCHAR 05DA
ENCODING 1498
SWIDTH 540 0
DWIDTH 12 0
BBX 10 16 0 -4
BITMAP
3C00
FF00
7F80
03C0
01C0
01C0
01C0
01C0
01C0
01C0
01C0
01C0
01C0
01C0
01C0
01C0
ENDCHAR
STARTCHAR 05DB
ENCODING 1499
SWIDTH 495 0
DWIDTH 11 0
BBX 9 12 1 0
BITMAP
7000
FE00
FF00
0780
0780
0380
0380
0380
0780
0F00
FE00
FC00
ENDCHAR
STARTCHAR 05DC
ENCODING 1500
SWIDTH 495 0
DWIDTH 11 0
BBX 9 16 1 0
BITMAP
E000
E000
E000
E000
E000
FF80
FF80
0380
0380
0380
0780
0700
0E00
0E00
0E00
0E00
ENDCHAR
STARTCHAR 05DD
ENCODING 1501
SWIDTH 630 0
DWIDTH 14 0
BBX 11 12 1 0
BITMAP
3E00
FFC0
FFC0
F1E0
F0E0
F0E0
F0E0
F0E0
F0E0
FFE0
FFE0
FFE0
ENDCHAR
STARTCHAR 05DE
ENCODING 1502
SWIDTH 630 0
DWIDTH 14 0
BBX 12 12 1 0
BITMAP
C300
EFC0
FFE0
7CE0
78E0
7870
7070
7070
7070
73F0
F3F0
E3F0
ENDCHAR
STARTCHAR 05DF
ENCODING 1503
SWIDTH 270 0
DWIDTH 6 0
BBX 4 16 1 -4
BITMAP
F0
F0
F0
F0
F0
F0
F0
F0
F0
F0
F0
F0
F0
F0
F0
F0
ENDCHAR
STARTCHAR 05E0
ENCODING 1504
SWIDTH 405 0
DWIDTH 9 0
BBX 6 12 1 0
BITMAP
E0
F8
FC
1C
1C
1C
1C
1C
1C
FC
FC
FC
ENDCHAR
STARTCHAR 05E1
ENCODING 1505
SWIDTH 630 0
DWIDTH 14 0
BBX 12 12 1 0
BITMAP
0F00
3FC0
7FE0
F0E0
E0F0
E070
E070
E0F0
F0E0
79E0
7FC0
1F80
ENDCHAR
STARTCHAR 05E2
ENCODING 1506
SWIDTH 540 0
DWIDTH 12 0
BBX 11 14 0 -2
BITMAP
70E0
70E0
38E0
38E0
38E0
38E0
38E0
38E0
1DC0
1FC0
1F80
FF00
FC00
C000
ENDCHAR
STARTCHAR 05E3
ENCODING 1507
SWIDTH 585 0
DWIDTH 13 0
BBX 11 16 1 -4
BITMAP
3C00
FF80
FFC0
E1E0
E0E0
E0E0
F8E0
78E0
38E0
00E0
00E0
00E0
00E0
00E0
00E0
00E0
ENDCHAR
STARTCHAR 05E4
ENCODING 1508
SWIDTH 585 0
DWIDTH 13 0
BBX 11 12 1 0
BITMAP
3E00
FF80
E3C0
E1E0
E0E0
78E0
78E0
18E0
01E0
03C0
FF80
FF00
ENDCHAR
STARTCHAR 05E5
ENCODING 1509
SWIDTH 495 0
DWIDTH 11 0
BBX 10 16 0 -4
BITMAP
E1C0
71C0
71C0
39C0
39C0
1F80
1F80
0F00
0E00
0E00
0E00
0E00
0E00
0E00
0E00
0E00
ENDCHAR
STARTCHAR 05E6
ENCODING 1510
SWIDTH 495 0
DWIDTH 11 0
BBX 10 12 0 0
BITMAP
E1C0
71C0
79C0
39C0
1DC0
1F80
0F00
0700
0780
7F80
7FC0
7FC0
ENDCHAR
STARTCHAR 05E7
ENCODING 1511
SWIDTH 585 0
DWIDTH 13 0
BBX 11 16 1 -4
BITMAP
FFE0
FFE0
FFE0
00E0
00E0
01C0
E1C0
E3C0
E380
E380
E380
E380
E000
E000
E000
E000
ENDCHAR
STARTCHAR 05E8
ENCODING 1512
SWIDTH 540 0
DWIDTH 12 0
BBX 10 12 0 0
BITMAP
3C00
FF00
7F80
03C0
01C0
01C0
01C0
01C0
01C0
01C0
01C0
01C0
ENDCHAR
STARTCHAR 05E9
ENCODING 1513
SWIDTH 720 0
DWIDTH 16 0
BBX 14 12 1 0
BITMAP
E31C
E71C
E71C
E71C
E71C
E71C
FE38
FC38
7038
7870
3FF0
1FC0
ENDCHAR
STARTCHAR 05EA
ENCODING 1514
SWIDTH 675 0
DWIDTH 15 0
BBX 12 12 1 0
BITMAP
3F00
FFE0
FFF0
3870
3870
3870
3870
3870
3870
3870
F870
F070
ENDCHAR
STARTCHAR 05F0
ENCODING 1520
SWIDTH 540 0
DWIDTH 12 0
BBX 10 12 1 0
BITMAP
F1C0
F1C0
F1C0
F1C0
F1C0
F1C0
F1C0
F1C0
F1C0
F1C0
F1C0
F1C0
ENDCHAR
STARTCHAR 05F1
ENCODING 1521
SWIDTH 540 0
DWIDTH 12 0
BBX 10 12 1 0
BITMAP
F1C0
F1C0
F1C0
F1C0
F1C0
F1C0
F1C0
01C0
01C0
01C0
01C0
01C0
ENDCHAR
STARTCHAR 05F2
ENCODING 1522
SWIDTH 540 0
DWIDTH 12 0
BBX 10 7 1 5
BITMAP
F1C0
F1C0
F1C0
F1C0
F1C0
F1C0
F1C0
ENDCHAR
STARTCHAR 05F3
ENCODING 1523
SWIDTH 270 0
DWIDTH 6 0
BBX 4 5 1 7
BITMAP
70
70
60
E0
C0
ENDCHAR
STARTCHAR 05F4
ENCODING 1524
SWIDTH 495 0
DWIDTH 11 0
BBX 9 5 1 7
BITMAP
7380
7380
6300
E700
C600
ENDCHAR
STARTCHAR 060C
ENCODING 1548
SWIDTH 315 0
DWIDTH 7 0
BBX 3 6 2 4
BITMAP
40
80
80
E0
E0
60
ENDCHAR
STARTCHAR 061B
ENCODING 1563
SWIDTH 315 0
DWIDTH 7 0
BBX 3 10 2 4
BITMAP
40
80
80
E0
E0
E0
00
40
E0
60
ENDCHAR
STARTCHAR 061F
ENCODING 1567
SWIDTH 360 0
DWIDTH 8 0
BBX 6 13 1 3
BITMAP
38
C4
CC
DC
E8
E0
60
30
10
00
30
30
30
ENDCHAR
STARTCHAR 0621
ENCODING 1569
SWIDTH 450 0
DWIDTH 10 0
BBX 8 10 1 1
BITMAP
3C
3C
6C
60
F7
7F
3C
30
60
40
ENDCHAR
STARTCHAR 0622
ENCODING 1570
SWIDTH 225 0
DWIDTH 5 0
BBX 5 15 0 2
BITMAP
F8
00
20
20
20
20
30
30
30
30
30
30
30
10
20
ENDCHAR
STARTCHAR 0623
ENCODING 1571
SWIDTH 225 0
DWIDTH 5 0
BBX 3 16 1 2
BITMAP
C0
60
80
40
40
40
40
60
60
60
60
60
60
20
20
40
ENDCHAR
STARTCHAR 0624
ENCODING 1572
SWIDTH 450 0
DWIDTH 10 0
BBX 10 17 0 -2
BITMAP
0800
1000
0C00
0000
0180
0380
03C0
06C0
0640
07C0
03C0
01C0
00C0
8380
7F80
3F00
0400
ENDCHAR
STARTCHAR 0625
ENCODING 1573
SWIDTH 225 0
DWIDTH 5 0
BBX 3 18 1 -2
BITMAP
40
40
40
40
60
60
60
60
60
60
60
20
40
00
00
60
C0
C0
ENDCHAR
STARTCHAR 0626
ENCODING 1574
SWIDTH 630 0
DWIDTH 14 0
BBX 11 13 2 -1
BITMAP
6000
C000
E0E0
01E0
0320
4600
8600
87C0
83C0
80C0
83C0
FF80
FE00
ENDCHAR
STARTCHAR 0627
ENCODING 1575
SWIDTH 225 0
DWIDTH 5 0
BBX 2 13 2 2
BITMAP
80
80
80
80
C0
C0
C0
C0
C0
C0
C0
40
80
ENDCHAR
STARTCHAR 0628
ENCODING 1576
SWIDTH 630 0
DWIDTH 14 0
BBX 13 12 1 -2
BITMAP
4000
8008
8018
8008
C008
FFF8
FFF8
7FF8
0000
0300
0380
0300
ENDCHAR
STARTCHAR 0629
ENCODING 1577
SWIDTH 360 0
DWIDTH 8 0
BBX 6 14 1 3
BITMAP
10
F8
F0
C0
00
00
60
78
7C
9C
8C
FC
F8
F0
ENDCHAR
STARTCHAR 062A
ENCODING 1578
SWIDTH 630 0
DWIDTH 14 0
BBX 13 11 1 4
BITMAP
01C0
0F80
0E80
4000
8008
8018
8008
C008
FFF8
FFF8
7FF8
ENDCHAR
STARTCHAR 062B
ENCODING 1579
SWIDTH 630 0
DWIDTH 14 0
BBX 13 14 1 3
BITMAP
0400
0600
0600
0180
0780
0E80
4000
8008
8018
8008
C008
FFF8
FFF8
3FF8
ENDCHAR
STARTCHAR 062C
ENCODING 1580
SWIDTH 585 0
DWIDTH 13 0
BBX 11 16 1 -5
BITMAP
3C00
7FC0
FFC0
9F80
3800
6000
4000
8600
8700
8600
8200
C000
E000
FC20
7FE0
3F80
ENDCHAR
STARTCHAR 062D
ENCODING 1581
SWIDTH 585 0
DWIDTH 13 0
BBX 11 16 1 -5
BITMAP
3C00
7FC0
FFC0
9F80
3800
6000
4000
8000
8000
8000
8000
C000
E000
FC20
7FE0
3F80
ENDCHAR
STARTCHAR 062E
ENCODING 1582
SWIDTH 585 0
DWIDTH 13 0
BBX 11 20 1 -4
BITMAP
0C00
1C00
0C00
0000
3C00
7FC0
FFC0
9F80
3800
6000
4000
8000
8000
8000
8000
C000
E000
FC20
7FE0
3F80
ENDCHAR
STARTCHAR 062F
ENCODING 1583
SWIDTH 360 0
DWIDTH 8 0
BBX 7 10 1 3
BITMAP
08
0C
1C
0C
06
06
82
FE
FE
7E
ENDCHAR
STARTCHAR 0630
ENCODING 1584
SWIDTH 360 0
DWIDTH 8 0
BBX 7 16 1 3
BITMAP
20
38
70
30
00
00
08
0C
1C
0C
06
06
82
FE
FE
7E
ENDCHAR
STARTCHAR 0631
ENCODING 1585
SWIDTH 450 0
DWIDTH 10 0
BBX 9 12 1 -2
BITMAP
0100
0100
0300
0180
0080
0080
0180
0380
0700
9E00
7C00
1800
ENDCHAR
STARTCHAR 0632
ENCODING 1586
SWIDTH 450 0
DWIDTH 10 0
BBX 9 17 1 -2
BITMAP
0600
0700
0600
0000
0000
0100
0100
0300
0180
0080
0080
0180
0380
0700
9E00
7C00
1800
ENDCHAR
STARTCHAR 0633
ENCODING 1587
SWIDTH 900 0
DWIDTH 20 0
BBX 19 11 1 -1
BITMAP
004020
006160
406160
406320
803FE0
803FE0
803E60
C06000
E0E000
FFC000
7F8000
ENDCHAR
STARTCHAR 0634
ENCODING 1588
SWIDTH 900 0
DWIDTH 20 0
BBX 19 18 1 -1
BITMAP
000200
000700
000200
0005C0
0007C0
000600
000000
004020
006160
406160
406320
803FE0
803FE0
803E60
C06000
E0E000
FFC000
7F8000
ENDCHAR
STARTCHAR 0635
ENCODING 1589
SWIDTH 1080 0
DWIDTH 24 0
BBX 23 12 1 -1
BITMAP
00003C
00407C
0061FE
406386
406E06
803FFE
803FFE
803FFE
C06000
E0E000
FFC000
7F8000
ENDCHAR
STARTCHAR 0636
ENCODING 1590
SWIDTH 1080 0
DWIDTH 24 0
BBX 23 17 1 -1
BITMAP
000300
000380
000300
000100
000000
00003C
00407C
0061FE
406386
406E06
803FFE
803FFE
803FFE
C06000
E0E000
FFC000
7F8000
ENDCHAR
STARTCHAR 0637
ENCODING 1591
SWIDTH 540 0
DWIDTH 12 0
BBX 13 15 -1 3
BITMAP
1000
1C00
1C00
1C00
0C00
0800
0C00
0CF0
0FF0
0FF8
0E18
3838
FFF8
FFF8
FFF8
ENDCHAR
STARTCHAR 0638
ENCODING 1592
SWIDTH 540 0
DWIDTH 12 0
BBX 13 15 -1 3
BITMAP
1000
1C00
1CC0
1CE0
0CC0
0840
0C00
0CF0
0FF0
0FF8
0E18
3838
FFF8
FFF8
FFF8
ENDCHAR
STARTCHAR 0639
ENCODING 1593
SWIDTH 540 0
DWIDTH 12 0
BBX 10 18 1 -5
BITMAP
3E00
7F00
6000
C000
E380
FF00
7E00
7000
E000
C000
8000
8000
8000
C000
F800
FFC0
7F00
0600
ENDCHAR
STARTCHAR 063A
ENCODING 1594
SWIDTH 540 0
DWIDTH 12 0
BBX 10 23 1 -5
BITMAP
1000
3800
3800
0000
0000
3E00
7F00
6000
C000
E380
FF00
7E00
7000
E000
C000
8000
8000
8000
C000
F800
FFC0
7F00
0600
ENDCHAR
STARTCHAR 0640
ENCODING 1600
SWIDTH 180 0
DWIDTH 4 0
BBX 5 3 -1 3
BITMAP
F8
F8
F8
ENDCHAR
STARTCHAR 0641
ENCODING 1601
SWIDTH 765 0
DWIDTH 17 0
BBX 16 14 1 3
BITMAP
000C
001E
000C
0000
0000
000E
801E
801F
8013
801F
C01F
FFFF
FFFF
7FFF
ENDCHAR
STARTCHAR 0642
ENCODING 1602
SWIDTH 630 0
DWIDTH 14 0
BBX 14 17 0 -2
BITMAP
0018
00F8
00C0
0040
0030
0078
0078
20D8
20FC
407C
407C
4004
C00C
E018
7FF8
7FF0
1FC0
ENDCHAR
STARTCHAR 0643
ENCODING 1603
SWIDTH 540 0
DWIDTH 12 0
BBX 12 14 0 3
BITMAP
0040
0060
0370
0270
0620
0720
0320
4320
4E30
4030
E010
FFF0
7FF0
3FF0
ENDCHAR
STARTCHAR 0644
ENCODING 1604
SWIDTH 450 0
DWIDTH 10 0
BBX 10 18 0 -1
BITMAP
0100
0180
01C0
01C0
0080
0080
0080
0080
20C0
20C0
4040
4040
4040
C0C0
E1C0
7F80
7F00
3C00
ENDCHAR
STARTCHAR 0645
ENCODING 1605
SWIDTH 360 0
DWIDTH 8 0
BBX 8 14 0 -5
BITMAP
08
1C
3E
2F
1F
7F
7F
C0
C0
40
40
60
20
20
ENDCHAR
STARTCHAR 0646
ENCODING 1606
SWIDTH 540 0
DWIDTH 12 0
BBX 11 14 1 0
BITMAP
0E00
0E00
0600
0040
0060
4060
4060
8020
8020
8020
8060
E0E0
FFC0
7F80
ENDCHAR
STARTCHAR 0647
ENCODING 1607
SWIDTH 360 0
DWIDTH 8 0
BBX 6 8 1 4
BITMAP
60
78
7C
9C
8C
FC
F8
F0
ENDCHAR
STARTCHAR 0648
ENCODING 1608
SWIDTH 450 0
DWIDTH 10 0
BBX 10 13 0 -2
BITMAP
0180
0380
03C0
06C0
0640
07C0
03C0
01C0
00C0
8380
7F80
3F00
0400
ENDCHAR
STARTCHAR 0649
ENCODING 1609
SWIDTH 630 0
DWIDTH 14 0
BBX 11 11 2 -1
BITMAP
00E0
01E0
0320
4600
8600
87C0
83C0
80C0
83C0
FF80
FE00
ENDCHAR
STARTCHAR 064A
ENCODING 1610
SWIDTH 630 0
DWIDTH 14 0
BBX 11 14 2 -4
BITMAP
00E0
01E0
0320
4600
8600
87C0
83C0
80C0
83C0
FF80
FE00
0000
1B00
1C00
ENDCHAR
STARTCHAR 064B
ENCODING 1611
SWIDTH 180 0
DWIDTH 4 0
BBX 3 4 1 15
BITMAP
20
C0
60
80
ENDCHAR
STARTCHAR 064C
ENCODING 1612
SWIDTH 225 0
DWIDTH 5 0
BBX 4 4 1 15
BITMAP
30
B0
B0
C0
ENDCHAR
STARTCHAR 064D
ENCODING 1613
SWIDTH 180 0
DWIDTH 4 0
BBX 3 4 1 -3
BITMAP
20
C0
20
C0
ENDCHAR
STARTCHAR 064E
ENCODING 1614
SWIDTH 180 0
DWIDTH 4 0
BBX 3 2 1 15
BITMAP
60
80
ENDCHAR
STARTCHAR 064F
ENCODING 1615
SWIDTH 225 0
DWIDTH 5 0
BBX 4 5 1 15
BITMAP
20
60
20
50
80
ENDCHAR
STARTCHAR 0650
ENCODING 1616
SWIDTH 180 0
DWIDTH 4 0
BBX 3 2 1 -1
BITMAP
20
C0
ENDCHAR
STARTCHAR 0651
ENCODING 1617
SWIDTH 225 0
DWIDTH 5 0
BBX 4 4 1 15
BITMAP
10
50
E0
80
ENDCHAR
STARTCHAR 0652
ENCODING 1618
SWIDTH 180 0
DWIDTH 4 0
BBX 3 3 1 16
BITMAP
E0
A0
C0
ENDCHAR
STARTCHAR 0653
ENCODING 1619
SWIDTH 225 0
DWIDTH 5 0
BBX 5 1 0 17
BITMAP
F8
ENDCHAR
STARTCHAR 0654
ENCODING 1620
SWIDTH 225 0
DWIDTH 5 0
BBX 3 3 1 17
BITMAP
60
80
60
ENDCHAR
STARTCHAR 0655
ENCODING 1621
SWIDTH 225 0
DWIDTH 5 0
BBX 3 2 1 -3
BITMAP
C0
60
ENDCHAR
STARTCHAR 0660
ENCODING 1632
SWIDTH 540 0
DWIDTH 12 0
BBX 4 5 4 5
BITMAP
40
60
F0
F0
20
ENDCHAR
STARTCHAR 0661
ENCODING 1633
SWIDTH 540 0
DWIDTH 12 0
BBX 4 12 4 4
BITMAP
C0
E0
E0
E0
70
30
30
30
10
10
10
10
ENDCHAR
STARTCHAR 0662
ENCODING 1634
SWIDTH 540 0
DWIDTH 12 0
BBX 6 12 3 4
BITMAP
C4
FC
FC
7C
70
30
30
10
10
10
10
10
ENDCHAR
STARTCHAR 0663
ENCODING 1635
SWIDTH 540 0
DWIDTH 12 0
BBX 9 12 2 3
BITMAP
0480
C480
FF80
FF00
FF00
7000
2000
3000
3000
3000
3000
2000
ENDCHAR
STARTCHAR 0664
ENCODING 1636
SWIDTH 540 0
DWIDTH 12 0
BBX 6 13 3 3
BITMAP
08
10
30
60
70
F8
78
10
20
78
7C
78
18
ENDCHAR
STARTCHAR 0665
ENCODING 1637
SWIDTH 540 0
DWIDTH 12 0
BBX 7 9 3 5
BITMAP
38
7C
7E
9E
86
C6
FC
FC
70
ENDCHAR
STARTCHAR 0666
ENCODING 1638
SWIDTH 540 0
DWIDTH 12 0
BBX 7 12 2 3
BITMAP
80
FC
FC
F8
78
04
04
0C
06
06
06
02
ENDCHAR
STARTCHAR 0667
ENCODING 1639
SWIDTH 540 0
DWIDTH 12 0
BBX 8 12 2 4
BITMAP
81
C3
C3
E3
66
24
34
14
18
18
08
08
ENDCHAR
STARTCHAR 0668
ENCODING 1640
SWIDTH 540 0
DWIDTH 12 0
BBX 8 12 2 3
BITMAP
10
18
18
18
1C
2C
26
67
E7
C3
C3
81
ENDCHAR
STARTCHAR 0669
ENCODING 1641
SWIDTH 540 0
DWIDTH 12 0
BBX 6 13 3 3
BITMAP
30
78
F8
98
F8
F8
F8
08
0C
0C
0C
0C
04
ENDCHAR
STARTCHAR 066A
ENCODING 1642
SWIDTH 540 0
DWIDTH 12 0
BBX 8 15 2 2
BITMAP
E1
E2
42
04
04
08
08
10
10
20
20
40
42
87
87
ENDCHAR
STARTCHAR 066B
ENCODING 1643
SWIDTH 315 0
DWIDTH 7 0
BBX 3 5 2 1
BITMAP
60
E0
60
60
40
ENDCHAR
STARTCHAR 066C
ENCODING 1644
SWIDTH 315 0
DWIDTH 7 0
BBX 3 6 2 4
BITMAP
40
80
80
E0
E0
60
ENDCHAR
STARTCHAR 066D
ENCODING 1645
SWIDTH 540 0
DWIDTH 12 0
BBX 7 7 2 10
BITMAP
54
74
28
F6
3C
54
10
ENDCHAR
STARTCHAR 066E
ENCODING 1646
SWIDTH 630 0
DWIDTH 14 0
BBX 13 8 1 3
BITMAP
4000
8008
8018
8008
C008
FFF8
FFF8
7FF8
ENDCHAR
STARTCHAR 066F
ENCODING 1647
SWIDTH 630 0
DWIDTH 14 0
BBX 14 13 0 -3
BITMAP
0030
0078
0078
20D8
20FC
407C
407C
4004
C00C
E018
7FF8
7FF0
1FC0
ENDCHAR
STARTCHAR 0670
ENCODING 1648
SWIDTH 0 0
DWIDTH 0 0
BBX 2 5 -1 13
BITMAP
80
80
40
40
80
ENDCHAR
STARTCHAR 0671
ENCODING 1649
SWIDTH 225 0
DWIDTH 5 0
BBX 5 17 0 2
BITMAP
10
68
F0
80
20
20
20
20
30
30
30
30
30
30
30
10
20
ENDCHAR
STARTCHAR 0672
ENCODING 1650
SWIDTH 225 0
DWIDTH 5 0
BBX 3 17 1 2
BITMAP
40
80
60
80
40
40
40
40
60
60
60
60
60
60
60
20
40
ENDCHAR
STARTCHAR 0673
ENCODING 1651
SWIDTH 225 0
DWIDTH 5 0
BBX 4 18 0 -2
BITMAP
20
20
20
20
30
30
30
30
30
30
30
10
20
00
00
30
20
F0
ENDCHAR
STARTCHAR 0674
ENCODING 1652
SWIDTH 225 0
DWIDTH 5 0
BBX 3 3 1 17
BITMAP
60
80
60
ENDCHAR
STARTCHAR 0675
ENCODING 1653
SWIDTH 225 0
DWIDTH 5 0
BBX 4 13 2 3
BITMAP
B0
B0
80
80
C0
C0
C0
C0
C0
C0
C0
40
80
ENDCHAR
STARTCHAR 0676
ENCODING 1654
SWIDTH 450 0
DWIDTH 10 0
BBX 11 17 0 -2
BITMAP
00E0
0060
0080
0000
0180
0380
03C0
06C0
0640
07C0
03C0
01C0
00C0
8380
7F80
3F00
0400
ENDCHAR
STARTCHAR 0677
ENCODING 1655
SWIDTH 450 0
DWIDTH 10 0
BBX 11 18 0 -2
BITMAP
0600
06E0
0260
0480
0800
0180
0380
03C0
06C0
0640
07C0
03C0
01C0
00C0
8380
7F80
3F00
0400
ENDCHAR
STARTCHAR 0678
ENCODING 1656
SWIDTH 630 0
DWIDTH 14 0
BBX 12 16 2 -1
BITMAP
0030
0030
0040
0000
0000
00E0
01E0
0320
4600
8600
87C0
83C0
80C0
83C0
FF80
FE00
ENDCHAR
STARTCHAR 0679
ENCODING 1657
SWIDTH 630 0
DWIDTH 14 0
BBX 13 15 1 4
BITMAP
0400
0400
0400
0580
0680
0F80
0000
4000
8008
8018
8008
C008
FFF8
FFF8
7FF8
ENDCHAR
STARTCHAR 067A
ENCODING 1658
SWIDTH 630 0
DWIDTH 14 0
BBX 13 14 1 3
BITMAP
0400
0E00
0400
0300
0300
0300
4000
8008
8018
8008
C008
FFF8
FFF8
7FF8
ENDCHAR
STARTCHAR 067B
ENCODING 1659
SWIDTH 630 0
DWIDTH 14 0
BBX 13 15 1 -4
BITMAP
4000
8008
8018
8008
C008
FFF8
FFF8
7FF8
0000
0300
0700
0200
01C0
0180
0080
ENDCHAR
STARTCHAR 067C
ENCODING 1660
SWIDTH 630 0
DWIDTH 14 0
BBX 13 13 1 2
BITMAP
01C0
0F80
0E80
4000
8008
8018
8008
C008
FFF8
FFF8
7FF8
0500
0300
ENDCHAR
STARTCHAR 067D
ENCODING 1661
SWIDTH 630 0
DWIDTH 14 0
BBX 13 14 1 3
BITMAP
0100
0F80
0D00
0C00
0380
0300
4100
8008
8018
8008
C008
FFF8
FFF8
7FF8
ENDCHAR
STARTCHAR 067E
ENCODING 1662
SWIDTH 630 0
DWIDTH 14 0
BBX 13 15 1 -4
BITMAP
4000
8008
8018
8008
C008
FFF8
FFF8
7FF8
0000
0180
0780
0E80
0500
0180
0180
ENDCHAR
STARTCHAR 067F
ENCODING 1663
SWIDTH 630 0
DWIDTH 14 0
BBX 13 14 1 3
BITMAP
0300
1F00
1900
0DC0
0780
0E80
4000
8008
8018
8008
C008
FFF8
FFF8
7FF8
ENDCHAR
STARTCHAR 0680
ENCODING 1664
SWIDTH 630 0
DWIDTH 14 0
BBX 13 15 1 -5
BITMAP
4000
8008
8018
8008
C008
FFF8
FFF8
7FF8
0000
0180
0F80
0D00
04C0
03C0
0740
ENDCHAR
STARTCHAR 0681
ENCODING 1665
SWIDTH 585 0
DWIDTH 13 0
BBX 11 20 1 -5
BITMAP
0600
0400
0200
0000
3C00
7FC0
FFC0
9F80
3800
6000
4000
8000
8000
8000
8000
C000
E000
FC20
7FE0
3F80
ENDCHAR
STARTCHAR 0682
ENCODING 1666
SWIDTH 585 0
DWIDTH 13 0
BBX 11 23 1 -5
BITMAP
1800
1800
1800
0400
0E00
0400
0000
3C00
7FC0
FFC0
9F80
3800
6000
4000
8000
8000
8000
8000
C000
E000
FC20
7FE0
3F80
ENDCHAR
STARTCHAR 0683
ENCODING 1667
SWIDTH 585 0
DWIDTH 13 0
BBX 11 16 1 -5
BITMAP
3C00
7FC0
FFC0
9F80
3800
6000
4000
8B80
8F00
9C00
8000
C000
E000
FC20
7FE0
3F80
ENDCHAR
STARTCHAR 0684
ENCODING 1668
SWIDTH 585 0
DWIDTH 13 0
BBX 11 16 1 -5
BITMAP
3C00
7FC0
FFC0
9F80
3800
6000
4400
8E00
8C00
8300
8300
C300
E000
FC20
7FE0
3F80
ENDCHAR
STARTCHAR 0685
ENCODING 1669
SWIDTH 585 0
DWIDTH 13 0
BBX 11 23 1 -5
BITMAP
0C00
1C00
0600
0B00
1F00
0800
0000
3C00
7FC0
FFC0
9F80
3800
6000
4000
8000
8000
8000
8000
C000
E000
FC20
7FE0
3F80
ENDCHAR
STARTCHAR 0686
ENCODING 1670
SWIDTH 585 0
DWIDTH 13 0
BBX 11 16 1 -5
BITMAP
3C00
7FC0
FFC0
9F80
3800
6000
4300
8F00
9D00
8A00
8700
C300
E000
FC20
7FE0
3F80
ENDCHAR
STARTCHAR 0687
ENCODING 1671
SWIDTH 585 0
DWIDTH 13 0
BBX 11 16 1 -5
BITMAP
3C00
7FC0
FFC0
9F80
3800
6000
4B80
8F00
9C80
87C0
8780
C600
E000
FC20
7FE0
3F80
ENDCHAR
STARTCHAR 0688
ENCODING 1672
SWIDTH 360 0
DWIDTH 8 0
BBX 7 17 1 3
BITMAP
40
60
40
48
5C
64
FC
00
08
0C
1C
0C
06
86
FE
FE
7E
ENDCHAR
STARTCHAR 0689
ENCODING 1673
SWIDTH 360 0
DWIDTH 8 0
BBX 7 12 1 1
BITMAP
08
0C
1C
0C
06
06
82
FE
FE
7E
28
38
ENDCHAR
STARTCHAR 068A
ENCODING 1674
SWIDTH 360 0
DWIDTH 8 0
BBX 7 14 1 -1
BITMAP
08
0C
1C
0C
06
06
82
FE
FE
7E
00
38
38
38
ENDCHAR
STARTCHAR 068B
ENCODING 1675
SWIDTH 360 0
DWIDTH 8 0
BBX 7 21 1 -1
BITMAP
40
60
40
48
5C
64
FC
00
08
0C
1C
0C
06
86
FE
FE
7E
00
38
38
38
ENDCHAR
STARTCHAR 068C
ENCODING 1676
SWIDTH 360 0
DWIDTH 8 0
BBX 7 15 1 4
BITMAP
5C
F8
40
00
00
08
0C
1C
0C
06
06
82
FE
FE
7E
ENDCHAR
STARTCHAR 068D
ENCODING 1677
SWIDTH 360 0
DWIDTH 8 0
BBX 7 15 1 -2
BITMAP
08
0C
1C
0C
06
06
82
FE
FE
7E
00
0C
7C
60
20
ENDCHAR
STARTCHAR 068E
ENCODING 1678
SWIDTH 360 0
DWIDTH 8 0
BBX 7 16 1 4
BITMAP
70
60
08
7C
E8
20
00
08
0C
1C
0C
06
86
FE
FE
7E
ENDCHAR
STARTCHAR 068F
ENCODING 1679
SWIDTH 360 0
DWIDTH 8 0
BBX 7 17 1 3
BITMAP
10
B8
F8
C0
30
30
10
00
08
0C
1C
0C
06
86
FE
FE
7E
ENDCHAR
STARTCHAR 0690
ENCODING 1680
SWIDTH 360 0
DWIDTH 8 0
BBX 7 16 1 4
BITMAP
B8
F0
C8
2C
7C
60
00
08
0C
1C
0C
06
86
FE
FE
7E
ENDCHAR
STARTCHAR 0691
ENCODING 1681
SWIDTH 450 0
DWIDTH 10 0
BBX 9 20 1 -1
BITMAP
0800
0800
0800
0F00
0900
3F00
0000
0000
0100
0100
0300
0180
0080
0080
0180
0380
0700
9E00
7C00
1800
ENDCHAR
STARTCHAR 0692
ENCODING 1682
SWIDTH 450 0
DWIDTH 10 0
BBX 9 16 1 -2
BITMAP
0500
0700
0000
0000
0100
0100
0300
0180
0080
0080
0180
0380
0700
9E00
7C00
1800
ENDCHAR
STARTCHAR 0693
ENCODING 1683
SWIDTH 450 0
DWIDTH 10 0
BBX 9 12 1 -2
BITMAP
0100
0100
0300
0180
0080
0080
0180
0380
0700
9F80
7E80
1B80
ENDCHAR
STARTCHAR 0694
ENCODING 1684
SWIDTH 450 0
DWIDTH 10 0
BBX 10 14 1 -4
BITMAP
0100
0100
0300
0180
0080
0080
0180
0380
0700
9E00
7C00
19C0
03C0
0080
ENDCHAR
STARTCHAR 0695
ENCODING 1685
SWIDTH 450 0
DWIDTH 10 0
BBX 10 14 1 -4
BITMAP
0100
0100
0300
0180
0080
0080
0180
0380
0700
9E00
7C00
1800
03C0
0180
ENDCHAR
STARTCHAR 0696
ENCODING 1686
SWIDTH 450 0
DWIDTH 10 0
BBX 10 14 1 -4
BITMAP
0100
0100
0300
0180
1880
1C80
1980
0380
0700
9E00
7C00
19C0
03C0
0080
ENDCHAR
STARTCHAR 0697
ENCODING 1687
SWIDTH 450 0
DWIDTH 10 0
BBX 9 17 1 -1
BITMAP
0B80
0F00
1D00
0000
0000
0100
0100
0300
0180
0080
0080
0180
0380
0700
9E00
7C00
1800
ENDCHAR
STARTCHAR 0698
ENCODING 1688
SWIDTH 450 0
DWIDTH 10 0
BBX 9 20 1 -2
BITMAP
0400
0E00
0C00
0B80
0F00
1D00
0000
0000
0100
0100
0300
0180
0080
0080
0180
0380
0700
9E00
7C00
1800
ENDCHAR
STARTCHAR 0699
ENCODING 1689
SWIDTH 450 0
DWIDTH 10 0
BBX 9 20 1 -2
BITMAP
0600
3E00
3000
1B80
0F00
1D00
0000
0000
0100
0100
0300
0180
0080
0080
0180
0380
0700
9E00
7C00
1800
ENDCHAR
STARTCHAR 069A
ENCODING 1690
SWIDTH 900 0
DWIDTH 20 0
BBX 19 15 1 -1
BITMAP
000C00
000E00
000E00
000000
004020
006160
406160
406320
803FE0
803FE0
803E60
C06000
E0E300
FFC780
7F8300
ENDCHAR
STARTCHAR 069B
ENCODING 1691
SWIDTH 900 0
DWIDTH 20 0
BBX 19 14 1 -4
BITMAP
004020
006160
406160
406320
803FE0
803FE0
803E60
C06000
E0E180
FFC780
7F8E80
000100
000180
000180
ENDCHAR
STARTCHAR 069C
ENCODING 1692
SWIDTH 900 0
DWIDTH 20 0
BBX 19 21 1 -4
BITMAP
000200
000700
000200
0005C0
0007C0
000600
000000
004020
006160
406160
406320
803FE0
803FE0
803E60
C06000
E0E180
FFC780
7F8E80
000100
000180
000180
ENDCHAR
STARTCHAR 069D
ENCODING 1693
SWIDTH 1080 0
DWIDTH 24 0
BBX 23 13 1 -2
BITMAP
00003C
00407C
0061FE
406386
406E06
803FFE
803FFE
803FFE
C06000
E0E030
FFC1F0
7F81A0
000080
ENDCHAR
STARTCHAR 069E
ENCODING 1694
SWIDTH 1080 0
DWIDTH 24 0
BBX 23 19 1 -1
BITMAP
000600
000600
000200
0005C0
000780
000680
000000
00003C
00407C
0061FE
406386
406E06
803FFE
803FFE
803FFE
C06000
E0E000
FFC000
7F8000
ENDCHAR
STARTCHAR 069F
ENCODING 1695
SWIDTH 540 0
DWIDTH 12 0
BBX 13 16 -1 3
BITMAP
00C0
10C0
1CC0
1C38
1CF0
0DD0
0800
0C00
0CF0
0FF0
0FF8
0E18
3838
FFF8
FFF8
FFF8
ENDCHAR
STARTCHAR 06A0
ENCODING 1696
SWIDTH 540 0
DWIDTH 12 0
BBX 10 25 1 -5
BITMAP
4000
6000
6000
1800
7800
F800
4000
3E00
7F00
6000
C000
E380
FF00
7E00
7000
E000
C000
8000
8000
8000
C000
F800
FFC0
7F00
0600
ENDCHAR
STARTCHAR 06A1
ENCODING 1697
SWIDTH 765 0
DWIDTH 17 0
BBX 16 9 1 3
BITMAP
000E
801E
801F
8013
801F
C01F
FFFF
FFFF
7FFF
ENDCHAR
STARTCHAR 06A2
ENCODING 1698
SWIDTH 765 0
DWIDTH 17 0
BBX 16 13 1 -1
BITMAP
000E
801E
801F
8013
801F
C01F
FFFF
FFFF
7FFF
0000
000C
001E
000C
ENDCHAR
STARTCHAR 06A3
ENCODING 1699
SWIDTH 765 0
DWIDTH 17 0
BBX 16 18 1 -1
BITMAP
000C
001E
000C
0000
0000
000E
801E
801F
8013
801F
C01F
FFFF
FFFF
7FFF
0000
01C0
01C0
01C0
ENDCHAR
STARTCHAR 06A4
ENCODING 1700
SWIDTH 765 0
DWIDTH 17 0
BBX 16 16 1 3
BITMAP
0018
0038
0014
0016
003E
0030
0000
000E
801E
801F
8013
801F
C01F
FFFF
FFFF
7FFF
ENDCHAR
STARTCHAR 06A5
ENCODING 1701
SWIDTH 765 0
DWIDTH 17 0
BBX 16 16 1 -4
BITMAP
000E
801E
801F
8013
801F
C01F
FFFF
FFFF
7FFF
0000
0006
001E
003A
0004
0006
0006
ENDCHAR
STARTCHAR 06A6
ENCODING 1702
SWIDTH 765 0
DWIDTH 17 0
BBX 16 16 1 4
BITMAP
005C
0078
00E4
0016
003E
0030
0000
000E
801E
801F
8013
801F
C01F
FFFF
FFFF
7FFF
ENDCHAR
STARTCHAR 06A7
ENCODING 1703
SWIDTH 630 0
DWIDTH 14 0
BBX 14 18 0 -3
BITMAP
0060
00F0
00E0
0020
0000
0030
0078
0078
20D8
20FC
407C
407C
4004
C00C
E018
7FF8
7FF0
1FC0
ENDCHAR
STARTCHAR 06A8
ENCODING 1704
SWIDTH 630 0
DWIDTH 14 0
BBX 14 20 0 -3
BITMAP
00C0
00C0
00C0
00B8
00F0
01D0
0000
0030
0078
0078
20D8
20FC
407C
407C
4004
C00C
E018
7FF8
7FF0
1FC0
ENDCHAR
STARTCHAR 06A9
ENCODING 1705
SWIDTH 765 0
DWIDTH 17 0
BBX 17 13 0 3
BITMAP
000100
000700
001F00
003C00
003000
003800
401C00
400E00
400300
E00180
FFFF80
7FFF80
3FFF80
ENDCHAR
STARTCHAR 06AA
ENCODING 1706
SWIDTH 765 0
DWIDTH 17 0
BBX 17 12 0 3
BITMAP
004000
01C000
07C000
0F0000
0F0000
07F800
43FE00
407F00
E00380
FFFF80
7FFF80
3FFF80
ENDCHAR
STARTCHAR 06AB
ENCODING 1707
SWIDTH 765 0
DWIDTH 17 0
BBX 17 13 0 3
BITMAP
000100
000700
001F00
003E80
003280
003900
401C00
400E00
400300
E00180
FFFF80
7FFF80
3FFF80
ENDCHAR
STARTCHAR 06AC
ENCODING 1708
SWIDTH 540 0
DWIDTH 12 0
BBX 12 17 0 3
BITMAP
0400
0700
0E00
0240
0060
0370
0270
0620
0720
0320
4320
4E30
4030
E010
FFF0
7FF0
3FF0
ENDCHAR
STARTCHAR 06AD
ENCODING 1709
SWIDTH 540 0
DWIDTH 12 0
BBX 12 16 0 3
BITMAP
0400
0B00
0840
0060
0370
0270
0620
0720
0320
4320
4E30
4030
E010
FFF0
7FF0
3FF0
ENDCHAR
STARTCHAR 06AE
ENCODING 1710
SWIDTH 540 0
DWIDTH 12 0
BBX 12 21 0 -4
BITMAP
0040
0060
0370
0270
0620
0720
0320
4320
4E30
4030
E010
FFF0
7FF0
3FF0
0000
0180
0780
0E80
0500
0380
0100
ENDCHAR
STARTCHAR 06AF
ENCODING 1711
SWIDTH 765 0
DWIDTH 17 0
BBX 17 16 0 3
BITMAP
000300
000F00
001E00
007900
006700
001F00
003C00
003000
003800
401C00
400E00
400300
E00180
FFFF80
7FFF80
3FFF80
ENDCHAR
STARTCHAR 06B0
ENCODING 1712
SWIDTH 765 0
DWIDTH 17 0
BBX 17 16 0 3
BITMAP
000300
000F00
001E00
007900
006700
001F00
003E80
003280
003900
401C00
400E00
400300
E00180
FFFF80
7FFF80
3FFF80
ENDCHAR
STARTCHAR 06B1
ENCODING 1713
SWIDTH 765 0
DWIDTH 17 0
BBX 17 17 0 3
BITMAP
000800
002B00
002F00
001E00
007900
006700
001F00
003C00
003000
003800
401C00
400E00
400300
E00180
FFFF80
7FFF80
3FFF80
ENDCHAR
STARTCHAR 06B2
ENCODING 1714
SWIDTH 765 0
DWIDTH 17 0
BBX 17 20 0 -2
BITMAP
000300
000F00
001E00
007900
006700
001F00
003C00
003000
003800
401C00
400E00
400300
E00180
FFFF80
7FFF80
3FFF80
000000
006000
01E000
03A000
ENDCHAR
STARTCHAR 06B3
ENCODING 1715
SWIDTH 765 0
DWIDTH 17 0
BBX 17 22 0 -4
BITMAP
000300
000F00
001E00
007900
006700
001F00
003C00
003000
003800
401C00
400E00
400300
E00180
FFFF80
7FFF80
3FFF80
000000
018000
018000
008000
006000
00E000
ENDCHAR
STARTCHAR 06B4
ENCODING 1716
SWIDTH 765 0
DWIDTH 17 0
BBX 17 17 0 3
BITMAP
002000
003B00
006F00
001E00
007900
006700
001F00
003C00
003000
003800
401C00
400E00
400300
E00180
FFFF80
7FFF80
3FFF80
ENDCHAR
STARTCHAR 06B5
ENCODING 1717
SWIDTH 450 0
DWIDTH 10 0
BBX 10 21 0 -1
BITMAP
0480
0300
0300
0100
0180
01C0
01C0
0080
0080
0080
0080
20C0
20C0
4040
4040
4040
C0C0
E1C0
7F80
7F00
3C00
ENDCHAR
STARTCHAR 06B6
ENCODING 1718
SWIDTH 450 0
DWIDTH 10 0
BBX 10 21 0 -1
BITMAP
0400
0700
0E00
0300
0180
01C0
01C0
0080
0080
0080
0080
20C0
20C0
4040
4040
4040
C0C0
E1C0
7F80
7F00
3C00
ENDCHAR
STARTCHAR 06B7
ENCODING 1719
SWIDTH 450 0
DWIDTH 10 0
BBX 10 21 0 -1
BITMAP
0200
0080
0600
0100
0180
01C0
01C0
0080
0080
0080
0080
20C0
20C0
4040
4040
4040
C0C0
E1C0
7F80
7F00
3C00
ENDCHAR
STARTCHAR 06B8
ENCODING 1720
SWIDTH 450 0
DWIDTH 10 0
BBX 10 21 0 -4
BITMAP
0100
0180
01C0
01C0
0080
0080
0080
0080
20C0
20C0
4040
4040
4040
C0C0
E1C0
7F80
7F00
3C00
0000
0800
0400
ENDCHAR
STARTCHAR 06B9
ENCODING 1721
SWIDTH 540 0
DWIDTH 12 0
BBX 11 17 1 -4
BITMAP
0E00
0E00
0600
0040
0060
4060
4060
8020
8020
8020
8060
E0E0
FFC0
7F80
0400
0E00
0E00
ENDCHAR
STARTCHAR 06BA
ENCODING 1722
SWIDTH 540 0
DWIDTH 12 0
BBX 11 11 1 -1
BITMAP
0040
0060
4060
4060
8020
8020
8020
8060
E0E0
FFC0
7F80
ENDCHAR
STARTCHAR 06BB
ENCODING 1723
SWIDTH 540 0
DWIDTH 12 0
BBX 11 18 1 0
BITMAP
0800
0800
0800
0F00
0900
1F00
0000
0040
0060
4060
4060
8020
8020
8020
8060
E0E0
FFC0
7F80
ENDCHAR
STARTCHAR 06BC
ENCODING 1724
SWIDTH 540 0
DWIDTH 12 0
BBX 11 17 1 -3
BITMAP
0E00
0E00
0600
0040
0060
4060
4060
8020
8020
8020
8060
E0E0
FFC0
7F80
1400
1400
0C00
ENDCHAR
STARTCHAR 06BD
ENCODING 1725
SWIDTH 540 0
DWIDTH 12 0
BBX 11 17 1 -1
BITMAP
0C00
1C00
0A00
1F00
1A00
1800
0040
0060
4060
4060
8020
8020
8020
8060
E0E0
FFC0
7F80
ENDCHAR
STARTCHAR 06BE
ENCODING 1726
SWIDTH 450 0
DWIDTH 10 0
BBX 10 11 -1 3
BITMAP
0800
0C00
0E00
0F00
1F00
1380
1680
3EC0
FFC0
FFC0
E380
ENDCHAR
STARTCHAR 06BF
ENCODING 1727
SWIDTH 585 0
DWIDTH 13 0
BBX 11 20 1 -4
BITMAP
0C00
1C00
0C00
0000
3C00
7FC0
FFC0
9F80
3800
6000
4300
8F00
9D00
8A00
8700
C300
E000
FC20
7FE0
3F80
ENDCHAR
STARTCHAR 06C0
ENCODING 1728
SWIDTH 360 0
DWIDTH 8 0
BBX 6 12 1 3
BITMAP
60
70
00
00
60
78
7C
9C
8C
FC
F8
F0
ENDCHAR
STARTCHAR 06C1
ENCODING 1729
SWIDTH 405 0
DWIDTH 9 0
BBX 8 5 1 2
BITMAP
38
3C
7F
CF
83
ENDCHAR
STARTCHAR 06C2
ENCODING 1730
SWIDTH 405 0
DWIDTH 9 0
BBX 8 10 1 2
BITMAP
30
28
30
00
00
38
3C
7F
CF
83
ENDCHAR
STARTCHAR 06C3
ENCODING 1731
SWIDTH 405 0
DWIDTH 9 0
BBX 8 11 1 2
BITMAP
08
7C
68
60
00
00
38
3C
7F
CF
83
ENDCHAR
STARTCHAR 06C4
ENCODING 1732
SWIDTH 450 0
DWIDTH 10 0
BBX 10 13 0 -2
BITMAP
0180
0380
03C0
06C0
0640
07C0
03C0
01C0
0CC0
9380
7F80
3F00
0400
ENDCHAR
STARTCHAR 06C5
ENCODING 1733
SWIDTH 450 0
DWIDTH 10 0
BBX 10 13 0 -2
BITMAP
0180
0380
03C0
06C0
0640
07C0
03C0
01C0
1FC0
8380
7F80
3F00
0400
ENDCHAR
STARTCHAR 06C6
ENCODING 1734
SWIDTH 450 0
DWIDTH 10 0
BBX 10 17 0 -2
BITMAP
0280
0380
0100
0000
0180
0380
03C0
06C0
0640
07C0
03C0
01C0
00C0
8380
7F80
3F00
0400
ENDCHAR
STARTCHAR 06C7
ENCODING 1735
SWIDTH 450 0
DWIDTH 10 0
BBX 10 19 0 -2
BITMAP
0180
0180
0180
0200
0000
0000
0180
0380
03C0
06C0
0640
07C0
03C0
01C0
00C0
8380
7F80
3F00
0400
ENDCHAR
STARTCHAR 06C8
ENCODING 1736
SWIDTH 450 0
DWIDTH 10 0
BBX 10 19 0 -1
BITMAP
0200
0200
0100
0100
0200
0000
0180
0380
03C0
06C0
0640
07C0
03C0
01C0
00C0
8380
7F80
3F00
0400
ENDCHAR
STARTCHAR 06C9
ENCODING 1737
SWIDTH 450 0
DWIDTH 10 0
BBX 10 17 0 -2
BITMAP
0100
0380
0680
0000
0180
0380
03C0
06C0
0640
07C0
03C0
01C0
00C0
8380
7F80
3F00
0400
ENDCHAR
STARTCHAR 06CA
ENCODING 1738
SWIDTH 450 0
DWIDTH 10 0
BBX 10 17 0 -1
BITMAP
05C0
0780
0E80
0000
0180
0380
03C0
06C0
0640
07C0
03C0
01C0
00C0
8380
7F80
3F00
0400
ENDCHAR
STARTCHAR 06CB
ENCODING 1739
SWIDTH 450 0
DWIDTH 10 0
BBX 10 20 0 -2
BITMAP
0600
0600
0600
05C0
0780
0E80
0000
0180
0380
03C0
06C0
0640
07C0
03C0
01C0
00C0
8380
7F80
3F00
0400
ENDCHAR
STARTCHAR 06CC
ENCODING 1740
SWIDTH 630 0
DWIDTH 14 0
BBX 11 11 2 -1
BITMAP
00E0
01E0
0320
4600
8600
87C0
83C0
80C0
83C0
FF80
FE00
ENDCHAR
STARTCHAR 06CD
ENCODING 1741
SWIDTH 630 0
DWIDTH 14 0
BBX 12 11 1 -1
BITMAP
0070
00F0
0190
6300
C300
43E0
41E0
4060
41E0
7FC0
7F00
ENDCHAR
STARTCHAR 06CE
ENCODING 1742
SWIDTH 630 0
DWIDTH 14 0
BBX 11 13 2 -1
BITMAP
2C00
3800
10E0
01E0
0320
4600
8600
87C0
83C0
80C0
83C0
FF80
FE00
ENDCHAR
STARTCHAR 06CF
ENCODING 1743
SWIDTH 450 0
DWIDTH 10 0
BBX 10 18 0 -2
BITMAP
0200
0700
0700
0000
0000
0180
0380
03C0
06C0
0640
07C0
03C0
01C0
00C0
8380
7F80
3F00
0400
ENDCHAR
STARTCHAR 06D0
ENCODING 1744
SWIDTH 630 0
DWIDTH 14 0
BBX 11 14 2 -4
BITMAP
00E0
01E0
0320
4600
8600
87C0
83C0
80C0
83C0
FF80
FE00
0000
0800
0800
ENDCHAR
STARTCHAR 06D1
ENCODING 1745
SWIDTH 630 0
DWIDTH 14 0
BBX 11 14 2 -4
BITMAP
00E0
01E0
0320
4600
8600
87C0
83C0
80C0
83C0
FF80
FE00
0000
1C00
0800
ENDCHAR
STARTCHAR 06D2
ENCODING 1746
SWIDTH 810 0
DWIDTH 18 0
BBX 17 11 1 -1
BITMAP
018000
038000
078000
1C8000
780000
F00000
C00000
800000
FFFF80
FFFE00
FFFC00
ENDCHAR
STARTCHAR 06D3
ENCODING 1747
SWIDTH 810 0
DWIDTH 18 0
BBX 17 14 1 -1
BITMAP
080000
180000
100000
018000
038000
078000
1C8000
780000
F00000
C00000
800000
FFFF80
FFFE00
FFFC00
ENDCHAR
STARTCHAR 06D4
ENCODING 1748
SWIDTH 225 0
DWIDTH 5 0
BBX 4 3 0 3
BITMAP
F0
F0
F0
ENDCHAR
STARTCHAR 06D5
ENCODING 1749
SWIDTH 360 0
DWIDTH 8 0
BBX 6 8 1 4
BITMAP
60
78
7C
9C
8C
FC
F8
F0
ENDCHAR
STARTCHAR 06D6
ENCODING 1750
SWIDTH 0 0
DWIDTH 0 0
BBX 10 8 -5 12
BITMAP
2000
3000
20C0
11C0
1FC0
7FC0
8000
FF00
ENDCHAR
STARTCHAR 06D7
ENCODING 1751
SWIDTH 0 0
DWIDTH 0 0
BBX 8 7 -4 13
BITMAP
30
16
16
1E
7E
80
FF
ENDCHAR
STARTCHAR 06D8
ENCODING 1752
SWIDTH 0 0
DWIDTH 0 0
BBX 4 3 -2 12
BITMAP
10
30
F0
ENDCHAR
STARTCHAR 06D9
ENCODING 1753
SWIDTH 0 0
DWIDTH 0 0
BBX 4 6 -2 13
BITMAP
90
D0
50
20
30
70
ENDCHAR
STARTCHAR 06DA
ENCODING 1754
SWIDTH 0 0
DWIDTH 0 0
BBX 5 7 -3 12
BITMAP
78
A0
C0
90
90
C0
78
ENDCHAR
STARTCHAR 06DB
ENCODING 1755
SWIDTH 0 0
DWIDTH 0 0
BBX 2 3 -1 12
BITMAP
80
80
C0
ENDCHAR
STARTCHAR 06DC
ENCODING 1756
SWIDTH 0 0
DWIDTH 0 0
BBX 10 4 -5 13
BITMAP
4540
87C0
8400
7800
ENDCHAR
STARTCHAR 06DD
ENCODING 1757
SWIDTH 1125 0
DWIDTH 25 0
BBX 23 24 1 -4
BITMAP
007C00
03FF80
1E00E0
1BFFB0
340058
200008
400004
400004
800002
800002
800002
800002
800002
800002
800002
800002
C00006
400004
60000C
300018
1C0070
13FFA0
0F01E0
01FE00
ENDCHAR
STARTCHAR 06DE
ENCODING 1758
SWIDTH 1080 0
DWIDTH 24 0
BBX 22 22 1 -2
BITMAP
003000
004800
008400
1FFFE0
120120
1400A0
180060
100020
300030
507828
904824
904824
507828
300030
100020
180060
1400A0
120120
1FFFE0
008400
004800
003000
ENDCHAR
STARTCHAR 06DF
ENCODING 1759
SWIDTH 0 0
DWIDTH 0 0
BBX 2 1 -1 12
BITMAP
C0
ENDCHAR
STARTCHAR 06E0
ENCODING 1760
SWIDTH 0 0
DWIDTH 0 0
BBX 2 1 -1 12
BITMAP
C0
ENDCHAR
STARTCHAR 06E1
ENCODING 1761
SWIDTH 0 0
DWIDTH 0 0
BBX 6 3 -3 12
BITMAP
70
18
FC
ENDCHAR
STARTCHAR 06E2
ENCODING 1762
SWIDTH 0 0
DWIDTH 0 0
BBX 4 5 -2 12
BITMAP
60
30
F0
80
80
ENDCHAR
STARTCHAR 06E3
ENCODING 1763
SWIDTH 0 0
DWIDTH 0 0
BBX 10 5 -5 -4
BITMAP
4540
87C0
8400
7C00
3000
ENDCHAR
STARTCHAR 06E4
ENCODING 1764
SWIDTH 0 0
DWIDTH 0 0
BBX 0 0 -1 11
BITMAP
ENDCHAR
STARTCHAR 06E5
ENCODING 1765
SWIDTH 225 0
DWIDTH 5 0
BBX 4 5 1 12
BITMAP
30
50
30
10
E0
ENDCHAR
STARTCHAR 06E6
ENCODING 1766
SWIDTH 360 0
DWIDTH 8 0
BBX 8 5 0 12
BITMAP
10
30
60
80
FF
ENDCHAR
STARTCHAR 06E7
ENCODING 1767
SWIDTH 0 0
DWIDTH 0 0
BBX 8 5 -4 12
BITMAP
10
30
60
80
FF
ENDCHAR
STARTCHAR 06E8
ENCODING 1768
SWIDTH 0 0
DWIDTH 0 0
BBX 6 6 -3 13
BITMAP
30
00
04
84
84
F8
ENDCHAR
STARTCHAR 06E9
ENCODING 1769
SWIDTH 585 0
DWIDTH 13 0
BBX 11 18 1 0
BITMAP
0400
0A00
1500
2A80
5F40
B1A0
B1A0
5B40
3B40
3B80
3B80
3B80
3B80
3B80
3B80
3540
5F40
FFE0
ENDCHAR
STARTCHAR 06EA
ENCODING 1770
SWIDTH 0 0
DWIDTH 0 0
BBX 3 2 -2 -3
BITMAP
E0
60
ENDCHAR
STARTCHAR 06EB
ENCODING 1771
SWIDTH 0 0
DWIDTH 0 0
BBX 4 3 -2 12
BITMAP
60
90
60
ENDCHAR
STARTCHAR 06EC
ENCODING 1772
SWIDTH 0 0
DWIDTH 0 0
BBX 2 1 -1 12
BITMAP
C0
ENDCHAR
STARTCHAR 06ED
ENCODING 1773
SWIDTH 0 0
DWIDTH 0 0
BBX 4 6 -2 -5
BITMAP
60
30
F0
80
80
80
ENDCHAR
STARTCHAR 06F0
ENCODING 1776
SWIDTH 540 0
DWIDTH 12 0
BBX 4 5 4 5
BITMAP
40
60
F0
F0
20
ENDCHAR
STARTCHAR 06F1
ENCODING 1777
SWIDTH 540 0
DWIDTH 12 0
BBX 4 12 4 4
BITMAP
C0
E0
E0
E0
70
30
30
30
10
10
10
10
ENDCHAR
STARTCHAR 06F2
ENCODING 1778
SWIDTH 540 0
DWIDTH 12 0
BBX 6 12 3 4
BITMAP
C4
FC
FC
7C
70
30
30
10
10
10
10
10
ENDCHAR
STARTCHAR 06F3
ENCODING 1779
SWIDTH 540 0
DWIDTH 12 0
BBX 9 12 2 3
BITMAP
0480
C480
FF80
FF00
FF00
7000
2000
3000
3000
3000
3000
2000
ENDCHAR
STARTCHAR 06F4
ENCODING 1780
SWIDTH 540 0
DWIDTH 12 0
BBX 8 13 2 3
BITMAP
0E
C9
F0
FF
7F
7E
30
30
10
10
10
10
10
ENDCHAR
STARTCHAR 06F5
ENCODING 1781
SWIDTH 540 0
DWIDTH 12 0
BBX 8 13 2 3
BITMAP
10
18
1C
1C
1E
27
23
41
C1
ED
FF
FE
70
ENDCHAR
STARTCHAR 06F6
ENCODING 1782
SWIDTH 540 0
DWIDTH 12 0
BBX 8 13 2 3
BITMAP
1C
3E
40
41
FF
7E
3C
18
30
30
20
20
20
ENDCHAR
STARTCHAR 06F7
ENCODING 1783
SWIDTH 540 0
DWIDTH 12 0
BBX 8 12 2 4
BITMAP
81
C3
C3
E3
66
24
34
14
18
18
08
08
ENDCHAR
STARTCHAR 06F8
ENCODING 1784
SWIDTH 540 0
DWIDTH 12 0
BBX 8 12 2 3
BITMAP
10
18
18
18
1C
2C
26
67
E7
C3
C3
81
ENDCHAR
STARTCHAR 06F9
ENCODING 1785
SWIDTH 540 0
DWIDTH 12 0
BBX 6 13 3 3
BITMAP
30
78
F8
98
F8
F8
F8
08
0C
0C
0C
0C
04
ENDCHAR
STARTCHAR 06FA
ENCODING 1786
SWIDTH 900 0
DWIDTH 20 0
BBX 19 18 1 -1
BITMAP
000200
000700
000200
0005C0
0007C0
000600
000000
004020
006160
406160
406320
803FE0
803FE0
803E60
C06000
E0E300
FFC780
7F8300
ENDCHAR
STARTCHAR 06FB
ENCODING 1787
SWIDTH 1080 0
DWIDTH 24 0
BBX 23 17 1 -1
BITMAP
000300
000380
000300
000100
000000
00003C
00407C
0061FE
406386
406E06
803FFE
803FFE
803FFE
C06000
E0E0C0
FFC1C0
7F80C0
ENDCHAR
STARTCHAR 06FC
ENCODING 1788
SWIDTH 540 0
DWIDTH 12 0
BBX 10 23 1 -5
BITMAP
1000
3800
3800
0000
0000
3E00
7F00
6000
C000
E380
FF00
7E00
7000
E000
C600
8700
8700
8200
C000
F800
FFC0
7F00
0600
ENDCHAR
STARTCHAR 06FD
ENCODING 1789
SWIDTH 450 0
DWIDTH 10 0
BBX 8 14 1 -3
BITMAP
3C
3C
6C
60
F7
7F
3C
30
60
40
16
16
16
16
ENDCHAR
STARTCHAR 06FE
ENCODING 1790
SWIDTH 360 0
DWIDTH 8 0
BBX 8 14 0 -5
BITMAP
08
1C
3E
2F
1F
7F
7F
C0
C0
4B
4B
6B
2B
20
ENDCHAR
STARTCHAR 1E80
ENCODING 7808
SWIDTH 945 0
DWIDTH 21 0
BBX 21 21 0 0
BITMAP
01E000
00E000
007000
003000
000000
E07838
F0F878
70F870
70F870
71DC70
79DC70
39DCE0
39DCE0
3B8EE0
3B8EE0
1F8FC0
1F8FC0
1F07C0
1F07C0
0F0780
0E0380
ENDCHAR
STARTCHAR 1E81
ENCODING 7809
SWIDTH 765 0
DWIDTH 17 0
BBX 17 16 0 0
BITMAP
038000
01C000
00C000
000000
E1C380
E1C380
71E380
73E700
73E700
336700
3B7600
3F7E00
1F3E00
1E3C00
1E3C00
0E1C00
ENDCHAR
STARTCHAR 1E82
ENCODING 7810
SWIDTH 945 0
DWIDTH 21 0
BBX 21 21 0 0
BITMAP
003C00
003800
007000
006000
000000
E07838
F0F878
70F870
70F870
71DC70
79DC70
39DCE0
39DCE0
3B8EE0
3B8EE0
1F8FC0
1F8FC0
1F07C0
1F07C0
0F0780
0E0380
ENDCHAR
STARTCHAR 1E83
ENCODING 7811
SWIDTH 765 0
DWIDTH 17 0
BBX 17 16 0 0
BITMAP
00E000
00C000
018000
000000
E1C380
E1C380
71E380
73E700
73E700
336700
3B7600
3F7E00
1F3E00
1E3C00
1E3C00
0E1C00
ENDCHAR
STARTCHAR 1E84
ENCODING 7812
SWIDTH 945 0
DWIDTH 21 0
BBX 21 20 0 0
BITMAP
019C00
019C00
019C00
000000
E07838
F0F878
70F870
70F870
71DC70
79DC70
39DCE0
39DCE0
3B8EE0
3B8EE0
1F8FC0
1F8FC0
1F07C0
1F07C0
0F0780
0E0380
ENDCHAR
STARTCHAR 1E85
ENCODING 7813
SWIDTH 765 0
DWIDTH 17 0
BBX 17 16 0 0
BITMAP
073000
073000
000000
000000
E1C380
E1C380
71E380
73E700
73E700
336700
3B7600
3F7E00
1F3E00
1E3C00
1E3C00
0E1C00
ENDCHAR
STARTCHAR 1EA0
ENCODING 7840
SWIDTH 720 0
DWIDTH 16 0
BBX 16 20 0 -4
BITMAP
03C0
03C0
07E0
07E0
0FE0
0EF0
0E70
1E78
1C38
1C38
3FFC
3FFC
781E
701E
700E
F00F
0000
0380
0380
0380
ENDCHAR
STARTCHAR 1EA1
ENCODING 7841
SWIDTH 540 0
DWIDTH 12 0
BBX 10 16 1 -4
BITMAP
1F00
7F80
FFC0
E1C0
01C0
1FC0
7FC0
E1C0
E1C0
E3C0
FFC0
7DC0
0000
1C00
1C00
1C00
ENDCHAR
STARTCHAR 1EA2
ENCODING 7842
SWIDTH 720 0
DWIDTH 16 0
BBX 16 20 0 0
BITMAP
03C0
0040
01C0
0180
03C0
03C0
07E0
07E0
0FE0
0EF0
0E70
1E78
1C38
1C38
3FFC
3FFC
781E
701E
700E
F00F
ENDCHAR
STARTCHAR 1EA3
ENCODING 7843
SWIDTH 540 0
DWIDTH 12 0
BBX 10 17 1 0
BITMAP
1800
1E00
0300
0C00
0000
1F00
7F80
FFC0
E1C0
01C0
1FC0
7FC0
E1C0
E1C0
E3C0
FFC0
7DC0
ENDCHAR
STARTCHAR 1EA4
ENCODING 7844
SWIDTH 720 0
DWIDTH 16 0
BBX 16 20 0 0
BITMAP
01C0
0180
0380
0660
03C0
03C0
07E0
07E0
0FE0
0EF0
0E70
1E78
1C38
1C38
3FFC
3FFC
781E
701E
700E
F00F
ENDCHAR
STARTCHAR 1EA5
ENCODING 7845
SWIDTH 540 0
DWIDTH 12 0
BBX 10 20 1 0
BITMAP
0700
0600
0C00
0000
1E00
1F00
3300
0000
1F00
7F80
FFC0
E1C0
01C0
1FC0
7FC0
E1C0
E1C0
E3C0
FFC0
7DC0
ENDCHAR
STARTCHAR 1EA6
ENCODING 7846
SWIDTH 720 0
DWIDTH 16 0
BBX 16 20 0 0
BITMAP
0700
0180
0380
0660
03C0
03C0
07E0
07E0
0FE0
0EF0
0E70
1E78
1C38
1C38
3FFC
3FFC
781E
701E
700E
F00F
ENDCHAR
STARTCHAR 1EA7
ENCODING 7847
SWIDTH 540 0
DWIDTH 12 0
BBX 10 20 1 0
BITMAP
3800
1C00
0C00
0000
1E00
1F00
3300
0000
1F00
7F80
FFC0
E1C0
01C0
1FC0
7FC0
E1C0
E1C0
E3C0
FFC0
7DC0
ENDCHAR
STARTCHAR 1EA8
ENCODING 7848
SWIDTH 720 0
DWIDTH 16 0
BBX 16 20 0 0
BITMAP
03C0
0180
0380
0660
03C0
03C0
07E0
07E0
0FE0
0EF0
0E70
1E78
1C38
1C38
3FFC
3FFC
781E
701E
700E
F00F
ENDCHAR
STARTCHAR 1EA9
ENCODING 7849
SWIDTH 540 0
DWIDTH 12 0
BBX 10 20 1 0
BITMAP
1E00
0300
0600
0400
1E00
1F00
3300
0000
1F00
7F80
FFC0
E1C0
01C0
1FC0
7FC0
E1C0
E1C0
E3C0
FFC0
7DC0
ENDCHAR
STARTCHAR 1EAA
ENCODING 7850
SWIDTH 720 0
DWIDTH 16 0
BBX 16 20 0 0
BITMAP
0720
08E0
0380
0660
03C0
03C0
07E0
07E0
0FE0
0EF0
0E70
1E78
1C38
1C38
3FFC
3FFC
781E
701E
700E
F00F
ENDCHAR
STARTCHAR 1EAB
ENCODING 7851
SWIDTH 540 0
DWIDTH 12 0
BBX 10 19 1 0
BITMAP
3D80
2700
0000
1E00
1F00
3300
0000
1F00
7F80
FFC0
E1C0
01C0
1FC0
7FC0
E1C0
E1C0
E3C0
FFC0
7DC0
ENDCHAR
STARTCHAR 1EAC
ENCODING 7852
SWIDTH 720 0
DWIDTH 16 0
BBX 16 22 0 -4
BITMAP
0380
0660
03C0
03C0
07E0
07E0
0FE0
0EF0
0E70
1E78
1C38
1C38
3FFC
3FFC
781E
701E
700E
F00F
0000
0380
0380
0380
ENDCHAR
STARTCHAR 1EAD
ENCODING 7853
SWIDTH 540 0
DWIDTH 12 0
BBX 10 20 1 -4
BITMAP
1E00
1F00
3300
0000
1F00
7F80
FFC0
E1C0
01C0
1FC0
7FC0
E1C0
E1C0
E3C0
FFC0
7DC0
0000
1C00
1C00
1C00
ENDCHAR
STARTCHAR 1EAE
ENCODING 7854
SWIDTH 720 0
DWIDTH 16 0
BBX 16 20 0 0
BITMAP
01C0
0180
0460
0380
03C0
03C0
07E0
07E0
0FE0
0EF0
0E70
1E78
1C38
1C38
3FFC
3FFC
781E
701E
700E
F00F
ENDCHAR
STARTCHAR 1EAF
ENCODING 7855
SWIDTH 540 0
DWIDTH 12 0
BBX 10 20 1 0
BITMAP
0700
0600
0C00
0000
2100
3F00
1E00
0000
1F00
7F80
FFC0
E1C0
01C0
1FC0
7FC0
E1C0
E1C0
E3C0
FFC0
7DC0
ENDCHAR
STARTCHAR 1EB0
ENCODING 7856
SWIDTH 720 0
DWIDTH 16 0
BBX 16 20 0 0
BITMAP
0700
0180
0460
0380
03C0
03C0
07E0
07E0
0FE0
0EF0
0E70
1E78
1C38
1C38
3FFC
3FFC
781E
701E
700E
F00F
ENDCHAR
STARTCHAR 1EB1
ENCODING 7857
SWIDTH 540 0
DWIDTH 12 0
BBX 10 20 1 0
BITMAP
3800
1C00
0C00
0000
2100
3F00
1E00
0000
1F00
7F80
FFC0
E1C0
01C0
1FC0
7FC0
E1C0
E1C0
E3C0
FFC0
7DC0
ENDCHAR
STARTCHAR 1EB2
ENCODING 7858
SWIDTH 720 0
DWIDTH 16 0
BBX 16 20 0 0
BITMAP
03C0
0180
0460
0380
03C0
03C0
07E0
07E0
0FE0
0EF0
0E70
1E78
1C38
1C38
3FFC
3FFC
781E
701E
700E
F00F
ENDCHAR
STARTCHAR 1EB3
ENCODING 7859
SWIDTH 540 0
DWIDTH 12 0
BBX 10 20 1 0
BITMAP
1E00
0300
0600
0400
2100
3F00
1E00
0000
1F00
7F80
FFC0
E1C0
01C0
1FC0
7FC0
E1C0
E1C0
E3C0
FFC0
7DC0
ENDCHAR
STARTCHAR 1EB4
ENCODING 7860
SWIDTH 720 0
DWIDTH 16 0
BBX 16 20 0 0
BITMAP
0720
08E0
0460
0380
03C0
03C0
07E0
07E0
0FE0
0EF0
0E70
1E78
1C38
1C38
3FFC
3FFC
781E
701E
700E
F00F
ENDCHAR
STARTCHAR 1EB5
ENCODING 7861
SWIDTH 540 0
DWIDTH 12 0
BBX 10 19 1 0
BITMAP
3D80
2700
0000
2100
3F00
1E00
0000
1F00
7F80
FFC0
E1C0
01C0
1FC0
7FC0
E1C0
E1C0
E3C0
FFC0
7DC0
ENDCHAR
STARTCHAR 1EB6
ENCODING 7862
SWIDTH 720 0
DWIDTH 16 0
BBX 16 22 0 -4
BITMAP
0460
0380
03C0
03C0
07E0
07E0
0FE0
0EF0
0E70
1E78
1C38
1C38
3FFC
3FFC
781E
701E
700E
F00F
0000
0380
0380
0380
ENDCHAR
STARTCHAR 1EB7
ENCODING 7863
SWIDTH 540 0
DWIDTH 12 0
BBX 10 20 1 -4
BITMAP
2100
3F00
1E00
0000
1F00
7F80
FFC0
E1C0
01C0
1FC0
7FC0
E1C0
E1C0
E3C0
FFC0
7DC0
0000
1C00
1C00
1C00
ENDCHAR
STARTCHAR 1EB8
ENCODING 7864
SWIDTH 675 0
DWIDTH 15 0
BBX 12 20 2 -4
BITMAP
FFE0
FFE0
FFE0
E000
E000
E000
FFE0
FFE0
FFE0
E000
E000
E000
E000
FFF0
FFF0
FFF0
0000
0E00
0E00
0E00
ENDCHAR
STARTCHAR 1EB9
ENCODING 7865
SWIDTH 540 0
DWIDTH 12 0
BBX 10 16 1 -4
BITMAP
1E00
3F80
7F80
E1C0
E1C0
FFC0
FFC0
E000
E100
F1C0
7F80
3F00
0000
0E00
0E00
0E00
ENDCHAR
STARTCHAR 1EBA
ENCODING 7866
SWIDTH 675 0
DWIDTH 15 0
BBX 12 20 2 0
BITMAP
1E00
0300
0700
0400
FFE0
FFE0
FFE0
E000
E000
E000
FFE0
FFE0
FFE0
E000
E000
E000
E000
FFF0
FFF0
FFF0
ENDCHAR
STARTCHAR 1EBB
ENCODING 7867
SWIDTH 540 0
DWIDTH 12 0
BBX 10 17 1 0
BITMAP
1800
1E00
0300
0C00
0000
1E00
3F80
7F80
E1C0
E1C0
FFC0
FFC0
E000
E100
F1C0
7F80
3F00
ENDCHAR
STARTCHAR 1EBC
ENCODING 7868
SWIDTH 675 0
DWIDTH 15 0
BBX 12 20 2 0
BITMAP
1080
3F80
2780
0000
FFE0
FFE0
FFE0
E000
E000
E000
FFE0
FFE0
FFE0
E000
E000
E000
E000
FFF0
FFF0
FFF0
ENDCHAR
STARTCHAR 1EBD
ENCODING 7869
SWIDTH 540 0
DWIDTH 12 0
BBX 10 16 1 0
BITMAP
3880
3F80
2700
0000
1E00
3F80
7F80
E1C0
E1C0
FFC0
FFC0
E000
E100
F1C0
7F80
3F00
ENDCHAR
STARTCHAR 1EBE
ENCODING 7870
SWIDTH 675 0
DWIDTH 15 0
BBX 12 20 2 0
BITMAP
0700
0600
0E00
1980
FFE0
FFE0
FFE0
E000
E000
E000
FFE0
FFE0
FFE0
E000
E000
E000
E000
FFF0
FFF0
FFF0
ENDCHAR
STARTCHAR 1EBF
ENCODING 7871
SWIDTH 540 0
DWIDTH 12 0
BBX 10 20 1 0
BITMAP
0700
0E00
0C00
0000
1E00
3F00
3300
0000
1E00
3F80
7F80
E1C0
E1C0
FFC0
FFC0
E000
E100
F1C0
7F80
3F00
ENDCHAR
STARTCHAR 1EC0
ENCODING 7872
SWIDTH 675 0
DWIDTH 15 0
BBX 12 20 2 0
BITMAP
1C00
0600
0E00
1980
FFE0
FFE0
FFE0
E000
E000
E000
FFE0
FFE0
FFE0
E000
E000
E000
E000
FFF0
FFF0
FFF0
ENDCHAR
STARTCHAR 1EC1
ENCODING 7873
SWIDTH 540 0
DWIDTH 12 0
BBX 10 20 1 0
BITMAP
3800
1C00
0C00
0000
1E00
3F00
3300
0000
1E00
3F80
7F80
E1C0
E1C0
FFC0
FFC0
E000
E100
F1C0
7F80
3F00
ENDCHAR
STARTCHAR 1EC2
ENCODING 7874
SWIDTH 675 0
DWIDTH 15 0
BBX 12 20 2 0
BITMAP
0F00
0600
0E00
1980
FFE0
FFE0
FFE0
E000
E000
E000
FFE0
FFE0
FFE0
E000
E000
E000
E000
FFF0
FFF0
FFF0
ENDCHAR
STARTCHAR 1EC3
ENCODING 7875
SWIDTH 540 0
DWIDTH 12 0
BBX 10 20 1 0
BITMAP
1E00
0300
0E00
0C00
1E00
3F00
3300
0000
1E00
3F80
7F80
E1C0
E1C0
FFC0
FFC0
E000
E100
F1C0
7F80
3F00
ENDCHAR
STARTCHAR 1EC4
ENCODING 7876
SWIDTH 675 0
DWIDTH 15 0
BBX 12 20 2 0
BITMAP
1C80
2380
0E00
1980
FFE0
FFE0
FFE0
E000
E000
E000
FFE0
FFE0
FFE0
E000
E000
E000
E000
FFF0
FFF0
FFF0
ENDCHAR
STARTCHAR 1EC5
ENCODING 7877
SWIDTH 540 0
DWIDTH 12 0
BBX 10 19 1 0
BITMAP
3D80
2700
0000
1E00
3F00
3300
0000
1E00
3F80
7F80
E1C0
E1C0
FFC0
FFC0
E000
E100
F1C0
7F80
3F00
ENDCHAR
STARTCHAR 1EC6
ENCODING 7878
SWIDTH 675 0
DWIDTH 15 0
BBX 12 22 2 -4
BITMAP
0E00
1980
FFE0
FFE0
FFE0
E000
E000
E000
FFE0
FFE0
FFE0
E000
E000
E000
E000
FFF0
FFF0
FFF0
0000
0E00
0E00
0E00
ENDCHAR
STARTCHAR 1EC7
ENCODING 7879
SWIDTH 540 0
DWIDTH 12 0
BBX 10 20 1 -4
BITMAP
1E00
3F00
3300
0000
1E00
3F80
7F80
E1C0
E1C0
FFC0
FFC0
E000
E100
F1C0
7F80
3F00
0000
0E00
0E00
0E00
ENDCHAR
STARTCHAR 1EC8
ENCODING 7880
SWIDTH 270 0
DWIDTH 6 0
BBX 5 20 1 0
BITMAP
F0
18
30
20
70
70
70
70
70
70
70
70
70
70
70
70
70
70
70
70
ENDCHAR
STARTCHAR 1EC9
ENCODING 7881
SWIDTH 270 0
DWIDTH 6 0
BBX 5 17 1 0
BITMAP
C0
F0
18
20
00
70
70
70
70
70
70
70
70
70
70
70
70
ENDCHAR
STARTCHAR 1ECA
ENCODING 7882
SWIDTH 270 0
DWIDTH 6 0
BBX 3 20 2 -4
BITMAP
E0
E0
E0
E0
E0
E0
E0
E0
E0
E0
E0
E0
E0
E0
E0
E0
00
E0
E0
E0
ENDCHAR
STARTCHAR 1ECB
ENCODING 7883
SWIDTH 270 0
DWIDTH 6 0
BBX 3 20 2 -4
BITMAP
E0
E0
E0
00
E0
E0
E0
E0
E0
E0
E0
E0
E0
E0
E0
E0
00
E0
E0
E0
ENDCHAR
STARTCHAR 1ECC
ENCODING 7884
SWIDTH 765 0
DWIDTH 17 0
BBX 15 20 1 -4
BITMAP
0FE0
1FF8
3FFC
783C
701E
F00E
E00E
E00E
E00E
E00E
F00E
F01E
783C
3EFC
3FF8
0FE0
0000
0380
0380
0380
ENDCHAR
STARTCHAR 1ECD
ENCODING 7885
SWIDTH 630 0
DWIDTH 14 0
BBX 12 16 1 -4
BITMAP
0F00
3FC0
7FE0
F0E0
E0F0
E070
E070
E070
F0E0
79E0
7FC0
1F80
0000
0E00
0E00
0E00
ENDCHAR
STARTCHAR 1ECE
ENCODING 7886
SWIDTH 765 0
DWIDTH 17 0
BBX 15 20 1 0
BITMAP
03C0
00C0
01C0
0100
0FE0
1FF8
3FFC
783C
701E
F00E
E00E
E00E
E00E
E00E
F00E
F01E
783C
3EFC
3FF8
0FE0
ENDCHAR
STARTCHAR 1ECF
ENCODING 7887
SWIDTH 630 0
DWIDTH 14 0
BBX 12 17 1 0
BITMAP
0C00
0F00
0100
0600
0000
0F00
3FC0
7FE0
F0E0
E0F0
E070
E070
E070
F0E0
79E0
7FC0
1F80
ENDCHAR
STARTCHAR 1ED0
ENCODING 7888
SWIDTH 765 0
DWIDTH 17 0
BBX 15 20 1 0
BITMAP
01C0
0180
0380
0E60
0FE0
1FF8
3FFC
783C
701E
F00E
E00E
E00E
E00E
E00E
F00E
F01E
783C
3EFC
3FF8
0FE0
ENDCHAR
STARTCHAR 1ED1
ENCODING 7889
SWIDTH 630 0
DWIDTH 14 0
BBX 12 20 1 0
BITMAP
0380
0700
0600
0000
0F00
1F00
1980
0000
0F00
3FC0
7FE0
F0E0
E0F0
E070
E070
E070
F0E0
79E0
7FC0
1F80
ENDCHAR
STARTCHAR 1ED2
ENCODING 7890
SWIDTH 765 0
DWIDTH 17 0
BBX 15 20 1 0
BITMAP
0700
0180
0380
0E60
0FE0
1FF8
3FFC
783C
701E
F00E
E00E
E00E
E00E
E00E
F00E
F01E
783C
3EFC
3FF8
0FE0
ENDCHAR
STARTCHAR 1ED3
ENCODING 7891
SWIDTH 630 0
DWIDTH 14 0
BBX 12 20 1 0
BITMAP
1C00
0C00
0600
0000
0F00
1F00
1980
0000
0F00
3FC0
7FE0
F0E0
E0F0
E070
E070
E070
F0E0
79E0
7FC0
1F80
ENDCHAR
STARTCHAR 1ED4
ENCODING 7892
SWIDTH 765 0
DWIDTH 17 0
BBX 15 20 1 0
BITMAP
03C0
0180
0380
0E60
0FE0
1FF8
3FFC
783C
701E
F00E
E00E
E00E
E00E
E00E
F00E
F01E
783C
3EFC
3FF8
0FE0
ENDCHAR
STARTCHAR 1ED5
ENCODING 7893
SWIDTH 630 0
DWIDTH 14 0
BBX 12 20 1 0
BITMAP
0F00
0300
0700
0400
0F00
1F00
1980
0000
0F00
3FC0
7FE0
F0E0
E0F0
E070
E070
E070
F0E0
79E0
7FC0
1F80
ENDCHAR
STARTCHAR 1ED6
ENCODING 7894
SWIDTH 765 0
DWIDTH 17 0
BBX 15 20 1 0
BITMAP
0720
08C0
0380
0E60
0FE0
1FF8
3FFC
783C
701E
F00E
E00E
E00E
E00E
E00E
F00E
F01E
783C
3EFC
3FF8
0FE0
ENDCHAR
STARTCHAR 1ED7
ENCODING 7895
SWIDTH 630 0
DWIDTH 14 0
BBX 12 19 1 0
BITMAP
1E80
3780
0000
0F00
1F00
1980
0000
0F00
3FC0
7FE0
F0E0
E0F0
E070
E070
E070
F0E0
79E0
7FC0
1F80
ENDCHAR
STARTCHAR 1ED8
ENCODING 7896
SWIDTH 765 0
DWIDTH 17 0
BBX 15 22 1 -4
BITMAP
0380
0E60
0FE0
1FF8
3FFC
783C
701E
F00E
E00E
E00E
E00E
E00E
F00E
F01E
783C
3EFC
3FF8
0FE0
0000
0380
0380
0380
ENDCHAR
STARTCHAR 1ED9
ENCODING 7897
SWIDTH 630 0
DWIDTH 14 0
BBX 12 20 1 -4
BITMAP
0F00
1F00
1980
0000
0F00
3FC0
7FE0
F0E0
E0F0
E070
E070
E070
F0E0
79E0
7FC0
1F80
0000
0E00
0E00
0E00
ENDCHAR
STARTCHAR 1EDA
ENCODING 7898
SWIDTH 855 0
DWIDTH 19 0
BBX 18 20 1 0
BITMAP
01C000
038000
030000
000000
0FE1C0
1FF9C0
3FFDC0
783CC0
701EC0
F00F80
E00F00
E00E00
E00E00
E00E00
F00E00
F01E00
781C00
3EFC00
3FF800
0FE000
ENDCHAR
STARTCHAR 1EDB
ENCODING 7899
SWIDTH 720 0
DWIDTH 16 0
BBX 15 16 1 0
BITMAP
0780
0700
0600
0000
0F0E
3FCE
7FEE
F0EE
E0F6
E07C
E078
E0F0
F0E0
79E0
7FC0
1F80
ENDCHAR
STARTCHAR 1EDC
ENCODING 7900
SWIDTH 855 0
DWIDTH 19 0
BBX 18 20 1 0
BITMAP
070000
038000
018000
000000
0FE1C0
1FF9C0
3FFDC0
783CC0
701EC0
F00F80
E00F00
E00E00
E00E00
E00E00
F00E00
F01E00
781C00
3EFC00
3FF800
0FE000
ENDCHAR
STARTCHAR 1EDD
ENCODING 7901
SWIDTH 720 0
DWIDTH 16 0
BBX 15 16 1 0
BITMAP
1C00
0E00
0600
0000
0F0E
3FCE
7FEE
F0EE
E0F6
E07C
E078
E0F0
F0E0
79E0
7FC0
1F80
ENDCHAR
STARTCHAR 1EDE
ENCODING 7902
SWIDTH 855 0
DWIDTH 19 0
BBX 18 20 1 0
BITMAP
03C000
00C000
01C000
010000
0FE1C0
1FF9C0
3FFDC0
783CC0
701EC0
F00F80
E00F00
E00E00
E00E00
E00E00
F00E00
F01E00
781C00
3EFC00
3FF800
0FE000
ENDCHAR
STARTCHAR 1EDF
ENCODING 7903
SWIDTH 720 0
DWIDTH 16 0
BBX 15 17 1 0
BITMAP
0C00
0F00
0100
0600
0000
0F0E
3FCE
7FEE
F0EE
E0F6
E07C
E078
E0F0
F0E0
79E0
7FC0
1F80
ENDCHAR
STARTCHAR 1EE0
ENCODING 7904
SWIDTH 855 0
DWIDTH 19 0
BBX 18 20 1 0
BITMAP
042000
0FE000
09E000
000000
0FE1C0
1FF9C0
3FFDC0
783CC0
701EC0
F00F80
E00F00
E00E00
E00E00
E00E00
F00E00
F01E00
781C00
3EFC00
3FF800
0FE000
ENDCHAR
STARTCHAR 1EE1
ENCODING 7905
SWIDTH 720 0
DWIDTH 16 0
BBX 15 16 1 0
BITMAP
18C0
3F80
3380
0000
0F0E
3FCE
7FEE
F0EE
E0F6
E07C
E078
E0F0
F0E0
79E0
7FC0
1F80
ENDCHAR
STARTCHAR 1EE2
ENCODING 7906
SWIDTH 855 0
DWIDTH 19 0
BBX 18 20 1 -4
BITMAP
0FE1C0
1FF9C0
3FFDC0
783CC0
701EC0
F00F80
E00F00
E00E00
E00E00
E00E00
F00E00
F01E00
781C00
3EFC00
3FF800
0FE000
000000
038000
038000
038000
ENDCHAR
STARTCHAR 1EE3
ENCODING 7907
SWIDTH 720 0
DWIDTH 16 0
BBX 15 16 1 -4
BITMAP
0F0E
3FCE
7FEE
F0EE
E0F6
E07C
E078
E0F0
F0E0
79E0
7FC0
1F80
0000
0E00
0E00
0E00
ENDCHAR
STARTCHAR 1EE4
ENCODING 7908
SWIDTH 720 0
DWIDTH 16 0
BBX 12 20 2 -4
BITMAP
E070
E070
E070
E070
E070
E070
E070
E070
E070
E070
E070
E070
E070
F9F0
7FE0
3FC0
0000
0F00
0F00
0F00
ENDCHAR
STARTCHAR 1EE5
ENCODING 7909
SWIDTH 630 0
DWIDTH 14 0
BBX 10 16 2 -4
BITMAP
E1C0
E1C0
E1C0
E1C0
E1C0
E1C0
E1C0
E1C0
E1C0
E3C0
FFC0
7DC0
0000
1C00
1C00
1C00
ENDCHAR
STARTCHAR 1EE6
ENCODING 7910
SWIDTH 720 0
DWIDTH 16 0
BBX 12 20 2 0
BITMAP
0F00
0100
0700
0600
E070
E070
E070
E070
E070
E070
E070
E070
E070
E070
E070
E070
E070
F9F0
7FE0
3FC0
ENDCHAR
STARTCHAR 1EE7
ENCODING 7911
SWIDTH 630 0
DWIDTH 14 0
BBX 10 17 2 0
BITMAP
1800
1E00
0200
0C00
0000
E1C0
E1C0
E1C0
E1C0
E1C0
E1C0
E1C0
E1C0
E1C0
E3C0
FFC0
7DC0
ENDCHAR
STARTCHAR 1EE8
ENCODING 7912
SWIDTH 810 0
DWIDTH 18 0
BBX 16 20 2 0
BITMAP
0700
0600
0E00
0000
E077
E077
E077
E071
E071
E077
E07C
E070
E070
E070
E070
E070
E070
F9F0
7FE0
3FC0
ENDCHAR
STARTCHAR 1EE9
ENCODING 7913
SWIDTH 720 0
DWIDTH 16 0
BBX 14 16 2 0
BITMAP
0F00
0E00
1C00
0000
E1DC
E1DC
E1DC
E1DC
E1CC
E1CC
E1F8
E1C0
E1C0
E3C0
FFC0
7DC0
ENDCHAR
STARTCHAR 1EEA
ENCODING 7914
SWIDTH 810 0
DWIDTH 18 0
BBX 16 20 2 0
BITMAP
1C00
0E00
0600
0000
E077
E077
E077
E071
E071
E077
E07C
E070
E070
E070
E070
E070
E070
F9F0
7FE0
3FC0
ENDCHAR
STARTCHAR 1EEB
ENCODING 7915
SWIDTH 720 0
DWIDTH 16 0
BBX 14 16 2 0
BITMAP
3800
1C00
0C00
0000
E1DC
E1DC
E1DC
E1DC
E1CC
E1CC
E1F8
E1C0
E1C0
E3C0
FFC0
7DC0
ENDCHAR
STARTCHAR 1EEC
ENCODING 7916
SWIDTH 810 0
DWIDTH 18 0
BBX 16 20 2 0
BITMAP
0F00
0100
0700
0600
E077
E077
E077
E071
E071
E077
E07C
E070
E070
E070
E070
E070
E070
F9F0
7FE0
3FC0
ENDCHAR
STARTCHAR 1EED
ENCODING 7917
SWIDTH 720 0
DWIDTH 16 0
BBX 14 17 2 0
BITMAP
1800
1E00
0200
0C00
0000
E1DC
E1DC
E1DC
E1DC
E1CC
E1CC
E1F8
E1C0
E1C0
E3C0
FFC0
7DC0
ENDCHAR
STARTCHAR 1EEE
ENCODING 7918
SWIDTH 810 0
DWIDTH 18 0
BBX 16 20 2 0
BITMAP
08C0
3FC0
3780
0000
E077
E077
E077
E071
E071
E077
E07C
E070
E070
E070
E070
E070
E070
F9F0
7FE0
3FC0
ENDCHAR
STARTCHAR 1EEF
ENCODING 7919
SWIDTH 720 0
DWIDTH 16 0
BBX 14 16 2 0
BITMAP
3100
7F00
4700
0000
E1DC
E1DC
E1DC
E1DC
E1CC
E1CC
E1F8
E1C0
E1C0
E3C0
FFC0
7DC0
ENDCHAR
STARTCHAR 1EF0
ENCODING 7920
SWIDTH 810 0
DWIDTH 18 0
BBX 16 20 2 -4
BITMAP
E077
E077
E077
E071
E071
E077
E07C
E070
E070
E070
E070
E070
E070
F9F0
7FE0
3FC0
0000
0F00
0F00
0F00
ENDCHAR
STARTCHAR 1EF1
ENCODING 7921
SWIDTH 720 0
DWIDTH 16 0
BBX 14 16 2 -4
BITMAP
E1DC
E1DC
E1DC
E1DC
E1CC
E1CC
E1F8
E1C0
E1C0
E3C0
FFC0
7DC0
0000
1C00
1C00
1C00
ENDCHAR
STARTCHAR 1EF2
ENCODING 7922
SWIDTH 675 0
DWIDTH 15 0
BBX 15 21 0 0
BITMAP
0F00
0700
0380
0180
0000
F01E
783C
7838
3C78
1C70
1EE0
0FE0
07C0
07C0
0380
0380
0380
0380
0380
0380
0380
ENDCHAR
STARTCHAR 1EF3
ENCODING 7923
SWIDTH 540 0
DWIDTH 12 0
BBX 12 21 0 -5
BITMAP
1E00
0E00
0700
0000
E070
70F0
70E0
70E0
38E0
39C0
39C0
1D80
1F80
0F80
0F00
0F00
0F00
0E00
7E00
7C00
7000
ENDCHAR
STARTCHAR 1EF4
ENCODING 7924
SWIDTH 675 0
DWIDTH 15 0
BBX 15 20 0 -4
BITMAP
F01E
783C
7838
3C78
1C70
1EE0
0FE0
07C0
07C0
0380
0380
0380
0380
0380
0380
0380
0000
0380
0380
0380
ENDCHAR
STARTCHAR 1EF5
ENCODING 7925
SWIDTH 540 0
DWIDTH 12 0
BBX 12 17 0 -5
BITMAP
E070
70F0
70E0
70E0
38E0
39C0
39C0
1D80
1F80
0F80
0F00
0F00
0F00
0E70
7E70
7C70
7000
ENDCHAR
STARTCHAR 1EF6
ENCODING 7926
SWIDTH 675 0
DWIDTH 15 0
BBX 15 20 0 0
BITMAP
0780
00C0
01C0
0100
F01E
783C
7838
3C78
1C70
1EE0
0FE0
07C0
07C0
0380
0380
0380
0380
0380
0380
0380
ENDCHAR
STARTCHAR 1EF7
ENCODING 7927
SWIDTH 540 0
DWIDTH 12 0
BBX 12 22 0 -5
BITMAP
0C00
0F00
0180
0600
0000
E070
70F0
70E0
70E0
38E0
39C0
39C0
1D80
1F80
0F80
0F00
0F00
0F00
0E00
7E00
7C00
7000
ENDCHAR
STARTCHAR 1EF8
ENCODING 7928
SWIDTH 675 0
DWIDTH 15 0
BBX 15 20 0 0
BITMAP
0020
0FE0
0DE0
0000
F01E
783C
7838
3C78
1C70
1EE0
0FE0
07C0
07C0
0380
0380
0380
0380
0380
0380
0380
ENDCHAR
STARTCHAR 1EF9
ENCODING 7929
SWIDTH 540 0
DWIDTH 12 0
BBX 12 21 0 -5
BITMAP
1C40
1FC0
1380
0000
E070
70F0
70E0
70E0
38E0
39C0
39C0
1D80
1F80
0F80
0F00
0F00
0F00
0E00
7E00
7C00
7000
ENDCHAR
STARTCHAR 200C
ENCODING 8204
SWIDTH 0 0
DWIDTH 0 0
BBX 1 15 -1 -2
BITMAP
80
80
80
80
80
80
80
80
80
80
80
80
80
80
80
ENDCHAR
STARTCHAR 200D
ENCODING 8205
SWIDTH 0 0
DWIDTH 0 0
BBX 4 17 -2 -3
BITMAP
90
60
60
D0
40
40
40
40
40
40
40
40
40
40
40
40
40
ENDCHAR
STARTCHAR 200E
ENCODING 8206
SWIDTH 0 0
DWIDTH 0 0
BBX 4 17 0 -3
BITMAP
20
10
F0
A0
80
80
80
80
80
80
80
80
80
80
80
80
80
ENDCHAR
STARTCHAR 200F
ENCODING 8207
SWIDTH 0 0
DWIDTH 0 0
BBX 4 17 -4 -3
BITMAP
40
80
F0
50
10
10
10
10
10
10
10
10
10
10
10
10
10
ENDCHAR
STARTCHAR 2013
ENCODING 8211
SWIDTH 540 0
DWIDTH 12 0
BBX 12 2 0 5
BITMAP
FFF0
FFF0
ENDCHAR
STARTCHAR 2014
ENCODING 8212
SWIDTH 990 0
DWIDTH 22 0
BBX 22 2 0 5
BITMAP
FFFFFC
FFFFFC
ENDCHAR
STARTCHAR 2015
ENCODING 8213
SWIDTH 990 0
DWIDTH 22 0
BBX 21 2 1 5
BITMAP
FFFFF8
FFFFF8
ENDCHAR
STARTCHAR 2017
ENCODING 8215
SWIDTH 540 0
DWIDTH 12 0
BBX 12 6 0 -8
BITMAP
FFF0
FFF0
0000
0000
FFF0
FFF0
ENDCHAR
STARTCHAR 2018
ENCODING 8216
SWIDTH 270 0
DWIDTH 6 0
BBX 3 7 2 9
BITMAP
60
C0
80
80
E0
E0
E0
ENDCHAR
STARTCHAR 2019
ENCODING 8217
SWIDTH 270 0
DWIDTH 6 0
BBX 4 6 1 9
BITMAP
70
70
70
30
20
E0
ENDCHAR
STARTCHAR 201A
ENCODING 8218
SWIDTH 270 0
DWIDTH 6 0
BBX 4 6 1 -4
BITMAP
70
70
70
20
20
E0
ENDCHAR
STARTCHAR 201B
ENCODING 8219
SWIDTH 270 0
DWIDTH 6 0
BBX 3 6 2 9
BITMAP
E0
E0
E0
80
C0
E0
ENDCHAR
STARTCHAR 201C
ENCODING 8220
SWIDTH 495 0
DWIDTH 11 0
BBX 9 7 1 9
BITMAP
2100
6300
4200
C200
E380
E380
E380
ENDCHAR
STARTCHAR 201D
ENCODING 8221
SWIDTH 495 0
DWIDTH 11 0
BBX 9 6 1 9
BITMAP
E780
E780
E780
2100
2100
E700
ENDCHAR
STARTCHAR 201E
ENCODING 8222
SWIDTH 495 0
DWIDTH 11 0
BBX 9 6 1 -4
BITMAP
E780
E780
E780
2100
6100
C700
ENDCHAR
STARTCHAR 2020
ENCODING 8224
SWIDTH 540 0
DWIDTH 12 0
BBX 10 20 1 -4
BITMAP
0E00
0E00
0E00
0E00
FFC0
FFC0
FFC0
0E00
0E00
0E00
0E00
0E00
0E00
0E00
0E00
0E00
0E00
0E00
0E00
0E00
ENDCHAR
STARTCHAR 2021
ENCODING 8225
SWIDTH 540 0
DWIDTH 12 0
BBX 10 20 1 -4
BITMAP
0E00
0E00
0E00
0E00
FFC0
FFC0
FFC0
0E00
0E00
0E00
0E00
0E00
0E00
0E00
FFC0
FFC0
0E00
0E00
0E00
0E00
ENDCHAR
STARTCHAR 2022
ENCODING 8226
SWIDTH 360 0
DWIDTH 8 0
BBX 6 6 1 5
BITMAP
78
FC
FC
FC
FC
78
ENDCHAR
STARTCHAR 2026
ENCODING 8230
SWIDTH 990 0
DWIDTH 22 0
BBX 18 3 2 0
BITMAP
E0E1C0
E0E1C0
E0E1C0
ENDCHAR
STARTCHAR 202A
ENCODING 8234
SWIDTH 0 0
DWIDTH 0 0
BBX 4 15 0 -3
BITMAP
F0
80
80
80
80
80
80
80
80
80
80
80
80
80
80
ENDCHAR
STARTCHAR 202B
ENCODING 8235
SWIDTH 0 0
DWIDTH 0 0
BBX 4 15 -4 -3
BITMAP
F0
10
10
10
10
10
10
10
10
10
10
10
10
10
10
ENDCHAR
STARTCHAR 202C
ENCODING 8236
SWIDTH 0 0
DWIDTH 0 0
BBX 6 17 -3 -3
BITMAP
FC
FC
FC
FC
20
20
20
20
20
20
20
20
20
20
20
20
20
ENDCHAR
STARTCHAR 202D
ENCODING 8237
SWIDTH 0 0
DWIDTH 0 0
BBX 5 17 -3 -3
BITMAP
F8
80
80
80
78
20
20
20
20
20
20
20
20
20
20
20
20
ENDCHAR
STARTCHAR 202E
ENCODING 8238
SWIDTH 0 0
DWIDTH 0 0
BBX 5 17 -2 -3
BITMAP
F8
08
08
08
F0
40
40
40
40
40
40
40
40
40
40
40
40
ENDCHAR
STARTCHAR 2030
ENCODING 8240
SWIDTH 990 0
DWIDTH 22 0
BBX 22 17 0 -1
BITMAP
787000
FC6000
CC6000
CCC000
CCC000
CDC000
FD8000
798000
031830
037C78
0766CC
0666CC
0666CC
0C66CC
0C6ECC
1C7C78
181830
ENDCHAR
STARTCHAR 2032
ENCODING 8242
SWIDTH 225 0
DWIDTH 5 0
BBX 3 6 2 10
BITMAP
E0
E0
E0
E0
C0
C0
ENDCHAR
STARTCHAR 2033
ENCODING 8243
SWIDTH 495 0
DWIDTH 11 0
BBX 8 6 2 10
BITMAP
E7
E7
E7
EF
CE
CE
ENDCHAR
STARTCHAR 2039
ENCODING 8249
SWIDTH 315 0
DWIDTH 7 0
BBX 6 10 1 1
BITMAP
1C
38
30
70
E0
E0
70
70
38
18
ENDCHAR
STARTCHAR 203A
ENCODING 8250
SWIDTH 315 0
DWIDTH 7 0
BBX 6 10 1 1
BITMAP
C0
E0
70
30
38
1C
38
70
60
E0
ENDCHAR
STARTCHAR 203C
ENCODING 8252
SWIDTH 585 0
DWIDTH 13 0
BBX 9 16 2 0
BITMAP
E380
E380
E380
E380
E380
E380
E380
E380
E380
6180
6180
6180
0000
E380
E380
E380
ENDCHAR
STARTCHAR 203E
ENCODING 8254
SWIDTH 315 0
DWIDTH 7 0
BBX 8 2 0 13
BITMAP
FF
FF
ENDCHAR
STARTCHAR 2044
ENCODING 8260
SWIDTH 180 0
DWIDTH 4 0
BBX 11 17 -4 -1
BITMAP
0060
0060
00C0
0080
0180
0100
0300
0600
0600
0C00
0800
1800
1000
3000
6000
6000
C000
ENDCHAR
STARTCHAR 206A
ENCODING 8298
SWIDTH 0 0
DWIDTH 0 0
BBX 4 17 -2 -3
BITMAP
F0
40
40
40
F0
40
40
40
40
40
40
40
40
40
40
40
40
ENDCHAR
STARTCHAR 206B
ENCODING 8299
SWIDTH 0 0
DWIDTH 0 0
BBX 6 17 -3 -3
BITMAP
FC
84
84
84
78
20
20
20
20
20
20
20
20
20
20
20
20
ENDCHAR
STARTCHAR 206C
ENCODING 8300
SWIDTH 0 0
DWIDTH 0 0
BBX 4 17 -2 -3
BITMAP
F0
F0
60
40
40
40
40
40
40
40
40
40
40
40
40
40
40
ENDCHAR
STARTCHAR 206D
ENCODING 8301
SWIDTH 0 0
DWIDTH 0 0
BBX 4 17 -2 -3
BITMAP
40
60
F0
F0
40
40
40
40
40
40
40
40
40
40
40
40
40
ENDCHAR
STARTCHAR 206E
ENCODING 8302
SWIDTH 0 0
DWIDTH 0 0
BBX 4 17 -2 -3
BITMAP
60
90
90
60
40
40
40
40
40
40
40
40
40
40
40
40
40
ENDCHAR
STARTCHAR 206F
ENCODING 8303
SWIDTH 0 0
DWIDTH 0 0
BBX 4 17 -2 -3
BITMAP
C0
40
40
40
F0
40
40
40
40
40
40
40
40
40
40
40
40
ENDCHAR
STARTCHAR 207F
ENCODING 8319
SWIDTH 405 0
DWIDTH 9 0
BBX 7 7 1 6
BITMAP
DC
FE
C6
C6
C6
C6
C6
ENDCHAR
STARTCHAR 20A3
ENCODING 8355
SWIDTH 540 0
DWIDTH 12 0
BBX 11 16 0 0
BITMAP
3FE0
3FE0
3FE0
3800
3800
3800
3800
3FC0
3FC0
3800
3800
3800
FF00
FF00
3800
3800
ENDCHAR
STARTCHAR 20A4
ENCODING 8356
SWIDTH 540 0
DWIDTH 12 0
BBX 12 16 0 0
BITMAP
0F80
3FC0
39E0
70E0
7000
7800
FF00
FF00
3800
FF00
FF00
3800
7000
FF60
7FF0
67F0
ENDCHAR
STARTCHAR 20A7
ENCODING 8359
SWIDTH 1080 0
DWIDTH 24 0
BBX 24 16 0 0
BITMAP
FE0000
FF9C00
FFDC00
F3DC00
F1FFF8
F1FFFE
F3FFCE
F7DDC7
FF9DE0
FF1CFC
F01C7E
F01C1F
F01DC7
F01DC7
F01FFE
F00FFC
ENDCHAR
STARTCHAR 20AA
ENCODING 8362
SWIDTH 810 0
DWIDTH 18 0
BBX 16 12 1 0
BITMAP
FF07
FFE7
E0E7
E067
E667
E667
E667
E667
E607
E607
E7FE
E7FE
ENDCHAR
STARTCHAR 20AB
ENCODING 8363
SWIDTH 495 0
DWIDTH 11 0
BBX 9 14 1 2
BITMAP
0300
0F80
0300
3B00
7F00
6300
E300
E300
E300
6700
3F00
0000
0000
FF80
ENDCHAR
STARTCHAR 20AC
ENCODING 8364
SWIDTH 540 0
DWIDTH 12 0
BBX 12 16 0 0
BITMAP
07F0
0FE0
1FE0
3C00
3800
7800
FFC0
7000
7000
FFC0
7800
3800
3C10
1F70
1FF0
07F0
ENDCHAR
STARTCHAR 2105
ENCODING 8453
SWIDTH 900 0
DWIDTH 20 0
BBX 19 17 0 -1
BITMAP
3E0C00
7E0C00
621800
E01800
E03000
633000
7F6000
3E6000
00C7C0
00CFE0
019860
019860
031860
031C60
060FE0
0607C0
0C0000
ENDCHAR
STARTCHAR 2113
ENCODING 8467
SWIDTH 495 0
DWIDTH 11 0
BBX 10 16 0 0
BITMAP
0F80
1FC0
1DC0
39C0
39C0
3BC0
3F80
3F00
3E00
FC00
F800
7800
3800
3CC0
1FC0
0F80
ENDCHAR
STARTCHAR 2116
ENCODING 8470
SWIDTH 1125 0
DWIDTH 25 0
BBX 22 16 2 0
BITMAP
E07000
F07000
F07000
F871F0
FC73F8
FC7398
FE771C
EE771C
EF771C
E7F3B8
E3F3F8
E3F0E0
E1F000
E1F3F8
E0F3F8
E07000
ENDCHAR
STARTCHAR 2122
ENCODING 8482
SWIDTH 990 0
DWIDTH 22 0
BBX 17 9 2 7
BITMAP
FF7180
FF7380
187380
185280
185A80
185E80
184E80
184C80
184C80
ENDCHAR
STARTCHAR 2126
ENCODING 8486
SWIDTH 765 0
DWIDTH 17 0
BBX 16 16 1 0
BITMAP
0FF0
3FF8
7C7C
701E
F01E
E00E
E00E
E00E
E00E
E00E
F01E
701C
3838
1E71
FE7F
FE7F
ENDCHAR
STARTCHAR 212E
ENCODING 8494
SWIDTH 585 0
DWIDTH 13 0
BBX 11 12 1 0
BITMAP
0F00
30C0
4040
C060
C060
FFE0
C000
C000
C000
4020
6040
1F80
ENDCHAR
STARTCHAR 2153
ENCODING 8531
SWIDTH 855 0
DWIDTH 19 0
BBX 17 17 1 -1
BITMAP
300800
701800
F01000
303000
302000
306000
30C000
30C000
018E00
011F00
031980
020700
060780
0C0180
0C1980
181F80
100600
ENDCHAR
STARTCHAR 2154
ENCODING 8532
SWIDTH 855 0
DWIDTH 19 0
BBX 18 17 0 -1
BITMAP
3C0400
6E0C00
E60800
0E1800
1C1000
383000
7E6000
FE6000
00C700
008F80
018CC0
010380
0303C0
0600C0
060CC0
0C0FC0
080300
ENDCHAR
STARTCHAR 215B
ENCODING 8539
SWIDTH 855 0
DWIDTH 19 0
BBX 17 17 1 -1
BITMAP
300800
701800
F01000
303000
302000
306000
30C000
30C000
018E00
011F80
031980
021F00
061F00
0C1980
0C1980
181F80
100600
ENDCHAR
STARTCHAR 215C
ENCODING 8540
SWIDTH 855 0
DWIDTH 19 0
BBX 17 17 1 -1
BITMAP
780800
D81800
181000
383000
1C2000
0C6000
DCC000
F8C000
018E00
011F00
031980
021F00
061F00
0C1980
0C1980
181F80
100600
ENDCHAR
STARTCHAR 215D
ENCODING 8541
SWIDTH 855 0
DWIDTH 19 0
BBX 17 17 1 -1
BITMAP
7C0800
FC1800
C01000
F83000
CC2000
0C6000
CCC000
F8C000
018E00
011F00
031980
021F00
061F00
0C1980
0C1980
181F80
100600
ENDCHAR
STARTCHAR 215E
ENCODING 8542
SWIDTH 855 0
DWIDTH 19 0
BBX 17 17 1 -1
BITMAP
FC1800
FC1000
183000
302000
306000
60C000
60C000
618000
010E00
031F80
021980
061F00
0C1F00
0C1980
181980
181F80
300600
ENDCHAR
STARTCHAR 2190
ENCODING 8592
SWIDTH 990 0
DWIDTH 22 0
BBX 20 8 1 2
BITMAP
080000
180000
300000
600000
FFFFF0
700000
100000
080000
ENDCHAR
STARTCHAR 2191
ENCODING 8593
SWIDTH 495 0
DWIDTH 11 0
BBX 7 20 2 -5
BITMAP
10
10
38
7C
D6
10
10
10
10
10
10
10
10
10
10
10
10
10
10
10
ENDCHAR
STARTCHAR 2192
ENCODING 8594
SWIDTH 990 0
DWIDTH 22 0
BBX 20 8 1 2
BITMAP
000100
000080
0000C0
000060
FFFFF0
000060
0000C0
000180
ENDCHAR
STARTCHAR 2193
ENCODING 8595
SWIDTH 495 0
DWIDTH 11 0
BBX 7 20 2 -5
BITMAP
10
10
10
10
10
10
10
10
10
10
10
10
10
10
10
D6
7C
38
10
10
ENDCHAR
STARTCHAR 2194
ENCODING 8596
SWIDTH 990 0
DWIDTH 22 0
BBX 20 8 1 2
BITMAP
080100
180080
3000C0
600060
FFFFF0
700060
1000C0
080180
ENDCHAR
STARTCHAR 2195
ENCODING 8597
SWIDTH 495 0
DWIDTH 11 0
BBX 7 21 2 -5
BITMAP
10
18
38
7C
92
10
10
10
10
10
10
10
10
10
10
10
D6
7C
38
10
10
ENDCHAR
STARTCHAR 21A8
ENCODING 8616
SWIDTH 495 0
DWIDTH 11 0
BBX 7 23 2 -7
BITMAP
10
18
38
7C
92
10
10
10
10
10
10
10
10
10
10
10
D6
7C
38
10
10
00
FE
ENDCHAR
STARTCHAR 2202
ENCODING 8706
SWIDTH 495 0
DWIDTH 11 0
BBX 11 16 0 0
BITMAP
0F80
1FC0
18C0
0040
0060
0060
07E0
1FE0
3840
70C0
60C0
60C0
E180
6380
7F00
3E00
ENDCHAR
STARTCHAR 2206
ENCODING 8710
SWIDTH 630 0
DWIDTH 14 0
BBX 12 14 1 1
BITMAP
0600
0600
0F00
0B00
0B00
1180
1180
21C0
20C0
40C0
4060
8060
8070
FFF0
ENDCHAR
STARTCHAR 220F
ENCODING 8719
SWIDTH 810 0
DWIDTH 18 0
BBX 15 21 2 -5
BITMAP
FFFE
FFFE
C00E
C00E
C00E
C00E
C00E
C00E
C00E
C00E
C00E
C00E
C00E
C00E
C00E
C00E
C00E
C00E
C00E
C00E
C00E
ENDCHAR
STARTCHAR 2211
ENCODING 8721
SWIDTH 720 0
DWIDTH 16 0
BBX 14 21 1 -5
BITMAP
FFFC
FFFC
7000
3800
1800
1C00
0E00
0700
0380
0180
0180
0380
0700
0E00
0C00
1800
3800
7000
E000
FFFC
FFFC
ENDCHAR
STARTCHAR 2212
ENCODING 8722
SWIDTH 585 0
DWIDTH 13 0
BBX 11 3 1 6
BITMAP
FFE0
FFE0
FFE0
ENDCHAR
STARTCHAR 2215
ENCODING 8725
SWIDTH 180 0
DWIDTH 4 0
BBX 11 17 -4 -1
BITMAP
0060
0060
00C0
0080
0180
0100
0300
0600
0600
0C00
0800
1800
1000
3000
6000
6000
C000
ENDCHAR
STARTCHAR 2219
ENCODING 8729
SWIDTH 270 0
DWIDTH 6 0
BBX 3 3 2 6
BITMAP
E0
E0
E0
ENDCHAR
STARTCHAR 221A
ENCODING 8730
SWIDTH 540 0
DWIDTH 12 0
BBX 11 20 1 -1
BITMAP
0020
0020
0020
0020
0040
0040
0040
0040
0040
7040
9080
1880
0880
0C80
0480
0680
0300
0300
0100
0100
ENDCHAR
STARTCHAR 221E
ENCODING 8734
SWIDTH 720 0
DWIDTH 16 0
BBX 12 8 2 4
BITMAP
00C0
73E0
FB30
8E10
8E10
DE30
F3F0
01E0
ENDCHAR
STARTCHAR 221F
ENCODING 8735
SWIDTH 990 0
DWIDTH 22 0
BBX 14 14 4 0
BITMAP
8000
8000
8000
8000
8000
8000
8000
8000
8000
8000
8000
8000
8000
FFFC
ENDCHAR
STARTCHAR 2229
ENCODING 8745
SWIDTH 720 0
DWIDTH 16 0
BBX 12 16 2 0
BITMAP
0F00
3FC0
79E0
E070
C030
C030
C030
C030
C030
C030
C030
C030
C030
C030
C030
C030
ENDCHAR
STARTCHAR 222B
ENCODING 8747
SWIDTH 270 0
DWIDTH 6 0
BBX 6 22 0 -2
BITMAP
1C
1C
20
20
30
30
30
30
30
30
30
30
30
30
30
30
30
30
10
10
E0
E0
ENDCHAR
STARTCHAR 2248
ENCODING 8776
SWIDTH 540 0
DWIDTH 12 0
BBX 12 10 0 3
BITMAP
1000
7E30
FFF0
C7F0
81C0
0000
7E10
FFF0
FFF0
81E0
ENDCHAR
STARTCHAR 2260
ENCODING 8800
SWIDTH 540 0
DWIDTH 12 0
BBX 11 16 1 0
BITMAP
0180
0380
0300
0300
FFE0
FFE0
FFE0
0C00
0C00
FFE0
FFE0
FFE0
3800
3000
3000
6000
ENDCHAR
STARTCHAR 2261
ENCODING 8801
SWIDTH 585 0
DWIDTH 13 0
BBX 11 12 1 2
BITMAP
FFE0
FFE0
FFE0
0000
0000
FFE0
FFE0
FFE0
0000
0000
FFE0
FFE0
ENDCHAR
STARTCHAR 2264
ENCODING 8804
SWIDTH 540 0
DWIDTH 12 0
BBX 11 16 1 0
BITMAP
0020
00E0
07E0
1FC0
7F00
F800
E000
FC00
3F80
0FE0
03E0
0060
0000
FFE0
FFE0
FFE0
ENDCHAR
STARTCHAR 2265
ENCODING 8805
SWIDTH 540 0
DWIDTH 12 0
BBX 11 15 1 1
BITMAP
C000
F800
FE00
1F80
07E0
01E0
0FE0
3F00
FC00
F000
C000
0000
FFE0
FFE0
FFE0
ENDCHAR
STARTCHAR 2302
ENCODING 8962
SWIDTH 585 0
DWIDTH 13 0
BBX 10 12 2 1
BITMAP
0C00
1400
2200
4100
8080
8040
8040
8040
8040
8040
8040
FFC0
ENDCHAR
STARTCHAR 2310
ENCODING 8976
SWIDTH 585 0
DWIDTH 13 0
BBX 11 8 1 4
BITMAP
FFE0
FFE0
FFE0
E000
E000
E000
E000
E000
ENDCHAR
STARTCHAR 2320
ENCODING 8992
SWIDTH 585 0
DWIDTH 13 0
BBX 5 25 6 -6
BITMAP
30
78
80
80
80
80
80
80
80
80
80
80
80
80
80
80
80
80
80
80
80
80
80
80
80
ENDCHAR
STARTCHAR 2321
ENCODING 8993
SWIDTH 585 0
DWIDTH 13 0
BBX 4 25 3 -6
BITMAP
10
10
10
10
10
10
10
10
10
10
10
10
10
10
10
10
10
10
10
10
10
10
90
E0
40
ENDCHAR
STARTCHAR 2500
ENCODING 9472
SWIDTH 720 0
DWIDTH 16 0
BBX 16 2 0 6
BITMAP
FFFF
FFFF
ENDCHAR
STARTCHAR 2502
ENCODING 9474
SWIDTH 630 0
DWIDTH 14 0
BBX 2 27 5 -7
BITMAP
C0
C0
C0
C0
C0
C0
C0
C0
C0
C0
C0
C0
C0
C0
C0
C0
C0
C0
C0
C0
C0
C0
C0
C0
C0
C0
C0
ENDCHAR
STARTCHAR 250C
ENCODING 9484
SWIDTH 720 0
DWIDTH 16 0
BBX 9 15 7 -7
BITMAP
FF80
FF80
C000
C000
C000
C000
C000
C000
C000
C000
C000
C000
C000
C000
C000
ENDCHAR
STARTCHAR 2510
ENCODING 9488
SWIDTH 720 0
DWIDTH 16 0
BBX 9 15 0 -7
BITMAP
FF80
FF80
0180
0180
0180
0180
0180
0180
0180
0180
0180
0180
0180
0180
0180
ENDCHAR
STARTCHAR 2514
ENCODING 9492
SWIDTH 720 0
DWIDTH 16 0
BBX 9 14 7 6
BITMAP
C000
C000
C000
C000
C000
C000
C000
C000
C000
C000
C000
C000
FF80
FF80
ENDCHAR
STARTCHAR 2518
ENCODING 9496
SWIDTH 720 0
DWIDTH 16 0
BBX 9 14 0 6
BITMAP
0180
0180
0180
0180
0180
0180
0180
0180
0180
0180
0180
0180
FF80
FF80
ENDCHAR
STARTCHAR 251C
ENCODING 9500
SWIDTH 720 0
DWIDTH 16 0
BBX 9 27 7 -7
BITMAP
C000
C000
C000
C000
C000
C000
C000
C000
C000
C000
C000
C000
FF80
FF80
C000
C000
C000
C000
C000
C000
C000
C000
C000
C000
C000
C000
C000
ENDCHAR
STARTCHAR 2524
ENCODING 9508
SWIDTH 720 0
DWIDTH 16 0
BBX 9 27 0 -7
BITMAP
0180
0180
0180
0180
0180
0180
0180
0180
0180
0180
0180
0180
FF80
FF80
0180
0180
0180
0180
0180
0180
0180
0180
0180
0180
0180
0180
0180
ENDCHAR
STARTCHAR 252C
ENCODING 9516
SWIDTH 720 0
DWIDTH 16 0
BBX 16 15 0 -7
BITMAP
FFFF
FFFF
0180
0180
0180
0180
0180
0180
0180
0180
0180
0180
0180
0180
0180
ENDCHAR
STARTCHAR 2534
ENCODING 9524
SWIDTH 720 0
DWIDTH 16 0
BBX 16 14 0 6
BITMAP
0180
0180
0180
0180
0180
0180
0180
0180
0180
0180
0180
0180
FFFF
FFFF
ENDCHAR
STARTCHAR 253C
ENCODING 9532
SWIDTH 720 0
DWIDTH 16 0
BBX 16 27 0 -7
BITMAP
0180
0180
0180
0180
0180
0180
0180
0180
0180
0180
0180
0180
FFFF
FFFF
0180
0180
0180
0180
0180
0180
0180
0180
0180
0180
0180
0180
0180
ENDCHAR
STARTCHAR 2550
ENCODING 9552
SWIDTH 720 0
DWIDTH 16 0
BBX 16 6 0 4
BITMAP
FFFF
FFFF
0000
0000
FFFF
FFFF
ENDCHAR
STARTCHAR 2551
ENCODING 9553
SWIDTH 720 0
DWIDTH 16 0
BBX 6 27 5 -7
BITMAP
CC
CC
CC
CC
CC
CC
CC
CC
CC
CC
CC
CC
CC
CC
CC
CC
CC
CC
CC
CC
CC
CC
CC
CC
CC
CC
CC
ENDCHAR
STARTCHAR 2552
ENCODING 9554
SWIDTH 720 0
DWIDTH 16 0
BBX 9 17 7 -7
BITMAP
FF80
FF80
C000
C000
FF80
FF80
C000
C000
C000
C000
C000
C000
C000
C000
C000
C000
C000
ENDCHAR
STARTCHAR 2553
ENCODING 9555
SWIDTH 720 0
DWIDTH 16 0
BBX 11 15 5 -7
BITMAP
FFE0
FFE0
CC00
CC00
CC00
CC00
CC00
CC00
CC00
CC00
CC00
CC00
CC00
CC00
CC00
ENDCHAR
STARTCHAR 2554
ENCODING 9556
SWIDTH 720 0
DWIDTH 16 0
BBX 11 17 5 -7
BITMAP
FFE0
FFE0
C000
C000
CFE0
CFE0
CC00
CC00
CC00
CC00
CC00
CC00
CC00
CC00
CC00
CC00
CC00
ENDCHAR
STARTCHAR 2555
ENCODING 9557
SWIDTH 720 0
DWIDTH 16 0
BBX 9 17 0 -7
BITMAP
FF80
FF80
0180
0180
FF80
FF80
0180
0180
0180
0180
0180
0180
0180
0180
0180
0180
0180
ENDCHAR
STARTCHAR 2556
ENCODING 9558
SWIDTH 720 0
DWIDTH 16 0
BBX 11 15 0 -7
BITMAP
FFE0
FFE0
0660
0660
0660
0660
0660
0660
0660
0660
0660
0660
0660
0660
0660
ENDCHAR
STARTCHAR 2557
ENCODING 9559
SWIDTH 720 0
DWIDTH 16 0
BBX 11 17 0 -7
BITMAP
FFE0
FFE0
0060
0060
FE60
FE60
0660
0660
0660
0660
0660
0660
0660
0660
0660
0660
0660
ENDCHAR
STARTCHAR 2558
ENCODING 9560
SWIDTH 720 0
DWIDTH 16 0
BBX 9 16 7 4
BITMAP
C000
C000
C000
C000
C000
C000
C000
C000
C000
C000
FF80
FF80
C000
C000
FF80
FF80
ENDCHAR
STARTCHAR 2559
ENCODING 9561
SWIDTH 720 0
DWIDTH 16 0
BBX 11 14 5 6
BITMAP
CC00
CC00
CC00
CC00
CC00
CC00
CC00
CC00
CC00
CC00
CC00
CC00
FFE0
FFE0
ENDCHAR
STARTCHAR 255A
ENCODING 9562
SWIDTH 720 0
DWIDTH 16 0
BBX 11 16 5 4
BITMAP
CC00
CC00
CC00
CC00
CC00
CC00
CC00
CC00
CC00
CC00
CFE0
CFE0
C000
C000
FFE0
FFE0
ENDCHAR
STARTCHAR 255B
ENCODING 9563
SWIDTH 720 0
DWIDTH 16 0
BBX 9 16 0 4
BITMAP
0180
0180
0180
0180
0180
0180
0180
0180
0180
0180
FF80
FF80
0180
0180
FF80
FF80
ENDCHAR
STARTCHAR 255C
ENCODING 9564
SWIDTH 720 0
DWIDTH 16 0
BBX 11 14 0 6
BITMAP
0660
0660
0660
0660
0660
0660
0660
0660
0660
0660
0660
0660
FFE0
FFE0
ENDCHAR
STARTCHAR 255D
ENCODING 9565
SWIDTH 720 0
DWIDTH 16 0
BBX 11 16 0 4
BITMAP
0660
0660
0660
0660
0660
0660
0660
0660
0660
0660
FE60
FE60
0060
0060
FFE0
FFE0
ENDCHAR
STARTCHAR 255E
ENCODING 9566
SWIDTH 720 0
DWIDTH 16 0
BBX 9 27 7 -7
BITMAP
C000
C000
C000
C000
C000
C000
C000
C000
C000
C000
FF80
FF80
C000
C000
FF80
FF80
C000
C000
C000
C000
C000
C000
C000
C000
C000
C000
C000
ENDCHAR
STARTCHAR 255F
ENCODING 9567
SWIDTH 720 0
DWIDTH 16 0
BBX 11 27 5 -7
BITMAP
CC00
CC00
CC00
CC00
CC00
CC00
CC00
CC00
CC00
CC00
CC00
CC00
CFE0
CFE0
CC00
CC00
CC00
CC00
CC00
CC00
CC00
CC00
CC00
CC00
CC00
CC00
CC00
ENDCHAR
STARTCHAR 2560
ENCODING 9568
SWIDTH 720 0
DWIDTH 16 0
BBX 11 27 5 -7
BITMAP
CC00
CC00
CC00
CC00
CC00
CC00
CC00
CC00
CC00
CC00
CFE0
CFE0
C000
C000
CFE0
CFE0
CC00
CC00
CC00
CC00
CC00
CC00
CC00
CC00
CC00
CC00
CC00
ENDCHAR
STARTCHAR 2561
ENCODING 9569
SWIDTH 720 0
DWIDTH 16 0
BBX 9 27 0 -7
BITMAP
0180
0180
0180
0180
0180
0180
0180
0180
0180
0180
FF80
FF80
0180
0180
FF80
FF80
0180
0180
0180
0180
0180
0180
0180
0180
0180
0180
0180
ENDCHAR
STARTCHAR 2562
ENCODING 9570
SWIDTH 720 0
DWIDTH 16 0
BBX 11 27 0 -7
BITMAP
0660
0660
0660
0660
0660
0660
0660
0660
0660
0660
0660
0660
FE60
FE60
0660
0660
0660
0660
0660
0660
0660
0660
0660
0660
0660
0660
0660
ENDCHAR
STARTCHAR 2563
ENCODING 9571
SWIDTH 720 0
DWIDTH 16 0
BBX 11 27 0 -7
BITMAP
0660
0660
0660
0660
0660
0660
0660
0660
0660
0660
FE60
FE60
0060
0060
FE60
FE60
0660
0660
0660
0660
0660
0660
0660
0660
0660
0660
0660
ENDCHAR
STARTCHAR 2564
ENCODING 9572
SWIDTH 720 0
DWIDTH 16 0
BBX 16 17 0 -7
BITMAP
FFFF
FFFF
0000
0000
FFFF
FFFF
0180
0180
0180
0180
0180
0180
0180
0180
0180
0180
0180
ENDCHAR
STARTCHAR 2565
ENCODING 9573
SWIDTH 720 0
DWIDTH 16 0
BBX 16 15 0 -7
BITMAP
FFFF
FFFF
0660
0660
0660
0660
0660
0660
0660
0660
0660
0660
0660
0660
0660
ENDCHAR
STARTCHAR 2566
ENCODING 9574
SWIDTH 720 0
DWIDTH 16 0
BBX 16 17 0 -7
BITMAP
FFFF
FFFF
0000
0000
FE7F
FE7F
0660
0660
0660
0660
0660
0660
0660
0660
0660
0660
0660
ENDCHAR
STARTCHAR 2567
ENCODING 9575
SWIDTH 720 0
DWIDTH 16 0
BBX 16 16 0 4
BITMAP
0180
0180
0180
0180
0180
0180
0180
0180
0180
0180
FFFF
FFFF
0000
0000
FFFF
FFFF
ENDCHAR
STARTCHAR 2568
ENCODING 9576
SWIDTH 720 0
DWIDTH 16 0
BBX 16 14 0 6
BITMAP
0660
0660
0660
0660
0660
0660
0660
0660
0660
0660
0660
0660
FFFF
FFFF
ENDCHAR
STARTCHAR 2569
ENCODING 9577
SWIDTH 720 0
DWIDTH 16 0
BBX 16 16 0 4
BITMAP
0660
0660
0660
0660
0660
0660
0660
0660
0660
0660
FE7F
FE7F
0000
0000
FFFF
FFFF
ENDCHAR
STARTCHAR 256A
ENCODING 9578
SWIDTH 720 0
DWIDTH 16 0
BBX 16 27 0 -7
BITMAP
0180
0180
0180
0180
0180
0180
0180
0180
0180
0180
FFFF
FFFF
0180
0180
FFFF
FFFF
0180
0180
0180
0180
0180
0180
0180
0180
0180
0180
0180
ENDCHAR
STARTCHAR 256B
ENCODING 9579
SWIDTH 720 0
DWIDTH 16 0
BBX 16 27 0 -7
BITMAP
0660
0660
0660
0660
0660
0660
0660
0660
0660
0660
0660
0660
FFFF
FFFF
0660
0660
0660
0660
0660
0660
0660
0660
0660
0660
0660
0660
0660
ENDCHAR
STARTCHAR 256C
ENCODING 9580
SWIDTH 720 0
DWIDTH 16 0
BBX 16 27 0 -7
BITMAP
0660
0660
0660
0660
0660
0660
0660
0660
0660
0660
FE7F
FE7F
0000
0000
FE7F
FE7F
0660
0660
0660
0660
0660
0660
0660
0660
0660
0660
0660
ENDCHAR
STARTCHAR 2580
ENCODING 9600
SWIDTH 720 0
DWIDTH 16 0
BBX 16 13 0 7
BITMAP
FFFF
FFFF
FFFF
FFFF
FFFF
FFFF
FFFF
FFFF
FFFF
FFFF
FFFF
FFFF
FFFF
ENDCHAR
STARTCHAR 2584
ENCODING 9604
SWIDTH 720 0
DWIDTH 16 0
BBX 16 14 0 -7
BITMAP
FFFF
FFFF
FFFF
FFFF
FFFF
FFFF
FFFF
FFFF
FFFF
FFFF
FFFF
FFFF
FFFF
FFFF
ENDCHAR
STARTCHAR 2588
ENCODING 9608
SWIDTH 720 0
DWIDTH 16 0
BBX 16 27 0 -7
BITMAP
FFFF
FFFF
FFFF
FFFF
FFFF
FFFF
FFFF
FFFF
FFFF
FFFF
FFFF
FFFF
FFFF
FFFF
FFFF
FFFF
FFFF
FFFF
FFFF
FFFF
FFFF
FFFF
FFFF
FFFF
FFFF
FFFF
FFFF
ENDCHAR
STARTCHAR 258C
ENCODING 9612
SWIDTH 720 0
DWIDTH 16 0
BBX 8 27 0 -7
BITMAP
FF
FF
FF
FF
FF
FF
FF
FF
FF
FF
FF
FF
FF
FF
FF
FF
FF
FF
FF
FF
FF
FF
FF
FF
FF
FF
FF
ENDCHAR
STARTCHAR 2590
ENCODING 9616
SWIDTH 720 0
DWIDTH 16 0
BBX 8 27 8 -7
BITMAP
FF
FF
FF
FF
FF
FF
FF
FF
FF
FF
FF
FF
FF
FF
FF
FF
FF
FF
FF
FF
FF
FF
FF
FF
FF
FF
FF
ENDCHAR
STARTCHAR 2591
ENCODING 9617
SWIDTH 720 0
DWIDTH 16 0
BBX 15 25 1 -5
BITMAP
8610
0000
10C2
10C2
0000
8610
8610
0000
10C2
0000
0000
8610
0000
10C2
10C2
0000
8610
0000
0000
10C2
0000
8610
8610
0000
10C2
ENDCHAR
STARTCHAR 2592
ENCODING 9618
SWIDTH 720 0
DWIDTH 16 0
BBX 16 25 0 -5
BITMAP
4969
0000
B696
B696
0000
4969
4969
0000
B696
0000
0000
4969
0000
B696
B696
0000
4969
0000
0000
B696
0000
4969
4969
0000
B696
ENDCHAR
STARTCHAR 2593
ENCODING 9619
SWIDTH 720 0
DWIDTH 16 0
BBX 16 27 0 -7
BITMAP
696D
FFFF
9696
9696
FFFF
696D
696D
FFFF
9696
FFFF
FFFF
696D
FFFF
9696
9696
FFFF
696D
FFFF
FFFF
9696
FFFF
696D
696D
FFFF
9696
FFFF
FFFF
ENDCHAR
STARTCHAR 25A0
ENCODING 9632
SWIDTH 585 0
DWIDTH 13 0
BBX 10 10 2 0
BITMAP
FFC0
FFC0
FFC0
FFC0
FFC0
FFC0
FFC0
FFC0
FFC0
FFC0
ENDCHAR
STARTCHAR 25A1
ENCODING 9633
SWIDTH 585 0
DWIDTH 13 0
BBX 10 10 2 0
BITMAP
FFC0
8040
8040
8040
8040
8040
8040
8040
8040
FFC0
ENDCHAR
STARTCHAR 25AA
ENCODING 9642
SWIDTH 360 0
DWIDTH 8 0
BBX 6 6 1 4
BITMAP
FC
FC
FC
FC
FC
FC
ENDCHAR
STARTCHAR 25AB
ENCODING 9643
SWIDTH 360 0
DWIDTH 8 0
BBX 6 6 1 4
BITMAP
FC
84
84
84
84
FC
ENDCHAR
STARTCHAR 25AC
ENCODING 9644
SWIDTH 990 0
DWIDTH 22 0
BBX 22 5 0 3
BITMAP
FFFFFC
FFFFFC
FFFFFC
FFFFFC
FFFFFC
ENDCHAR
STARTCHAR 25B2
ENCODING 9650
SWIDTH 990 0
DWIDTH 22 0
BBX 14 15 4 0
BITMAP
0200
0300
0300
0780
0780
0FC0
0FC0
1FE0
1FE0
3FF0
3FF0
7FF8
7FF8
FFFC
FFFC
ENDCHAR
STARTCHAR 25BA
ENCODING 9658
SWIDTH 990 0
DWIDTH 22 0
BBX 16 15 3 0
BITMAP
C000
F000
FC00
FF00
FFC0
FFF0
FFFC
FFFF
FFFC
FFF0
FFC0
FF00
FC00
F000
C000
ENDCHAR
STARTCHAR 25BC
ENCODING 9660
SWIDTH 990 0
DWIDTH 22 0
BBX 14 15 4 0
BITMAP
FFFC
FFFC
7FF8
7FF8
3FF0
3FF0
1FE0
1FE0
0FC0
0FC0
0780
0780
0300
0300
0200
ENDCHAR
STARTCHAR 25C4
ENCODING 9668
SWIDTH 990 0
DWIDTH 22 0
BBX 16 15 3 0
BITMAP
0003
000F
003F
00FF
03FF
0FFF
3FFF
FFFF
3FFF
0FFF
03FF
00FF
003F
000F
0003
ENDCHAR
STARTCHAR 25CA
ENCODING 9674
SWIDTH 495 0
DWIDTH 11 0
BBX 9 15 1 0
BITMAP
1800
1400
2600
2200
4100
C100
8080
8080
8080
4100
4300
2200
3400
1400
1800
ENDCHAR
STARTCHAR 25CB
ENCODING 9675
SWIDTH 585 0
DWIDTH 13 0
BBX 9 10 2 1
BITMAP
1E00
6100
8080
8080
8080
8080
8080
4080
2300
1C00
ENDCHAR
STARTCHAR 25CF
ENCODING 9679
SWIDTH 585 0
DWIDTH 13 0
BBX 9 10 2 1
BITMAP
1E00
7F00
FF80
FF80
FF80
FF80
FF80
7F80
3F00
0800
ENDCHAR
STARTCHAR 25D8
ENCODING 9688
SWIDTH 585 0
DWIDTH 13 0
BBX 11 11 1 0
BITMAP
FFE0
FFE0
FFE0
FFE0
F0E0
F0E0
F0E0
F1E0
FFE0
FFE0
FFE0
ENDCHAR
STARTCHAR 25D9
ENCODING 9689
SWIDTH 585 0
DWIDTH 13 0
BBX 13 13 0 0
BITMAP
FFF8
FFF8
F878
EFB8
DFD8
DFD8
DFF8
DFF8
DFD8
EFD8
F738
FDF8
FFF8
ENDCHAR
STARTCHAR 25E6
ENCODING 9702
SWIDTH 360 0
DWIDTH 8 0
BBX 6 6 1 4
BITMAP
78
84
84
84
C8
30
ENDCHAR
STARTCHAR 263A
ENCODING 9786
SWIDTH 1035 0
DWIDTH 23 0
BBX 14 14 4 -1
BITMAP
0100
0EE0
3010
2008
4004
4864
8864
8004
4004
4804
444C
2388
1030
0FE0
ENDCHAR
STARTCHAR 263B
ENCODING 9787
SWIDTH 1035 0
DWIDTH 23 0
BBX 14 14 5 -1
BITMAP
0200
1FC0
3FF0
7FF0
FFF8
E7B8
E7BC
FFFC
FFFC
FFB8
F778
78F0
3FE0
1FC0
ENDCHAR
STARTCHAR 263C
ENCODING 9788
SWIDTH 900 0
DWIDTH 20 0
BBX 20 20 0 -2
BITMAP
002000
002000
002000
102040
08F880
070500
040200
080100
080100
080080
F800F0
080100
080100
040100
040200
070D00
08F080
102040
002000
002000
ENDCHAR
STARTCHAR 2640
ENCODING 9792
SWIDTH 765 0
DWIDTH 17 0
BBX 11 21 3 -5
BITMAP
3F00
40C0
8040
8020
8020
8020
8020
8020
8040
4080
3F00
0400
0400
0400
0400
FFE0
0400
0400
0400
0400
0400
ENDCHAR
STARTCHAR 2642
ENCODING 9794
SWIDTH 765 0
DWIDTH 17 0
BBX 14 20 1 -2
BITMAP
0038
00D8
0328
0024
0044
0044
0084
0080
0480
1B80
6040
4020
8020
8010
8010
8020
8020
4040
2040
1F80
ENDCHAR
STARTCHAR 2660
ENCODING 9824
SWIDTH 540 0
DWIDTH 12 0
BBX 10 12 1 1
BITMAP
0C00
0C00
1E00
7F00
FF80
FFC0
FFC0
FFC0
7B80
0800
0C00
3F00
ENDCHAR
STARTCHAR 2663
ENCODING 9827
SWIDTH 675 0
DWIDTH 15 0
BBX 13 13 1 0
BITMAP
0F00
1F80
1F80
1F80
7FF0
FFF8
FFF8
FFF8
FDF8
72F0
0600
0700
3FC0
ENDCHAR
STARTCHAR 2665
ENCODING 9829
SWIDTH 585 0
DWIDTH 13 0
BBX 11 13 1 0
BITMAP
F9E0
FBE0
FFE0
FFE0
FFE0
7FC0
3FC0
3F80
1F00
0E00
0E00
0400
0400
ENDCHAR
STARTCHAR 2666
ENCODING 9830
SWIDTH 495 0
DWIDTH 11 0
BBX 10 13 1 0
BITMAP
0800
1C00
1E00
3E00
7F00
FF80
FFC0
7F80
7F00
3E00
1C00
0C00
0800
ENDCHAR
STARTCHAR 266A
ENCODING 9834
SWIDTH 495 0
DWIDTH 11 0
BBX 11 15 0 0
BITMAP
0780
07C0
07C0
0460
0420
0420
0400
0400
0400
0400
3C00
7C00
FC00
FC00
7800
ENDCHAR
STARTCHAR 266B
ENCODING 9835
SWIDTH 765 0
DWIDTH 17 0
BBX 13 17 1 -1
BITMAP
0038
01F8
07F8
07C8
0408
0408
0408
0408
0408
0408
0478
04F8
35F8
FCF8
FCF0
FC00
F800
ENDCHAR
STARTCHAR E801
ENCODING 59393
SWIDTH 270 0
DWIDTH 6 0
BBX 6 15 -1 0
BITMAP
C0
C0
00
3C
3C
3C
3C
3C
3C
3C
3C
3C
3C
3C
3C
ENDCHAR
STARTCHAR E802
ENCODING 59394
SWIDTH 540 0
DWIDTH 12 0
BBX 10 16 0 -4
BITMAP
3C00
FF00
7F80
03C0
01C0
01C0
01C0
19C0
11C0
19C0
19C0
01C0
01C0
01C0
01C0
01C0
ENDCHAR
STARTCHAR E803
ENCODING 59395
SWIDTH 540 0
DWIDTH 12 0
BBX 10 16 0 -4
BITMAP
3C00
FF00
7F80
03C0
01C0
01C0
01C0
01C0
3DC0
11C0
11C0
01C0
01C0
01C0
01C0
01C0
ENDCHAR
STARTCHAR E804
ENCODING 59396
SWIDTH 495 0
DWIDTH 11 0
BBX 13 16 -3 0
BITMAP
0E00
4E00
CE00
0E00
0E00
0FF8
0FF8
0038
0038
0038
0078
0070
00E0
00E0
00E0
00E0
ENDCHAR
STARTCHAR E805
ENCODING 59397
SWIDTH 495 0
DWIDTH 11 0
BBX 13 16 -3 0
BITMAP
0E00
4E00
CE00
0E00
0E00
0FF8
0FF8
0038
0038
0638
0278
0070
00E0
00E0
00E0
00E0
ENDCHAR
STARTCHAR E818
ENCODING 59416
SWIDTH 225 0
DWIDTH 5 0
BBX 4 7 1 15
BITMAP
20
C0
60
90
10
E0
80
ENDCHAR
STARTCHAR E83A
ENCODING 59450
SWIDTH 630 0
DWIDTH 14 0
BBX 15 3 -1 3
BITMAP
FFFE
FFFE
FFFE
ENDCHAR
STARTCHAR F001
ENCODING 61441
SWIDTH 630 0
DWIDTH 14 0
BBX 12 16 0 0
BITMAP
1F70
3F70
3870
3800
FE70
FE70
FE70
3870
3870
3870
3870
3870
3870
3870
3870
3870
ENDCHAR
STARTCHAR F002
ENCODING 61442
SWIDTH 630 0
DWIDTH 14 0
BBX 12 16 0 0
BITMAP
1F70
3F70
3870
3870
FE70
FE70
FE70
3870
3870
3870
3870
3870
3870
3870
3870
3870
ENDCHAR
STARTCHAR F004
ENCODING 61444
SWIDTH 315 0
DWIDTH 7 0
BBX 3 5 2 -6
BITMAP
E0
E0
60
60
C0
ENDCHAR
STARTCHAR F005
ENCODING 61445
SWIDTH 315 0
DWIDTH 7 0
BBX 6 5 0 -5
BITMAP
38
3C
0C
FC
70
ENDCHAR
STARTCHAR F006
ENCODING 61446
SWIDTH 0 0
DWIDTH 0 0
BBX 4 2 -5 18
BITMAP
70
C0
ENDCHAR
STARTCHAR F007
ENCODING 61447
SWIDTH 0 0
DWIDTH 0 0
BBX 4 2 -9 18
BITMAP
70
C0
ENDCHAR
STARTCHAR F008
ENCODING 61448
SWIDTH 0 0
DWIDTH 0 0
BBX 5 3 -5 13
BITMAP
78
70
E0
ENDCHAR
STARTCHAR F009
ENCODING 61449
SWIDTH 0 0
DWIDTH 0 0
BBX 4 3 -7 17
BITMAP
70
E0
C0
ENDCHAR
STARTCHAR F00A
ENCODING 61450
SWIDTH 0 0
DWIDTH 0 0
BBX 1 23 -1 -4
BITMAP
80
80
80
80
80
80
80
80
80
00
00
00
00
00
80
80
80
80
80
80
80
80
80
ENDCHAR
STARTCHAR F00B
ENCODING 61451
SWIDTH 0 0
DWIDTH 0 0
BBX 6 25 -3 -5
BITMAP
FC
20
20
20
20
20
20
20
20
20
20
20
20
20
20
20
20
20
20
20
20
20
20
20
FC
ENDCHAR
STARTCHAR F00C
ENCODING 61452
SWIDTH 0 0
DWIDTH 0 0
BBX 2 23 0 -4
BITMAP
C0
C0
80
80
80
80
80
80
80
80
80
80
80
80
80
80
80
80
80
80
80
80
80
ENDCHAR
STARTCHAR F00D
ENCODING 61453
SWIDTH 0 0
DWIDTH 0 0
BBX 2 23 -2 -4
BITMAP
C0
C0
40
40
40
40
40
40
40
40
40
40
40
40
40
40
40
40
40
40
40
40
40
ENDCHAR
STARTCHAR F00E
ENCODING 61454
SWIDTH 0 0
DWIDTH 0 0
BBX 3 24 0 -4
BITMAP
80
80
80
80
80
80
80
80
80
80
80
80
80
80
80
80
80
80
80
80
80
80
80
E0
ENDCHAR
STARTCHAR F00F
ENCODING 61455
SWIDTH 0 0
DWIDTH 0 0
BBX 5 3 -10 13
BITMAP
F0
70
38
ENDCHAR
STARTCHAR F010
ENCODING 61456
SWIDTH 0 0
DWIDTH 0 0
BBX 5 2 -6 18
BITMAP
F8
30
ENDCHAR
STARTCHAR F011
ENCODING 61457
SWIDTH 0 0
DWIDTH 0 0
BBX 4 2 -10 18
BITMAP
F0
20
ENDCHAR
STARTCHAR F012
ENCODING 61458
SWIDTH 0 0
DWIDTH 0 0
BBX 4 4 -5 13
BITMAP
C0
F0
10
60
ENDCHAR
STARTCHAR F013
ENCODING 61459
SWIDTH 0 0
DWIDTH 0 0
BBX 5 4 -8 16
BITMAP
F0
18
70
60
ENDCHAR
STARTCHAR F014
ENCODING 61460
SWIDTH 0 0
DWIDTH 0 0
BBX 5 4 -8 13
BITMAP
C0
F0
18
60
ENDCHAR
STARTCHAR F015
ENCODING 61461
SWIDTH 0 0
DWIDTH 0 0
BBX 7 2 -11 18
BITMAP
F6
9C
ENDCHAR
STARTCHAR F016
ENCODING 61462
SWIDTH 0 0
DWIDTH 0 0
BBX 7 3 -11 17
BITMAP
E6
FC
80
ENDCHAR
STARTCHAR F017
ENCODING 61463
SWIDTH 0 0
DWIDTH 0 0
BBX 7 3 -14 17
BITMAP
72
FE
80
ENDCHAR
STARTCHAR F018
ENCODING 61464
SWIDTH 0 0
DWIDTH 0 0
BBX 7 3 -13 17
BITMAP
66
FE
80
ENDCHAR
STARTCHAR F019
ENCODING 61465
SWIDTH 0 0
DWIDTH 0 0
BBX 8 3 -10 13
BITMAP
63
FE
CE
ENDCHAR
STARTCHAR F01A
ENCODING 61466
SWIDTH 0 0
DWIDTH 0 0
BBX 7 3 -12 13
BITMAP
E2
FE
8C
ENDCHAR
STARTCHAR F01B
ENCODING 61467
SWIDTH 0 0
DWIDTH 0 0
BBX 7 3 -12 13
BITMAP
62
FE
8E
ENDCHAR
STARTCHAR F01C
ENCODING 61468
SWIDTH 0 0
DWIDTH 0 0
BBX 8 3 -7 17
BITMAP
73
FE
C4
ENDCHAR
STARTCHAR F01D
ENCODING 61469
SWIDTH 0 0
DWIDTH 0 0
BBX 8 3 -7 13
BITMAP
63
FE
8E
ENDCHAR
STARTCHAR F01E
ENCODING 61470
SWIDTH 0 0
DWIDTH 0 0
BBX 3 3 -9 -4
BITMAP
E0
E0
E0
ENDCHAR
STARTCHAR F01F
ENCODING 61471
SWIDTH 0 0
DWIDTH 0 0
BBX 3 3 -10 -4
BITMAP
E0
E0
E0
ENDCHAR
STARTCHAR F020
ENCODING 61472
SWIDTH 0 0
DWIDTH 0 0
BBX 3 3 -12 -4
BITMAP
E0
E0
E0
ENDCHAR
STARTCHAR F021
ENCODING 61473
SWIDTH 0 0
DWIDTH 0 0
BBX 4 3 -10 -4
BITMAP
F0
F0
F0
ENDCHAR
STARTCHAR F022
ENCODING 61474
SWIDTH 0 0
DWIDTH 0 0
BBX 3 3 -11 -4
BITMAP
E0
E0
E0
ENDCHAR
STARTCHAR F023
ENCODING 61475
SWIDTH 0 0
DWIDTH 0 0
BBX 3 3 -8 -4
BITMAP
E0
E0
E0
ENDCHAR
STARTCHAR F024
ENCODING 61476
SWIDTH 0 0
DWIDTH 0 0
BBX 3 3 -8 -4
BITMAP
E0
E0
E0
ENDCHAR
STARTCHAR F025
ENCODING 61477
SWIDTH 0 0
DWIDTH 0 0
BBX 3 3 -8 -4
BITMAP
E0
E0
E0
ENDCHAR
STARTCHAR F026
ENCODING 61478
SWIDTH 0 0
DWIDTH 0 0
BBX 3 3 -10 -4
BITMAP
E0
E0
E0
ENDCHAR
STARTCHAR F027
ENCODING 61479
SWIDTH 0 0
DWIDTH 0 0
BBX 3 3 -9 -4
BITMAP
E0
E0
E0
ENDCHAR
STARTCHAR F028
ENCODING 61480
SWIDTH 0 0
DWIDTH 0 0
BBX 3 3 -11 -4
BITMAP
E0
E0
E0
ENDCHAR
STARTCHAR F029
ENCODING 61481
SWIDTH 0 0
DWIDTH 0 0
BBX 3 3 -5 -4
BITMAP
E0
E0
E0
ENDCHAR
STARTCHAR F02A
ENCODING 61482
SWIDTH 0 0
DWIDTH 0 0
BBX 3 3 -5 -4
BITMAP
E0
E0
E0
ENDCHAR
STARTCHAR F02B
ENCODING 61483
SWIDTH 0 0
DWIDTH 0 0
BBX 3 3 -9 -4
BITMAP
E0
E0
E0
ENDCHAR
STARTCHAR F02C
ENCODING 61484
SWIDTH 0 0
DWIDTH 0 0
BBX 3 3 -4 -4
BITMAP
E0
E0
E0
ENDCHAR
STARTCHAR F02D
ENCODING 61485
SWIDTH 0 0
DWIDTH 0 0
BBX 7 2 -11 18
BITMAP
72
8C
ENDCHAR
STARTCHAR F02E
ENCODING 61486
SWIDTH 0 0
DWIDTH 0 0
BBX 8 3 -11 17
BITMAP
73
7E
C4
ENDCHAR
STARTCHAR F02F
ENCODING 61487
SWIDTH 0 0
DWIDTH 0 0
BBX 7 2 -12 18
BITMAP
F2
8C
ENDCHAR
STARTCHAR F030
ENCODING 61488
SWIDTH 0 0
DWIDTH 0 0
BBX 8 3 -13 17
BITMAP
73
7E
C4
ENDCHAR
STARTCHAR F031
ENCODING 61489
SWIDTH 270 0
DWIDTH 6 0
BBX 3 12 2 0
BITMAP
E0
E0
E0
E0
E0
E0
E0
E0
E0
E0
E0
E0
ENDCHAR
STARTCHAR FB01
ENCODING 64257
SWIDTH 630 0
DWIDTH 14 0
BBX 12 16 0 0
BITMAP
1F70
3F70
3870
3800
FE70
FE70
FE70
3870
3870
3870
3870
3870
3870
3870
3870
3870
ENDCHAR
STARTCHAR FB02
ENCODING 64258
SWIDTH 630 0
DWIDTH 14 0
BBX 12 16 0 0
BITMAP
1F70
3F70
3870
3870
FE70
FE70
FE70
3870
3870
3870
3870
3870
3870
3870
3870
3870
ENDCHAR
STARTCHAR FB1D
ENCODING 64285
SWIDTH 270 0
DWIDTH 6 0
BBX 4 9 1 2
BITMAP
F0
F0
F0
F0
F0
F0
F0
00
60
ENDCHAR
STARTCHAR FB1E
ENCODING 64286
SWIDTH 0 0
DWIDTH 0 0
BBX 6 3 -3 14
BITMAP
84
CC
78
ENDCHAR
STARTCHAR FB1F
ENCODING 64287
SWIDTH 540 0
DWIDTH 12 0
BBX 10 9 1 3
BITMAP
F1C0
F1C0
F1C0
F1C0
F1C0
F1C0
F1C0
0000
FFC0
ENDCHAR
STARTCHAR FB20
ENCODING 64288
SWIDTH 540 0
DWIDTH 12 0
BBX 10 12 1 0
BITMAP
F1C0
71C0
71C0
71C0
71C0
71C0
39C0
39C0
3BC0
FF80
FF80
FE00
ENDCHAR
STARTCHAR FB2A
ENCODING 64298
SWIDTH 720 0
DWIDTH 16 0
BBX 14 15 1 0
BITMAP
0008
0008
0000
E31C
E71C
E71C
E71C
E71C
E71C
FE38
FC38
7038
7870
3FF0
1FC0
ENDCHAR
STARTCHAR FB2B
ENCODING 64299
SWIDTH 720 0
DWIDTH 16 0
BBX 14 15 1 0
BITMAP
4000
4000
0000
E31C
E71C
E71C
E71C
E71C
E71C
FE38
FC38
7038
7870
3FF0
1FC0
ENDCHAR
STARTCHAR FB2C
ENCODING 64300
SWIDTH 720 0
DWIDTH 16 0
BBX 14 15 1 0
BITMAP
0008
0008
0000
E31C
E71C
E71C
E71C
E71C
E71C
FEB8
FCF8
7038
7870
3FF0
1FC0
ENDCHAR
STARTCHAR FB2D
ENCODING 64301
SWIDTH 720 0
DWIDTH 16 0
BBX 14 15 1 0
BITMAP
4000
4000
0000
E31C
E71C
E71C
E71C
E71C
E71C
FEB8
FCF8
7038
7870
3FF0
1FC0
ENDCHAR
STARTCHAR FB2E
ENCODING 64302
SWIDTH 585 0
DWIDTH 13 0
BBX 11 15 1 -3
BITMAP
F0E0
70E0
78E0
3CE0
3DC0
7FC0
7F80
6700
E380
E3C0
E1E0
E0E0
0000
0000
1F00
ENDCHAR
STARTCHAR FB2F
ENCODING 64303
SWIDTH 585 0
DWIDTH 13 0
BBX 11 17 1 -5
BITMAP
F0E0
70E0
78E0
3CE0
3DC0
7FC0
7F80
6700
E380
E3C0
E1E0
E0E0
0000
0000
1F00
0400
0400
ENDCHAR
STARTCHAR FB30
ENCODING 64304
SWIDTH 585 0
DWIDTH 13 0
BBX 11 12 1 0
BITMAP
F0E0
70E0
78E0
3CE0
3DC0
7FC0
7F80
6700
E380
EBC0
EDE0
E0E0
ENDCHAR
STARTCHAR FB31
ENCODING 64305
SWIDTH 585 0
DWIDTH 13 0
BBX 11 12 1 0
BITMAP
7800
FF00
FF00
0780
0380
2380
3380
0380
0380
FFE0
FFE0
FFE0
ENDCHAR
STARTCHAR FB32
ENCODING 64306
SWIDTH 450 0
DWIDTH 10 0
BBX 9 12 0 0
BITMAP
3800
3E00
3F00
0700
0700
3700
0700
0F00
3F00
7B80
7380
E380
ENDCHAR
STARTCHAR FB33
ENCODING 64307
SWIDTH 540 0
DWIDTH 12 0
BBX 11 12 1 0
BITMAP
FFE0
FFE0
FFE0
0380
0380
1380
1380
0380
0380
0380
0380
0380
ENDCHAR
STARTCHAR FB34
ENCODING 64308
SWIDTH 630 0
DWIDTH 14 0
BBX 11 12 1 0
BITMAP
3E00
FF80
7FC0
01E0
00E0
00E0
76E0
70E0
70E0
70E0
70E0
70E0
ENDCHAR
STARTCHAR FB35
ENCODING 64309
SWIDTH 315 0
DWIDTH 7 0
BBX 6 12 0 0
BITMAP
1C
1C
1C
1C
1C
DC
9C
1C
1C
1C
1C
1C
ENDCHAR
STARTCHAR FB36
ENCODING 64310
SWIDTH 450 0
DWIDTH 10 0
BBX 9 12 0 0
BITMAP
7F80
7F80
7F80
0E00
1C00
9C00
DC00
1C00
1C00
1C00
1C00
1C00
ENDCHAR
STARTCHAR FB38
ENCODING 64312
SWIDTH 630 0
DWIDTH 14 0
BBX 12 12 1 0
BITMAP
E1C0
E7E0
E7E0
E0F0
E070
E070
E670
F070
70E0
79E0
3FC0
1F80
ENDCHAR
STARTCHAR FB39
ENCODING 64313
SWIDTH 315 0
DWIDTH 7 0
BBX 6 7 0 5
BITMAP
1C
1C
1C
1C
DC
1C
1C
ENDCHAR
STARTCHAR FB3A
ENCODING 64314
SWIDTH 540 0
DWIDTH 12 0
BBX 10 16 0 -4
BITMAP
3C00
FF00
7F80
03C0
01C0
01C0
19C0
01C0
01C0
01C0
01C0
01C0
01C0
01C0
01C0
01C0
ENDCHAR
STARTCHAR FB3B
ENCODING 64315
SWIDTH 495 0
DWIDTH 11 0
BBX 9 12 1 0
BITMAP
7000
FE00
FF00
0780
0780
2380
2380
0380
0780
0F00
FE00
FC00
ENDCHAR
STARTCHAR FB3C
ENCODING 64316
SWIDTH 495 0
DWIDTH 11 0
BBX 9 16 1 0
BITMAP
E000
E000
E000
E000
E000
FF80
FF80
0380
0380
6380
2780
0700
0E00
0E00
0E00
0E00
ENDCHAR
STARTCHAR FB3E
ENCODING 64318
SWIDTH 630 0
DWIDTH 14 0
BBX 12 12 1 0
BITMAP
C300
EFC0
FFE0
7CE0
78E0
7870
7270
7070
7070
73F0
F3F0
E3F0
ENDCHAR
STARTCHAR FB40
ENCODING 64320
SWIDTH 405 0
DWIDTH 9 0
BBX 6 12 1 0
BITMAP
E0
F8
FC
1C
1C
5C
DC
1C
1C
FC
FC
FC
ENDCHAR
STARTCHAR FB41
ENCODING 64321
SWIDTH 630 0
DWIDTH 14 0
BBX 12 12 1 0
BITMAP
0F00
3FC0
7FE0
F0E0
E0F0
E470
E670
E0F0
F0E0
79E0
7FC0
1F80
ENDCHAR
STARTCHAR FB43
ENCODING 64323
SWIDTH 585 0
DWIDTH 13 0
BBX 11 16 1 -4
BITMAP
3C00
FF80
FFC0
E1C0
E0E0
E0E0
F6E0
7EE0
30E0
00E0
00E0
00E0
00E0
00E0
00E0
00E0
ENDCHAR
STARTCHAR FB44
ENCODING 64324
SWIDTH 585 0
DWIDTH 13 0
BBX 11 12 1 0
BITMAP
3E00
FF80
E3C0
E1E0
E0E0
7AE0
7EE0
10E0
01E0
03C0
FF80
FF00
ENDCHAR
STARTCHAR FB46
ENCODING 64326
SWIDTH 495 0
DWIDTH 11 0
BBX 10 12 0 0
BITMAP
E1C0
71C0
79C0
39C0
1DC0
1F80
CF00
0700
0780
7F80
7FC0
7FC0
ENDCHAR
STARTCHAR FB47
ENCODING 64327
SWIDTH 585 0
DWIDTH 13 0
BBX 11 16 1 -4
BITMAP
FFE0
FFE0
FFE0
00E0
00E0
0DC0
E5C0
E3C0
E380
E380
E380
E380
E000
E000
E000
E000
ENDCHAR
STARTCHAR FB48
ENCODING 64328
SWIDTH 540 0
DWIDTH 12 0
BBX 10 12 0 0
BITMAP
3C00
FF00
7F80
03C0
01C0
01C0
19C0
01C0
01C0
01C0
01C0
01C0
ENDCHAR
STARTCHAR FB49
ENCODING 64329
SWIDTH 720 0
DWIDTH 16 0
BBX 14 12 1 0
BITMAP
E31C
E71C
E71C
E71C
E71C
E71C
FEB8
FCF8
7038
7870
3FF0
1FC0
ENDCHAR
STARTCHAR FB4A
ENCODING 64330
SWIDTH 675 0
DWIDTH 15 0
BBX 12 12 1 0
BITMAP
3F00
FFE0
FFF0
3870
3870
3870
3B70
3970
3870
3870
F870
F070
ENDCHAR
STARTCHAR FB4B
ENCODING 64331
SWIDTH 270 0
DWIDTH 6 0
BBX 4 15 1 0
BITMAP
20
60
00
F0
F0
F0
F0
F0
F0
F0
F0
F0
F0
F0
F0
ENDCHAR
STARTCHAR FB4C
ENCODING 64332
SWIDTH 585 0
DWIDTH 13 0
BBX 11 15 1 0
BITMAP
3E00
0000
0000
7800
FF00
FF00
0780
0380
0380
0380
0380
0380
FFE0
FFE0
FFE0
ENDCHAR
STARTCHAR FB4D
ENCODING 64333
SWIDTH 495 0
DWIDTH 11 0
BBX 9 15 1 0
BITMAP
3C00
0000
0000
7000
FE00
FF00
0780
0780
0380
0380
0380
0780
0F00
FE00
FC00
ENDCHAR
STARTCHAR FB4E
ENCODING 64334
SWIDTH 585 0
DWIDTH 13 0
BBX 11 15 1 0
BITMAP
1F00
0000
0000
3E00
FF80
E3C0
E1E0
E0E0
78E0
78E0
18E0
01E0
03C0
FF80
FF00
ENDCHAR
STARTCHAR FB4F
ENCODING 64335
SWIDTH 585 0
DWIDTH 13 0
BBX 12 16 1 0
BITMAP
E000
E000
E000
E000
E060
F860
F8E0
1CE0
1EE0
3FC0
77C0
7780
73C0
71C0
70E0
70F0
ENDCHAR
STARTCHAR FB50
ENCODING 64336
SWIDTH 225 0
DWIDTH 5 0
BBX 5 17 0 2
BITMAP
10
68
F0
80
20
20
20
20
30
30
30
30
30
30
30
10
20
ENDCHAR
STARTCHAR FB51
ENCODING 64337
SWIDTH 225 0
DWIDTH 5 0
BBX 6 17 -1 3
BITMAP
18
68
F0
00
20
20
70
30
30
30
30
30
30
30
3C
1C
1C
ENDCHAR
STARTCHAR FB52
ENCODING 64338
SWIDTH 630 0
DWIDTH 14 0
BBX 13 15 1 -4
BITMAP
4000
8008
8018
8008
C008
FFF8
FFF8
7FF8
0000
0300
0700
0200
01C0
0180
0080
ENDCHAR
STARTCHAR FB53
ENCODING 64339
SWIDTH 630 0
DWIDTH 14 0
BBX 13 15 1 -4
BITMAP
4000
8008
8018
8008
C008
FFF8
FFF8
7FF8
0000
0300
0700
0200
01C0
0180
0080
ENDCHAR
STARTCHAR FB54
ENCODING 64340
SWIDTH 270 0
DWIDTH 6 0
BBX 7 14 -1 -4
BITMAP
04
06
06
06
02
FE
FE
FE
00
38
30
10
0C
1C
ENDCHAR
STARTCHAR FB55
ENCODING 64341
SWIDTH 270 0
DWIDTH 6 0
BBX 7 14 -1 -4
BITMAP
04
06
06
06
02
FE
FE
FE
00
38
30
10
0C
1C
ENDCHAR
STARTCHAR FB56
ENCODING 64342
SWIDTH 630 0
DWIDTH 14 0
BBX 13 15 1 -4
BITMAP
4000
8008
8018
8008
C008
FFF8
FFF8
7FF8
0000
0180
0780
0E80
0500
0180
0180
ENDCHAR
STARTCHAR FB57
ENCODING 64343
SWIDTH 630 0
DWIDTH 14 0
BBX 13 15 1 -4
BITMAP
4000
8008
8018
8008
C008
FFF8
FFF8
7FF8
0000
0180
0780
0E80
0500
0180
0180
ENDCHAR
STARTCHAR FB58
ENCODING 64344
SWIDTH 270 0
DWIDTH 6 0
BBX 7 15 -1 -4
BITMAP
04
06
06
06
02
FE
FE
FE
00
0C
3C
74
08
0C
0C
ENDCHAR
STARTCHAR FB59
ENCODING 64345
SWIDTH 270 0
DWIDTH 6 0
BBX 7 15 -1 -4
BITMAP
04
06
06
06
02
FE
FE
FE
00
0C
3C
74
08
0C
0C
ENDCHAR
STARTCHAR FB5A
ENCODING 64346
SWIDTH 630 0
DWIDTH 14 0
BBX 13 15 1 -5
BITMAP
4000
8008
8018
8008
C008
FFF8
FFF8
7FF8
0000
0180
0F80
0D00
04C0
03C0
0740
ENDCHAR
STARTCHAR FB5B
ENCODING 64347
SWIDTH 630 0
DWIDTH 14 0
BBX 13 15 1 -5
BITMAP
4000
8008
8018
8008
C008
FFF8
FFF8
7FF8
0000
0180
0F80
0D00
04C0
03C0
0740
ENDCHAR
STARTCHAR FB5C
ENCODING 64348
SWIDTH 270 0
DWIDTH 6 0
BBX 7 15 -1 -5
BITMAP
04
06
06
06
02
FE
FE
FE
00
0C
7C
68
26
1E
3A
ENDCHAR
STARTCHAR FB5D
ENCODING 64349
SWIDTH 270 0
DWIDTH 6 0
BBX 7 15 -1 -5
BITMAP
04
06
06
06
02
FE
FE
FE
00
0C
7C
68
26
1E
3A
ENDCHAR
STARTCHAR FB5E
ENCODING 64350
SWIDTH 630 0
DWIDTH 14 0
BBX 13 14 1 3
BITMAP
0400
0E00
0400
0300
0300
0300
4000
8008
8018
8008
C008
FFF8
FFF8
7FF8
ENDCHAR
STARTCHAR FB5F
ENCODING 64351
SWIDTH 630 0
DWIDTH 14 0
BBX 13 14 1 3
BITMAP
0400
0E00
0400
0300
0300
0300
4000
8008
8018
8008
C008
FFF8
FFF8
7FF8
ENDCHAR
STARTCHAR FB60
ENCODING 64352
SWIDTH 270 0
DWIDTH 6 0
BBX 7 15 -1 3
BITMAP
30
70
10
1C
18
08
00
04
06
06
06
02
FE
FE
FE
ENDCHAR
STARTCHAR FB61
ENCODING 64353
SWIDTH 270 0
DWIDTH 6 0
BBX 7 15 -1 3
BITMAP
30
70
10
1C
18
08
00
04
06
06
06
02
FE
FE
FE
ENDCHAR
STARTCHAR FB62
ENCODING 64354
SWIDTH 630 0
DWIDTH 14 0
BBX 13 14 1 3
BITMAP
0300
1F00
1900
0DC0
0780
0E80
4000
8008
8018
8008
C008
FFF8
FFF8
7FF8
ENDCHAR
STARTCHAR FB63
ENCODING 64355
SWIDTH 630 0
DWIDTH 14 0
BBX 13 14 1 3
BITMAP
0300
1F00
1900
0DC0
0780
0E80
4000
8008
8018
8008
C008
FFF8
FFF8
7FF8
ENDCHAR
STARTCHAR FB64
ENCODING 64356
SWIDTH 270 0
DWIDTH 6 0
BBX 7 16 -1 3
BITMAP
08
5C
7C
64
16
3E
30
00
04
06
06
06
02
FE
FE
FE
ENDCHAR
STARTCHAR FB65
ENCODING 64357
SWIDTH 270 0
DWIDTH 6 0
BBX 7 16 -1 3
BITMAP
08
5C
7C
64
16
3E
30
00
04
06
06
06
02
FE
FE
FE
ENDCHAR
STARTCHAR FB66
ENCODING 64358
SWIDTH 630 0
DWIDTH 14 0
BBX 13 15 1 4
BITMAP
0400
0400
0400
0580
0680
0F80
0000
4000
8008
8018
8008
C008
FFF8
FFF8
7FF8
ENDCHAR
STARTCHAR FB67
ENCODING 64359
SWIDTH 630 0
DWIDTH 14 0
BBX 13 15 1 4
BITMAP
0400
0400
0400
0580
0680
0F80
0000
4000
8008
8018
8008
C008
FFF8
FFF8
7FF8
ENDCHAR
STARTCHAR FB68
ENCODING 64360
SWIDTH 270 0
DWIDTH 6 0
BBX 7 15 -1 4
BITMAP
30
10
10
1E
12
7E
00
04
06
06
06
02
FE
FE
FE
ENDCHAR
STARTCHAR FB69
ENCODING 64361
SWIDTH 270 0
DWIDTH 6 0
BBX 7 15 -1 4
BITMAP
30
10
10
1E
12
7E
00
04
06
06
06
02
FE
FE
FE
ENDCHAR
STARTCHAR FB6A
ENCODING 64362
SWIDTH 765 0
DWIDTH 17 0
BBX 16 16 1 3
BITMAP
0018
0038
0014
0016
003E
0030
0000
000E
801E
801F
8013
801F
C01F
FFFF
FFFF
7FFF
ENDCHAR
STARTCHAR FB6B
ENCODING 64363
SWIDTH 765 0
DWIDTH 17 0
BBX 16 16 1 3
BITMAP
0018
0038
0014
0016
003E
0030
0000
000E
801E
801F
8013
801F
C01F
FFFF
FFFF
7FFF
ENDCHAR
STARTCHAR FB6C
ENCODING 64364
SWIDTH 315 0
DWIDTH 7 0
BBX 8 15 -1 3
BITMAP
30
0C
20
00
0C
1E
1E
36
3F
3F
19
01
FF
FF
FF
ENDCHAR
STARTCHAR FB6D
ENCODING 64365
SWIDTH 315 0
DWIDTH 7 0
BBX 8 16 -1 4
BITMAP
38
30
0C
3C
74
00
04
0E
1F
1F
1B
1F
0F
FF
FF
FF
ENDCHAR
STARTCHAR FB6E
ENCODING 64366
SWIDTH 765 0
DWIDTH 17 0
BBX 16 16 1 4
BITMAP
005C
0078
00E4
0016
003E
0030
0000
000E
801E
801F
8013
801F
C01F
FFFF
FFFF
7FFF
ENDCHAR
STARTCHAR FB6F
ENCODING 64367
SWIDTH 765 0
DWIDTH 17 0
BBX 16 16 1 4
BITMAP
005C
0078
00E4
0016
003E
0030
0000
000E
801E
801F
8013
801F
C01F
FFFF
FFFF
7FFF
ENDCHAR
STARTCHAR FB70
ENCODING 64368
SWIDTH 315 0
DWIDTH 7 0
BBX 8 16 -1 3
BITMAP
18
60
04
30
00
0C
1E
1E
36
3F
3F
19
01
FF
FF
FF
ENDCHAR
STARTCHAR FB71
ENCODING 64369
SWIDTH 315 0
DWIDTH 7 0
BBX 8 17 -1 3
BITMAP
08
2C
7C
62
17
1E
18
04
0E
1F
1F
1B
1F
0F
FF
FF
FF
ENDCHAR
STARTCHAR FB72
ENCODING 64370
SWIDTH 585 0
DWIDTH 13 0
BBX 11 16 1 -5
BITMAP
3C00
7FC0
FFC0
9F80
3800
6000
4400
8E00
8C00
8300
8300
C300
E000
FC20
7FE0
3F80
ENDCHAR
STARTCHAR FB73
ENCODING 64371
SWIDTH 540 0
DWIDTH 12 0
BBX 11 16 1 -4
BITMAP
3C00
7FC0
FFC0
9F00
3A00
6300
53E0
99E0
B9E0
8400
8E00
CC00
E000
FC00
7FE0
3F80
ENDCHAR
STARTCHAR FB74
ENCODING 64372
SWIDTH 540 0
DWIDTH 12 0
BBX 13 15 -1 -4
BITMAP
0E00
1F00
2F80
03C0
00E0
FFF8
FFF8
FFF8
0000
0600
0600
0200
0180
0380
0100
ENDCHAR
STARTCHAR FB75
ENCODING 64373
SWIDTH 540 0
DWIDTH 12 0
BBX 13 15 -1 -4
BITMAP
0E00
1F00
2F80
03C0
00E0
FFF8
FFF8
FFF8
0000
0600
0600
0200
0180
0380
0100
ENDCHAR
STARTCHAR FB76
ENCODING 64374
SWIDTH 585 0
DWIDTH 13 0
BBX 11 16 1 -5
BITMAP
3C00
7FC0
FFC0
9F80
3800
6000
4000
8B80
8F00
9C00
8000
C000
E000
FC20
7FE0
3F80
ENDCHAR
STARTCHAR FB77
ENCODING 64375
SWIDTH 540 0
DWIDTH 12 0
BBX 11 16 1 -4
BITMAP
3C00
7FC0
FFC0
9F00
3A00
6300
43E0
81E0
87E0
9600
BE00
D000
E000
FC00
7FE0
3F80
ENDCHAR
STARTCHAR FB78
ENCODING 64376
SWIDTH 540 0
DWIDTH 12 0
BBX 13 12 -1 -2
BITMAP
0E00
1F00
2F80
03C0
00E0
FFF8
FFF8
FFF8
0000
0180
0780
0E80
ENDCHAR
STARTCHAR FB79
ENCODING 64377
SWIDTH 540 0
DWIDTH 12 0
BBX 13 12 -1 -2
BITMAP
0E00
1F00
2F80
03C0
00E0
FFF8
FFF8
FFF8
0000
0180
0780
0E80
ENDCHAR
STARTCHAR FB7A
ENCODING 64378
SWIDTH 585 0
DWIDTH 13 0
BBX 11 16 1 -5
BITMAP
3C00
7FC0
FFC0
9F80
3800
6000
4300
8F00
9D00
8A00
8700
C300
E000
FC20
7FE0
3F80
ENDCHAR
STARTCHAR FB7B
ENCODING 64379
SWIDTH 540 0
DWIDTH 12 0
BBX 11 16 1 -4
BITMAP
3C00
7FC0
FFC0
9F00
3A00
6300
43E0
8DE0
BDE0
B400
8C00
CC00
E000
FC00
7FE0
3F80
ENDCHAR
STARTCHAR FB7C
ENCODING 64380
SWIDTH 540 0
DWIDTH 12 0
BBX 13 15 -1 -4
BITMAP
0E00
1F00
2F80
03C0
00E0
FFF8
FFF8
FFF8
0000
0180
0F80
0D00
0500
0380
0300
ENDCHAR
STARTCHAR FB7D
ENCODING 64381
SWIDTH 540 0
DWIDTH 12 0
BBX 13 15 -1 -4
BITMAP
0E00
1F00
2F80
03C0
00E0
FFF8
FFF8
FFF8
0000
0180
0F80
0D00
0500
0380
0300
ENDCHAR
STARTCHAR FB7E
ENCODING 64382
SWIDTH 585 0
DWIDTH 13 0
BBX 11 16 1 -5
BITMAP
3C00
7FC0
FFC0
9F80
3800
6000
4B80
8F00
9C80
87C0
8780
C600
E000
FC20
7FE0
3F80
ENDCHAR
STARTCHAR FB7F
ENCODING 64383
SWIDTH 540 0
DWIDTH 12 0
BBX 11 16 1 -4
BITMAP
3C00
7FC0
FFC0
9F00
3A00
6300
43E0
89E0
ADE0
A000
9600
D800
E000
FC00
7FE0
3F80
ENDCHAR
STARTCHAR FB80
ENCODING 64384
SWIDTH 540 0
DWIDTH 12 0
BBX 13 15 -1 -5
BITMAP
0E00
1F00
2F80
03C0
00E0
FFF8
FFF8
FFF8
0000
0180
0F80
0D00
04C0
03C0
0740
ENDCHAR
STARTCHAR FB81
ENCODING 64385
SWIDTH 540 0
DWIDTH 12 0
BBX 13 15 -1 -5
BITMAP
0E00
1F00
2F80
03C0
00E0
FFF8
FFF8
FFF8
0000
0180
0F80
0D00
04C0
03C0
0740
ENDCHAR
STARTCHAR FB82
ENCODING 64386
SWIDTH 360 0
DWIDTH 8 0
BBX 7 15 1 -2
BITMAP
08
0C
1C
0C
06
06
82
FE
FE
7E
00
0C
7C
60
20
ENDCHAR
STARTCHAR FB83
ENCODING 64387
SWIDTH 360 0
DWIDTH 8 0
BBX 7 15 1 -2
BITMAP
08
0C
1C
0C
06
06
82
FE
FE
7E
00
0C
7C
60
20
ENDCHAR
STARTCHAR FB84
ENCODING 64388
SWIDTH 360 0
DWIDTH 8 0
BBX 7 15 1 4
BITMAP
5C
F8
40
00
00
08
0C
1C
0C
06
06
82
FE
FE
7E
ENDCHAR
STARTCHAR FB85
ENCODING 64389
SWIDTH 360 0
DWIDTH 8 0
BBX 7 15 1 4
BITMAP
5C
F8
40
00
00
08
0C
1C
0C
06
06
82
FE
FE
7E
ENDCHAR
STARTCHAR FB86
ENCODING 64390
SWIDTH 360 0
DWIDTH 8 0
BBX 7 16 1 4
BITMAP
70
60
08
7C
E8
20
00
08
0C
1C
0C
06
86
FE
FE
7E
ENDCHAR
STARTCHAR FB87
ENCODING 64391
SWIDTH 360 0
DWIDTH 8 0
BBX 7 16 1 4
BITMAP
70
60
08
7C
E8
20
00
08
0C
1C
0C
06
86
FE
FE
7E
ENDCHAR
STARTCHAR FB88
ENCODING 64392
SWIDTH 360 0
DWIDTH 8 0
BBX 7 17 1 3
BITMAP
40
60
40
48
5C
64
FC
00
08
0C
1C
0C
06
86
FE
FE
7E
ENDCHAR
STARTCHAR FB89
ENCODING 64393
SWIDTH 360 0
DWIDTH 8 0
BBX 7 17 1 3
BITMAP
40
60
40
48
5C
64
FC
00
08
0C
1C
0C
06
86
FE
FE
7E
ENDCHAR
STARTCHAR FB8A
ENCODING 64394
SWIDTH 450 0
DWIDTH 10 0
BBX 9 20 1 -2
BITMAP
0400
0E00
0C00
0B80
0F00
1D00
0000
0000
0100
0100
0300
0180
0080
0080
0180
0380
0700
9E00
7C00
1800
ENDCHAR
STARTCHAR FB8B
ENCODING 64395
SWIDTH 450 0
DWIDTH 10 0
BBX 9 20 1 -2
BITMAP
0400
0E00
0C00
0B80
0F00
1D00
0000
0000
0100
0100
0300
0180
0080
0080
0180
0380
0700
9E00
7C00
1800
ENDCHAR
STARTCHAR FB8C
ENCODING 64396
SWIDTH 450 0
DWIDTH 10 0
BBX 9 20 1 -1
BITMAP
0800
0800
0800
0F00
0900
3F00
0000
0000
0100
0100
0300
0180
0080
0080
0180
0380
0700
9E00
7C00
1800
ENDCHAR
STARTCHAR FB8D
ENCODING 64397
SWIDTH 450 0
DWIDTH 10 0
BBX 9 20 1 -1
BITMAP
0800
0800
0800
0F00
0900
3F00
0000
0000
0100
0100
0300
0180
0080
0080
0180
0380
0700
9E00
7C00
1800
ENDCHAR
STARTCHAR FB8E
ENCODING 64398
SWIDTH 765 0
DWIDTH 17 0
BBX 17 13 0 3
BITMAP
000100
000700
001F00
003C00
003000
003800
401C00
400E00
400300
E00180
FFFF80
7FFF80
3FFF80
ENDCHAR
STARTCHAR FB8F
ENCODING 64399
SWIDTH 900 0
DWIDTH 20 0
BBX 20 13 0 3
BITMAP
000300
000F00
003F00
007800
006000
007000
403800
400C00
400E00
E00B80
FFFBF0
7FF9F0
3FE070
ENDCHAR
STARTCHAR FB90
ENCODING 64400
SWIDTH 360 0
DWIDTH 8 0
BBX 9 13 -1 3
BITMAP
0100
0700
1F00
3C00
3800
3C00
1E00
0600
0300
0180
FF80
FF80
FF80
ENDCHAR
STARTCHAR FB91
ENCODING 64401
SWIDTH 540 0
DWIDTH 12 0
BBX 13 13 -1 3
BITMAP
0080
0380
0F80
1C00
1800
1C00
1E00
0700
0380
07C0
FEF8
FC78
F038
ENDCHAR
STARTCHAR FB92
ENCODING 64402
SWIDTH 765 0
DWIDTH 17 0
BBX 17 16 0 3
BITMAP
000300
000F00
001E00
007900
006700
001F00
003C00
003000
003800
401C00
400E00
400300
E00180
FFFF80
7FFF80
3FFF80
ENDCHAR
STARTCHAR FB93
ENCODING 64403
SWIDTH 900 0
DWIDTH 20 0
BBX 20 16 0 3
BITMAP
000300
000F00
003C00
007300
004F00
003F00
007800
006000
007000
403800
400C00
400E00
E00B80
FFFBF0
7FF9F0
3FE070
ENDCHAR
STARTCHAR FB94
ENCODING 64404
SWIDTH 360 0
DWIDTH 8 0
BBX 9 16 -1 3
BITMAP
0100
0700
1E00
3900
2700
1F00
3C00
3800
3C00
1E00
0600
0300
0180
FF80
FF80
FF80
ENDCHAR
STARTCHAR FB95
ENCODING 64405
SWIDTH 540 0
DWIDTH 12 0
BBX 13 16 -1 3
BITMAP
0180
0780
0F00
1C80
1380
0F80
1C00
1800
1C00
1E00
0700
0380
07C0
FEF8
FC78
F038
ENDCHAR
STARTCHAR FB96
ENCODING 64406
SWIDTH 765 0
DWIDTH 17 0
BBX 17 22 0 -4
BITMAP
000300
000F00
001E00
007900
006700
001F00
003C00
003000
003800
401C00
400E00
400300
E00180
FFFF80
7FFF80
3FFF80
000000
018000
018000
008000
006000
00E000
ENDCHAR
STARTCHAR FB97
ENCODING 64407
SWIDTH 900 0
DWIDTH 20 0
BBX 20 23 0 -4
BITMAP
000300
000F00
003C00
007300
004F00
003F00
007800
006000
007000
403800
400C00
400E00
E00B80
FFFBF0
7FF9F0
3FE070
000000
030000
070000
020000
01C000
018000
008000
ENDCHAR
STARTCHAR FB98
ENCODING 64408
SWIDTH 360 0
DWIDTH 8 0
BBX 9 22 -1 -4
BITMAP
0100
0700
1E00
3900
2700
1F00
3C00
3800
3C00
1E00
0600
0300
0180
FF80
FF80
FF80
0000
1C00
1800
0800
0600
0E00
ENDCHAR
STARTCHAR FB99
ENCODING 64409
SWIDTH 540 0
DWIDTH 12 0
BBX 13 22 -1 -4
BITMAP
0180
0780
0F00
1C80
1380
0F80
1C00
1800
1C00
1E00
0700
0380
07C0
FEF8
FC78
F038
0000
3800
3000
1000
0C00
1C00
ENDCHAR
STARTCHAR FB9A
ENCODING 64410
SWIDTH 765 0
DWIDTH 17 0
BBX 17 17 0 3
BITMAP
000800
002B00
002F00
001E00
007900
006700
001F00
003C00
003000
003800
401C00
400E00
400300
E00180
FFFF80
7FFF80
3FFF80
ENDCHAR
STARTCHAR FB9B
ENCODING 64411
SWIDTH 900 0
DWIDTH 20 0
BBX 20 17 0 3
BITMAP
000800
006B00
002F00
003C00
007300
004F00
003F00
007800
006000
007000
403800
400C00
400E00
E00B80
FFFBF0
7FF9F0
3FE070
ENDCHAR
STARTCHAR FB9C
ENCODING 64412
SWIDTH 360 0
DWIDTH 8 0
BBX 9 17 -1 3
BITMAP
0800
2900
2700
1E00
3900
2700
1F00
3C00
3800
3C00
1E00
0600
0300
0180
FF80
FF80
FF80
ENDCHAR
STARTCHAR FB9D
ENCODING 64413
SWIDTH 540 0
DWIDTH 12 0
BBX 13 17 -1 3
BITMAP
0400
1580
1780
0F00
1C80
1380
0F80
1C00
1800
1C00
1E00
0700
0380
07C0
FEF8
FC78
F038
ENDCHAR
STARTCHAR FB9E
ENCODING 64414
SWIDTH 540 0
DWIDTH 12 0
BBX 11 11 1 -1
BITMAP
0040
0060
4060
4060
8020
8020
8020
8060
E0E0
FFC0
7F80
ENDCHAR
STARTCHAR FB9F
ENCODING 64415
SWIDTH 540 0
DWIDTH 12 0
BBX 11 11 1 -1
BITMAP
0040
0060
4060
4060
8020
8020
8020
8060
E0E0
FFC0
7F80
ENDCHAR
STARTCHAR FBA0
ENCODING 64416
SWIDTH 540 0
DWIDTH 12 0
BBX 11 18 1 0
BITMAP
0800
0800
0800
0F00
0900
1F00
0000
0040
0060
4060
4060
8020
8020
8020
8060
E0E0
FFC0
7F80
ENDCHAR
STARTCHAR FBA1
ENCODING 64417
SWIDTH 540 0
DWIDTH 12 0
BBX 11 18 1 0
BITMAP
0800
0800
0800
0F00
0900
1F00
0000
0040
0060
4060
4060
8020
8020
8020
8060
E0E0
FFC0
7F80
ENDCHAR
STARTCHAR FBA2
ENCODING 64418
SWIDTH 270 0
DWIDTH 6 0
BBX 7 15 -1 4
BITMAP
30
10
10
1E
12
7E
00
04
06
06
06
02
FE
FE
FE
ENDCHAR
STARTCHAR FBA3
ENCODING 64419
SWIDTH 270 0
DWIDTH 6 0
BBX 7 15 -1 4
BITMAP
30
10
10
1E
12
7E
00
04
06
06
06
02
FE
FE
FE
ENDCHAR
STARTCHAR FBA4
ENCODING 64420
SWIDTH 360 0
DWIDTH 8 0
BBX 6 12 1 3
BITMAP
60
70
00
00
60
78
7C
9C
8C
FC
F8
F0
ENDCHAR
STARTCHAR FBA5
ENCODING 64421
SWIDTH 405 0
DWIDTH 9 0
BBX 9 13 0 4
BITMAP
6000
3400
0400
0400
1C00
3C00
6400
7C00
FE00
F600
0380
0380
0180
ENDCHAR
STARTCHAR FBA6
ENCODING 64422
SWIDTH 360 0
DWIDTH 8 0
BBX 6 8 1 4
BITMAP
60
78
7C
9C
8C
FC
F8
F0
ENDCHAR
STARTCHAR FBA7
ENCODING 64423
SWIDTH 405 0
DWIDTH 9 0
BBX 8 5 1 2
BITMAP
38
3C
7F
CF
83
ENDCHAR
STARTCHAR FBA8
ENCODING 64424
SWIDTH 270 0
DWIDTH 6 0
BBX 7 14 -1 -3
BITMAP
04
06
06
06
02
FE
FE
FE
00
00
10
20
18
18
ENDCHAR
STARTCHAR FBA9
ENCODING 64425
SWIDTH 315 0
DWIDTH 7 0
BBX 8 14 -1 -5
BITMAP
08
08
18
FB
F7
CF
0C
08
00
04
08
0C
0C
04
ENDCHAR
STARTCHAR FBAA
ENCODING 64426
SWIDTH 450 0
DWIDTH 10 0
BBX 10 11 -1 3
BITMAP
0800
0C00
0E00
0F00
1F00
1380
1680
3EC0
FFC0
FFC0
E380
ENDCHAR
STARTCHAR FBAB
ENCODING 64427
SWIDTH 405 0
DWIDTH 9 0
BBX 9 12 0 3
BITMAP
0400
0400
0400
1C00
3C00
6400
7C00
FE00
F600
0380
0380
0180
ENDCHAR
STARTCHAR FBAC
ENCODING 64428
SWIDTH 450 0
DWIDTH 10 0
BBX 10 11 -1 3
BITMAP
0800
0C00
0E00
0F00
1F00
1380
1680
3EC0
FFC0
FFC0
E380
ENDCHAR
STARTCHAR FBAD
ENCODING 64429
SWIDTH 450 0
DWIDTH 10 0
BBX 11 14 -1 -2
BITMAP
0300
0700
0700
0900
0B00
1E00
FFE0
FFE0
FFE0
1300
1980
1F00
0F00
0700
ENDCHAR
STARTCHAR FBAE
ENCODING 64430
SWIDTH 810 0
DWIDTH 18 0
BBX 17 11 1 -1
BITMAP
018000
038000
078000
1C8000
780000
F00000
C00000
800000
FFFF80
FFFE00
FFFC00
ENDCHAR
STARTCHAR FBAF
ENCODING 64431
SWIDTH 810 0
DWIDTH 18 0
BBX 17 11 1 -5
BITMAP
007F80
03FF80
0FFF80
3E0000
780000
600000
C00000
800000
FFFF80
FFFE00
FFFC00
ENDCHAR
STARTCHAR FBB0
ENCODING 64432
SWIDTH 810 0
DWIDTH 18 0
BBX 17 14 1 -1
BITMAP
080000
180000
100000
018000
038000
078000
1C8000
780000
F00000
C00000
800000
FFFF80
FFFE00
FFFC00
ENDCHAR
STARTCHAR FBB1
ENCODING 64433
SWIDTH 810 0
DWIDTH 18 0
BBX 17 16 1 -5
BITMAP
003000
002000
003000
000000
000000
007F80
03FF80
0FFF80
3E0000
780000
600000
C00000
800000
FFFF80
FFFE00
FFFC00
ENDCHAR
STARTCHAR FBD3
ENCODING 64467
SWIDTH 540 0
DWIDTH 12 0
BBX 12 16 0 3
BITMAP
0400
0B00
0840
0060
0370
0270
0620
0720
0320
4320
4E30
4030
E010
FFF0
7FF0
3FF0
ENDCHAR
STARTCHAR FBD4
ENCODING 64468
SWIDTH 540 0
DWIDTH 12 0
BBX 12 16 0 3
BITMAP
0400
0B00
0840
0060
0370
0270
0620
0720
0320
4320
4E30
4030
E010
FFF0
7FF0
3FF0
ENDCHAR
STARTCHAR FBD5
ENCODING 64469
SWIDTH 360 0
DWIDTH 8 0
BBX 9 15 -1 3
BITMAP
1000
0C00
3100
0700
1F00
3C00
3800
3C00
1E00
0600
0300
0180
FF80
FF80
FF80
ENDCHAR
STARTCHAR FBD6
ENCODING 64470
SWIDTH 360 0
DWIDTH 8 0
BBX 9 15 -1 3
BITMAP
1000
0C00
3100
0700
1F00
3C00
3800
3C00
1E00
0600
0300
0180
FF80
FF80
FF80
ENDCHAR
STARTCHAR FBD7
ENCODING 64471
SWIDTH 450 0
DWIDTH 10 0
BBX 10 19 0 -2
BITMAP
0180
0180
0180
0200
0000
0000
0180
0380
03C0
06C0
0640
07C0
03C0
01C0
00C0
8380
7F80
3F00
0400
ENDCHAR
STARTCHAR FBD8
ENCODING 64472
SWIDTH 450 0
DWIDTH 10 0
BBX 10 19 0 -2
BITMAP
0180
0180
0180
0200
0000
0000
0180
0380
03C0
06C0
0640
07C0
03C0
01C0
00C0
8380
7F80
3F00
0400
ENDCHAR
STARTCHAR FBD9
ENCODING 64473
SWIDTH 450 0
DWIDTH 10 0
BBX 10 17 0 -2
BITMAP
0280
0380
0100
0000
0180
0380
03C0
06C0
0640
07C0
03C0
01C0
00C0
8380
7F80
3F00
0400
ENDCHAR
STARTCHAR FBDA
ENCODING 64474
SWIDTH 450 0
DWIDTH 10 0
BBX 10 17 0 -2
BITMAP
0280
0380
0100
0000
0180
0380
03C0
06C0
0640
07C0
03C0
01C0
00C0
8380
7F80
3F00
0400
ENDCHAR
STARTCHAR FBDB
ENCODING 64475
SWIDTH 450 0
DWIDTH 10 0
BBX 10 19 0 -1
BITMAP
0200
0200
0100
0100
0200
0000
0180
0380
03C0
06C0
0640
07C0
03C0
01C0
00C0
8380
7F80
3F00
0400
ENDCHAR
STARTCHAR FBDC
ENCODING 64476
SWIDTH 450 0
DWIDTH 10 0
BBX 10 19 0 -1
BITMAP
0200
0200
0100
0100
0200
0000
0180
0380
03C0
06C0
0640
07C0
03C0
01C0
00C0
8380
7F80
3F00
0400
ENDCHAR
STARTCHAR FBDD
ENCODING 64477
SWIDTH 450 0
DWIDTH 10 0
BBX 11 18 0 -2
BITMAP
0600
06E0
0260
0480
0800
0180
0380
03C0
06C0
0640
07C0
03C0
01C0
00C0
8380
7F80
3F00
0400
ENDCHAR
STARTCHAR FBDE
ENCODING 64478
SWIDTH 450 0
DWIDTH 10 0
BBX 10 20 0 -2
BITMAP
0600
0600
0600
05C0
0780
0E80
0000
0180
0380
03C0
06C0
0640
07C0
03C0
01C0
00C0
8380
7F80
3F00
0400
ENDCHAR
STARTCHAR FBDF
ENCODING 64479
SWIDTH 450 0
DWIDTH 10 0
BBX 10 20 0 -2
BITMAP
0600
0600
0600
05C0
0780
0E80
0000
0180
0380
03C0
06C0
0640
07C0
03C0
01C0
00C0
8380
7F80
3F00
0400
ENDCHAR
STARTCHAR FBE0
ENCODING 64480
SWIDTH 450 0
DWIDTH 10 0
BBX 10 13 0 -2
BITMAP
0180
0380
03C0
06C0
0640
07C0
03C0
01C0
1FC0
8380
7F80
3F00
0400
ENDCHAR
STARTCHAR FBE1
ENCODING 64481
SWIDTH 450 0
DWIDTH 10 0
BBX 10 13 0 -2
BITMAP
0180
0380
03C0
06C0
0640
07C0
03C0
01C0
1FC0
8380
7F80
3F00
0400
ENDCHAR
STARTCHAR FBE2
ENCODING 64482
SWIDTH 450 0
DWIDTH 10 0
BBX 10 17 0 -2
BITMAP
0100
0380
0680
0000
0180
0380
03C0
06C0
0640
07C0
03C0
01C0
00C0
8380
7F80
3F00
0400
ENDCHAR
STARTCHAR FBE3
ENCODING 64483
SWIDTH 450 0
DWIDTH 10 0
BBX 10 17 0 -2
BITMAP
0100
0380
0680
0000
0180
0380
03C0
06C0
0640
07C0
03C0
01C0
00C0
8380
7F80
3F00
0400
ENDCHAR
STARTCHAR FBE4
ENCODING 64484
SWIDTH 630 0
DWIDTH 14 0
BBX 11 14 2 -4
BITMAP
00E0
01E0
0320
4600
8600
87C0
83C0
80C0
83C0
FF80
FE00
0000
0800
0800
ENDCHAR
STARTCHAR FBE5
ENCODING 64485
SWIDTH 540 0
DWIDTH 12 0
BBX 12 11 0 -5
BITMAP
2070
40F0
41F0
81E0
81F0
C060
FFE0
7FC0
1C00
0400
0400
ENDCHAR
STARTCHAR FBE6
ENCODING 64486
SWIDTH 270 0
DWIDTH 6 0
BBX 7 14 -1 -4
BITMAP
04
06
06
06
02
FE
FE
FE
00
38
30
10
0C
1C
ENDCHAR
STARTCHAR FBE7
ENCODING 64487
SWIDTH 270 0
DWIDTH 6 0
BBX 7 14 -1 -4
BITMAP
04
06
06
06
02
FE
FE
FE
00
38
30
10
0C
1C
ENDCHAR
STARTCHAR FBFC
ENCODING 64508
SWIDTH 630 0
DWIDTH 14 0
BBX 11 11 2 -1
BITMAP
00E0
01E0
0320
4600
8600
87C0
83C0
80C0
83C0
FF80
FE00
ENDCHAR
STARTCHAR FBFD
ENCODING 64509
SWIDTH 540 0
DWIDTH 12 0
BBX 12 10 0 -4
BITMAP
2070
40F0
41F0
41E0
81F0
8020
C1E0
FFC0
7F80
3C00
ENDCHAR
STARTCHAR FBFE
ENCODING 64510
SWIDTH 270 0
DWIDTH 6 0
BBX 7 12 -1 -2
BITMAP
04
06
06
06
02
FE
FE
FE
00
0C
3C
74
ENDCHAR
STARTCHAR FBFF
ENCODING 64511
SWIDTH 270 0
DWIDTH 6 0
BBX 7 12 -1 -2
BITMAP
04
06
06
06
02
FE
FE
FE
00
0C
3C
74
ENDCHAR
STARTCHAR FC5E
ENCODING 64606
SWIDTH 225 0
DWIDTH 5 0
BBX 4 7 1 15
BITMAP
30
B0
B0
D0
50
E0
80
ENDCHAR
STARTCHAR FC5F
ENCODING 64607
SWIDTH 225 0
DWIDTH 5 0
BBX 4 7 1 15
BITMAP
10
50
E0
90
60
A0
C0
ENDCHAR
STARTCHAR FC60
ENCODING 64608
SWIDTH 225 0
DWIDTH 5 0
BBX 4 5 1 15
BITMAP
60
90
50
E0
80
ENDCHAR
STARTCHAR FC61
ENCODING 64609
SWIDTH 225 0
DWIDTH 5 0
BBX 4 7 1 15
BITMAP
20
60
30
D0
10
E0
80
ENDCHAR
STARTCHAR FC62
ENCODING 64610
SWIDTH 225 0
DWIDTH 5 0
BBX 4 6 1 15
BITMAP
10
50
E0
80
60
80
ENDCHAR
STARTCHAR FD3E
ENCODING 64830
SWIDTH 315 0
DWIDTH 7 0
BBX 5 22 1 -5
BITMAP
08
10
30
30
20
60
60
60
E0
E0
E0
E0
E0
60
60
60
60
30
30
10
08
08
ENDCHAR
STARTCHAR FD3F
ENCODING 64831
SWIDTH 315 0
DWIDTH 7 0
BBX 5 22 1 -5
BITMAP
80
40
60
60
30
30
30
38
38
18
18
18
38
38
30
30
30
20
60
40
C0
80
ENDCHAR
STARTCHAR FDF2
ENCODING 65010
SWIDTH 720 0
DWIDTH 16 0
BBX 15 18 0 2
BITMAP
0200
0100
0100
0000
00C0
00C0
0100
0008
0048
084C
0C4C
0C64
1C66
3426
7E7E
7FFC
FBFC
03C0
ENDCHAR
STARTCHAR FE80
ENCODING 65152
SWIDTH 450 0
DWIDTH 10 0
BBX 8 10 1 1
BITMAP
3C
3C
6C
60
F7
7F
3C
30
60
40
ENDCHAR
STARTCHAR FE81
ENCODING 65153
SWIDTH 225 0
DWIDTH 5 0
BBX 5 15 0 2
BITMAP
F8
00
20
20
20
20
30
30
30
30
30
30
30
10
20
ENDCHAR
STARTCHAR FE82
ENCODING 65154
SWIDTH 270 0
DWIDTH 6 0
BBX 7 15 -1 3
BITMAP
F8
00
20
30
30
30
10
10
10
10
10
10
1E
1E
0E
ENDCHAR
STARTCHAR FE83
ENCODING 65155
SWIDTH 225 0
DWIDTH 5 0
BBX 3 16 1 2
BITMAP
C0
60
80
40
40
40
40
60
60
60
60
60
60
20
20
40
ENDCHAR
STARTCHAR FE84
ENCODING 65156
SWIDTH 225 0
DWIDTH 5 0
BBX 5 16 0 3
BITMAP
C0
E0
00
40
40
E0
60
60
60
60
60
60
60
78
38
38
ENDCHAR
STARTCHAR FE85
ENCODING 65157
SWIDTH 450 0
DWIDTH 10 0
BBX 10 17 0 -2
BITMAP
0800
1000
0C00
0000
0180
0380
03C0
06C0
0640
07C0
03C0
01C0
00C0
8380
7F80
3F00
0400
ENDCHAR
STARTCHAR FE86
ENCODING 65158
SWIDTH 450 0
DWIDTH 10 0
BBX 10 17 0 -2
BITMAP
0800
1000
0C00
0000
0180
0380
03C0
06C0
0640
07C0
03C0
01C0
00C0
8380
7F80
3F00
0400
ENDCHAR
STARTCHAR FE87
ENCODING 65159
SWIDTH 225 0
DWIDTH 5 0
BBX 3 18 1 -2
BITMAP
40
40
40
40
60
60
60
60
60
60
60
20
40
00
00
60
C0
C0
ENDCHAR
ENDFONT
